<svg width="607" height="400" viewBox="0 0 607 400" fill="none" xmlns="http://www.w3.org/2000/svg">
<g clip-path="url(#clip0_453_16302)">
<mask id="mask0_453_16302" style="mask-type:alpha" maskUnits="userSpaceOnUse" x="6" y="-87" width="620" height="566">
<path d="M510.88 -29.3647L538.198 -25.9384L536.677 -13.8093L533.642 -14.19L534.783 -23.2868L510.5 -26.3324L508.218 -8.13863L520.359 -6.61586L519.979 -3.58357L504.802 -5.48703L507.845 -29.7454L510.88 -29.3647ZM516.19 -22.5387L513.155 -22.9194L512.775 -19.8871L515.81 -19.5064L515.43 -16.4741L518.465 -16.0934L518.085 -13.0611L524.155 -12.2997L524.536 -15.332L527.571 -14.9513L527.951 -17.9836L530.987 -17.6029L531.367 -20.6352L528.332 -21.0159L527.951 -17.9836L524.916 -18.3643L524.536 -15.332L518.465 -16.0934L518.845 -19.1257L515.81 -19.5064L516.19 -22.5387ZM530.226 -11.5384L533.261 -11.1577L532.501 -5.09309L538.572 -4.3317L538.191 -1.29941L535.156 -1.6801L534.776 1.35219L531.74 0.971497L531.36 4.00379L528.325 3.62309L529.085 -2.44149L523.014 -3.20287L523.395 -6.23517L526.43 -5.85447L526.81 -8.88676L529.846 -8.50607L530.226 -11.5384Z" fill="#FFC7E4"/>
<path d="M554.893 -23.8445L582.212 -20.4183L580.31 -5.25683L577.275 -5.63752L578.796 -17.7667L554.513 -20.8122L552.231 -2.61849L564.373 -1.09572L563.992 1.93658L548.815 0.0331094L551.858 -24.2252L554.893 -23.8445ZM560.203 -17.0186L557.168 -17.3993L556.788 -14.367L559.823 -13.9863L559.443 -10.954L562.478 -10.5733L562.098 -7.54099L568.169 -6.7796L568.549 -9.8119L571.584 -9.4312L571.965 -12.4635L575 -12.0828L575.38 -15.1151L572.345 -15.4958L571.965 -12.4635L568.929 -12.8442L568.549 -9.8119L562.478 -10.5733L562.858 -13.6056L559.823 -13.9863L560.203 -17.0186ZM567.408 -0.715022L570.443 -0.334329L570.063 2.69796L567.028 2.31727L567.408 -0.715022ZM573.098 3.07866L572.718 6.11095L569.683 5.73025L570.063 2.69796L573.098 3.07866ZM576.514 0.427058L573.479 0.0463646L573.098 3.07866L576.134 3.45935L576.514 0.427058ZM576.514 0.427058L576.894 -2.60523L579.93 -2.22454L579.549 0.807751L576.514 0.427058Z" fill="#FFC7E4"/>
<path d="M614.463 -19.4534L608.392 -20.2148L608.012 -17.1825L604.977 -17.5632L604.596 -14.5309L601.561 -14.9116L601.181 -11.8793L598.145 -12.26L597.765 -9.22769L594.73 -9.60839L592.448 8.58536L622.801 12.3923L625.083 -5.80145L622.048 -6.18215L622.428 -9.21444L619.393 -9.59513L619.773 -12.6274L616.738 -13.0081L617.118 -16.0404L614.083 -16.4211L614.463 -19.4534ZM614.083 -16.4211L613.703 -13.3888L616.738 -13.0081L616.358 -9.97582L619.393 -9.59513L618.632 -3.53055L615.597 -3.91124L615.217 -0.878951L612.181 -1.25964L611.801 1.77265L605.73 1.01126L606.111 -2.02103L603.075 -2.40172L603.456 -5.43401L600.42 -5.81471L601.181 -11.8793L604.216 -11.4986L604.596 -14.5309L607.632 -14.1502L608.012 -17.1825L614.083 -16.4211ZM600.42 -5.81471L600.04 -2.78242L603.075 -2.40172L602.695 0.630567L605.73 1.01126L605.35 4.04355L611.421 4.80494L611.801 1.77265L614.836 2.15334L615.217 -0.878951L618.252 -0.498258L618.632 -3.53055L621.668 -3.14985L620.146 8.97931L595.864 5.93376L597.385 -6.1954L600.42 -5.81471Z" fill="#FFC7E4"/>
<path d="M212.834 -25.1655L206.763 -25.9269L206.383 -22.8946L203.347 -23.2753L202.967 -20.243L199.932 -20.6237L199.551 -17.5914L196.516 -17.9721L196.136 -14.9399L193.1 -15.3205L190.818 2.8732L221.172 6.68014L223.454 -11.5136L220.419 -11.8943L220.799 -14.9266L217.764 -15.3073L218.144 -18.3396L215.108 -18.7203L215.489 -21.7526L212.453 -22.1333L212.834 -25.1655ZM212.453 -22.1333L212.073 -19.101L215.108 -18.7203L214.728 -15.688L217.764 -15.3073L217.003 -9.24271L213.968 -9.6234L213.587 -6.59111L210.552 -6.9718L210.172 -3.93951L204.101 -4.7009L204.481 -7.73319L201.446 -8.11388L201.826 -11.1462L198.791 -11.5269L199.551 -17.5914L202.587 -17.2108L202.967 -20.243L206.002 -19.8624L206.383 -22.8946L212.453 -22.1333ZM198.791 -11.5269L198.41 -8.49458L201.446 -8.11388L201.066 -5.08159L204.101 -4.7009L203.721 -1.66861L209.791 -0.90722L210.172 -3.93951L213.207 -3.55882L213.587 -6.59111L216.623 -6.21042L217.003 -9.24271L220.038 -8.86201L218.517 3.26715L194.234 0.221605L195.755 -11.9076L198.791 -11.5269Z" fill="#FFC7E4"/>
<path d="M268.988 -18.1228L259.882 -19.2648L258.741 -10.168L267.847 -9.02588L268.988 -18.1228ZM241.29 -18.5167L256.467 -16.6132L256.086 -13.5809L240.91 -15.4844L238.628 2.70933L262.911 5.75488L264.432 -6.37428L267.467 -5.99359L265.566 9.16787L235.212 5.36093L238.254 -18.8974L241.29 -18.5167ZM246.6 -11.6907L243.565 -12.0714L243.184 -9.03914L246.22 -8.65844L245.839 -5.62615L248.875 -5.24546L248.494 -2.21317L254.565 -1.45178L254.945 -4.48407L257.981 -4.10338L258.361 -7.13567L255.326 -7.51636L254.945 -4.48407L248.875 -5.24546L249.255 -8.27775L246.22 -8.65844L246.6 -11.6907Z" fill="#FFC7E4"/>
<path d="M285.302 -12.9966L312.621 -9.57039L311.099 2.55878L308.064 2.17808L309.205 -6.91879L284.922 -9.96434L282.64 8.22941L294.782 9.75218L294.401 12.7845L279.225 10.881L282.267 -13.3773L285.302 -12.9966ZM290.613 -6.17066L287.577 -6.55135L287.197 -3.51906L290.232 -3.13837L289.852 -0.106076L292.887 0.274617L292.507 3.30691L298.578 4.0683L298.958 1.036L301.993 1.4167L302.374 -1.61559L305.409 -1.2349L305.789 -4.26719L302.754 -4.64788L302.374 -1.61559L299.338 -1.99629L298.958 1.036L292.887 0.274617L293.268 -2.75767L290.232 -3.13837L290.613 -6.17066ZM304.648 4.82968L307.684 5.21038L306.923 11.275L312.994 12.0363L312.614 15.0686L309.578 14.6879L309.198 17.7202L306.163 17.3395L305.782 20.3718L302.747 19.9911L303.507 13.9266L297.437 13.1652L297.817 10.1329L300.852 10.5136L301.233 7.48128L304.268 7.86197L304.648 4.82968Z" fill="#FFC7E4"/>
<path d="M329.315 -7.47661L356.633 -4.05037L354.732 11.1111L351.696 10.7304L353.218 -1.39877L328.935 -4.44432L326.653 13.7494L338.794 15.2722L338.414 18.3045L323.237 16.401L326.28 -7.8573L329.315 -7.47661ZM334.625 -0.650638L331.59 -1.03133L331.21 2.00096L334.245 2.38165L333.865 5.41394L336.9 5.79464L336.52 8.82693L342.59 9.58832L342.971 6.55602L346.006 6.93672L346.386 3.90443L349.422 4.28512L349.802 1.25283L346.767 0.872136L346.386 3.90443L343.351 3.52373L342.971 6.55602L336.9 5.79464L337.28 2.76235L334.245 2.38165L334.625 -0.650638ZM341.83 15.6529L344.865 16.0336L344.485 19.0659L341.449 18.6852L341.83 15.6529ZM347.52 19.4466L347.14 22.4789L344.105 22.0982L344.485 19.0659L347.52 19.4466ZM350.936 16.795L347.901 16.4143L347.52 19.4466L350.556 19.8273L350.936 16.795ZM350.936 16.795L351.316 13.7627L354.352 14.1434L353.971 17.1757L350.936 16.795Z" fill="#FFC7E4"/>
<path d="M388.885 -3.08535L382.814 -3.84673L382.434 -0.814443L379.399 -1.19514L379.018 1.83715L375.983 1.45646L375.603 4.48875L372.567 4.10806L372.187 7.14035L369.152 6.75966L366.87 24.9534L397.223 28.7603L399.505 10.5666L396.47 10.1859L396.85 7.15361L393.815 6.77291L394.195 3.74062L391.16 3.35993L391.54 0.327637L388.505 -0.053056L388.885 -3.08535ZM388.505 -0.053056L388.124 2.97923L391.16 3.35993L390.779 6.39222L393.815 6.77291L393.054 12.8375L390.019 12.4568L389.639 15.4891L386.603 15.1084L386.223 18.1407L380.152 17.3793L380.532 14.347L377.497 13.9663L377.877 10.934L374.842 10.5533L375.603 4.48875L378.638 4.86945L379.018 1.83715L382.054 2.21785L382.434 -0.814443L388.505 -0.053056ZM374.842 10.5533L374.462 13.5856L377.497 13.9663L377.117 16.9986L380.152 17.3793L379.772 20.4116L385.843 21.173L386.223 18.1407L389.258 18.5214L389.639 15.4891L392.674 15.8698L393.054 12.8375L396.09 13.2182L394.568 25.3474L370.285 22.3018L371.807 10.1726L374.842 10.5533Z" fill="#FFC7E4"/>
<path d="M445.039 3.95745L435.933 2.81537L434.792 11.9122L443.898 13.0543L445.039 3.95745ZM417.341 3.5635L432.517 5.46696L432.137 8.49925L416.96 6.59579L414.678 24.7895L438.961 27.8351L440.483 15.7059L443.518 16.0866L441.616 31.2481L411.263 27.4411L414.305 3.1828L417.341 3.5635ZM422.651 10.3895L419.615 10.0088L419.235 13.0411L422.27 13.4218L421.89 16.454L424.925 16.8347L424.545 19.867L430.616 20.6284L430.996 17.5961L434.032 17.9768L434.412 14.9445L431.376 14.5638L430.996 17.5961L424.925 16.8347L425.306 13.8025L422.27 13.4218L422.651 10.3895Z" fill="#FFC7E4"/>
<path d="M461.353 9.08357L488.671 12.5098L487.15 24.639L484.115 24.2583L485.256 15.1614L460.973 12.1159L458.691 30.3096L470.833 31.8324L470.452 34.8647L455.275 32.9612L458.318 8.70288L461.353 9.08357ZM466.663 15.9095L463.628 15.5288L463.248 18.5611L466.283 18.9418L465.903 21.9741L468.938 22.3548L468.558 25.3871L474.628 26.1485L475.009 23.1162L478.044 23.4969L478.424 20.4646L481.46 20.8453L481.84 17.813L478.805 17.4323L478.424 20.4646L475.389 20.0839L475.009 23.1162L468.938 22.3548L469.318 19.3225L466.283 18.9418L466.663 15.9095ZM480.699 26.9099L483.735 27.2906L482.974 33.3552L489.045 34.1165L488.664 37.1488L485.629 36.7681L485.249 39.8004L482.213 39.4197L481.833 42.452L478.798 42.0713L479.558 36.0068L473.488 35.2454L473.868 32.2131L476.903 32.5938L477.284 29.5615L480.319 29.9422L480.699 26.9099Z" fill="#FFC7E4"/>
<path d="M505.366 14.6036L532.684 18.0298L530.783 33.1913L527.747 32.8106L529.268 20.6814L504.986 17.6359L502.704 35.8296L514.845 37.3524L514.465 40.3847L499.288 38.4812L502.331 14.2229L505.366 14.6036ZM510.676 21.4296L507.641 21.0489L507.26 24.0812L510.296 24.4619L509.915 27.4941L512.951 27.8748L512.57 30.9071L518.641 31.6685L519.021 28.6362L522.057 29.0169L522.437 25.9846L525.473 26.3653L525.853 23.333L522.817 22.9523L522.437 25.9846L519.402 25.6039L519.021 28.6362L512.951 27.8748L513.331 24.8425L510.296 24.4619L510.676 21.4296ZM517.881 37.7331L520.916 38.1138L520.536 41.1461L517.5 40.7654L517.881 37.7331ZM523.571 41.5268L523.191 44.5591L520.155 44.1784L520.536 41.1461L523.571 41.5268ZM526.987 38.8752L523.951 38.4945L523.571 41.5268L526.606 41.9075L526.987 38.8752ZM526.987 38.8752L527.367 35.8429L530.402 36.2236L530.022 39.2559L526.987 38.8752Z" fill="#FFC7E4"/>
<path d="M564.936 18.9949L558.865 18.2335L558.485 21.2658L555.449 20.8851L555.069 23.9174L552.034 23.5367L551.653 26.569L548.618 26.1883L548.238 29.2206L545.202 28.8399L542.921 47.0336L573.274 50.8405L575.556 32.6468L572.521 32.2661L572.901 29.2338L569.866 28.8531L570.246 25.8208L567.211 25.4401L567.591 22.4078L564.555 22.0271L564.936 18.9949ZM564.555 22.0271L564.175 25.0594L567.211 25.4401L566.83 28.4724L569.866 28.8531L569.105 34.9177L566.07 34.537L565.689 37.5693L562.654 37.1886L562.274 40.2209L556.203 39.4595L556.583 36.4272L553.548 36.0465L553.928 33.0142L550.893 32.6335L551.653 26.569L554.689 26.9496L555.069 23.9174L558.104 24.298L558.485 21.2658L564.555 22.0271ZM550.893 32.6335L550.513 35.6658L553.548 36.0465L553.168 39.0788L556.203 39.4595L555.823 42.4918L561.893 43.2532L562.274 40.2209L565.309 40.6016L565.689 37.5693L568.725 37.95L569.105 34.9177L572.14 35.2984L570.619 47.4276L546.336 44.382L547.857 32.2528L550.893 32.6335Z" fill="#FFC7E4"/>
<path d="M621.09 26.0376L611.984 24.8956L610.843 33.9924L619.949 35.1345L621.09 26.0376ZM593.391 25.6437L608.568 27.5472L608.188 30.5795L593.011 28.676L590.729 46.8697L615.012 49.9153L616.533 37.7861L619.569 38.1668L617.667 53.3283L587.314 49.5213L590.356 25.263L593.391 25.6437ZM598.701 32.4697L595.666 32.089L595.286 35.1213L598.321 35.502L597.941 38.5342L600.976 38.9149L600.596 41.9472L606.667 42.7086L607.047 39.6763L610.082 40.057L610.463 37.0247L607.427 36.644L607.047 39.6763L600.976 38.9149L601.357 35.8827L598.321 35.502L598.701 32.4697Z" fill="#FFC7E4"/>
<path d="M59.7243 3.37129L87.0426 6.79753L85.5213 18.9267L82.486 18.546L83.6269 9.44913L59.344 6.40358L57.0622 24.5973L69.2036 26.1201L68.8233 29.1524L53.6465 27.2489L56.689 2.9906L59.7243 3.37129ZM65.0344 10.1973L61.9991 9.81657L61.6188 12.8489L64.6541 13.2296L64.2738 16.2618L67.3092 16.6425L66.9289 19.6748L72.9996 20.4362L73.3799 17.4039L76.4152 17.7846L76.7956 14.7523L79.8309 15.133L80.2112 12.1007L77.1759 11.72L76.7956 14.7523L73.7602 14.3716L73.3799 17.4039L67.3092 16.6425L67.6895 13.6102L64.6541 13.2296L65.0344 10.1973ZM79.0703 21.1976L82.1057 21.5783L81.345 27.6429L87.4158 28.4043L87.0355 31.4366L84.0001 31.0559L83.6198 34.0882L80.5844 33.7075L80.2041 36.7397L77.1688 36.3591L77.9294 30.2945L71.8587 29.5331L72.239 26.5008L75.2743 26.8815L75.6546 23.8492L78.69 24.2299L79.0703 21.1976Z" fill="#FFC7E4"/>
<path d="M104.117 5.85909L131.436 9.28533L129.534 24.4468L126.499 24.0661L128.02 11.9369L103.737 8.89138L101.455 27.0851L113.597 28.6079L113.216 31.6402L98.0396 29.7367L101.082 5.47839L104.117 5.85909ZM109.427 12.6851L106.392 12.3044L106.012 15.3367L109.047 15.7173L108.667 18.7496L111.702 19.1303L111.322 22.1626L117.393 22.924L117.773 19.8917L120.808 20.2724L121.189 17.2401L124.224 17.6208L124.604 14.5885L121.569 14.2078L121.189 17.2401L118.153 16.8594L117.773 19.8917L111.702 19.1303L112.083 16.098L109.047 15.7173L109.427 12.6851ZM116.632 28.9886L119.667 29.3693L119.287 32.4016L116.252 32.0209L116.632 28.9886ZM122.322 32.7823L121.942 35.8146L118.907 35.4339L119.287 32.4016L122.322 32.7823ZM125.738 30.1307L122.703 29.75L122.322 32.7823L125.358 33.163L125.738 30.1307ZM125.738 30.1307L126.118 27.0984L129.154 27.4791L128.773 30.5114L125.738 30.1307Z" fill="#FFC7E4"/>
<path d="M163.687 10.2502L157.617 9.48884L157.236 12.5211L154.201 12.1404L153.821 15.1727L150.785 14.792L150.405 17.8243L147.37 17.4436L146.989 20.4759L143.954 20.0952L141.672 38.289L172.026 42.0959L174.307 23.9022L171.272 23.5215L171.652 20.4892L168.617 20.1085L168.997 17.0762L165.962 16.6955L166.342 13.6632L163.307 13.2825L163.687 10.2502ZM163.307 13.2825L162.927 16.3148L165.962 16.6955L165.582 19.7278L168.617 20.1085L167.856 26.1731L164.821 25.7924L164.441 28.8247L161.405 28.444L161.025 31.4763L154.954 30.7149L155.335 27.6826L152.299 27.3019L152.68 24.2696L149.644 23.8889L150.405 17.8243L153.44 18.205L153.821 15.1727L156.856 15.5534L157.236 12.5211L163.307 13.2825ZM149.644 23.8889L149.264 26.9212L152.299 27.3019L151.919 30.3342L154.954 30.7149L154.574 33.7472L160.645 34.5086L161.025 31.4763L164.06 31.857L164.441 28.8247L167.476 29.2054L167.856 26.1731L170.892 26.5538L169.371 38.6829L145.088 35.6374L146.609 23.5082L149.644 23.8889Z" fill="#FFC7E4"/>
<path d="M219.461 20.3254L210.355 19.1833L209.214 28.2802L218.32 29.4222L219.461 20.3254ZM191.762 19.9314L206.939 21.8349L206.559 24.8672L191.382 22.9637L189.1 41.1575L213.383 44.203L214.904 32.0738L217.94 32.4545L216.038 47.616L185.685 43.8091L188.727 19.5507L191.762 19.9314ZM197.073 26.7574L194.037 26.3767L193.657 29.409L196.692 29.7897L196.312 32.822L199.347 33.2027L198.967 36.235L205.038 36.9963L205.418 33.964L208.453 34.3447L208.834 31.3125L205.798 30.9318L205.418 33.964L199.347 33.2027L199.728 30.1704L196.692 29.7897L197.073 26.7574Z" fill="#FFC7E4"/>
<path d="M235.775 25.4515L263.093 28.8777L261.572 41.0069L258.537 40.6262L259.678 31.5293L235.395 28.4838L233.113 46.6775L245.254 48.2003L244.874 51.2326L229.697 49.3291L232.74 25.0708L235.775 25.4515ZM241.085 32.2775L238.05 31.8968L237.67 34.9291L240.705 35.3098L240.325 38.342L243.36 38.7227L242.98 41.755L249.05 42.5164L249.431 39.4841L252.466 39.8648L252.846 36.8325L255.882 37.2132L256.262 34.1809L253.227 33.8002L252.846 36.8325L249.811 36.4518L249.431 39.4841L243.36 38.7227L243.74 35.6904L240.705 35.3098L241.085 32.2775ZM255.121 43.2778L258.156 43.6585L257.396 49.7231L263.467 50.4845L263.086 53.5168L260.051 53.1361L259.671 56.1684L256.635 55.7877L256.255 58.82L253.22 58.4393L253.98 52.3747L247.909 51.6133L248.29 48.581L251.325 48.9617L251.705 45.9294L254.741 46.3101L255.121 43.2778Z" fill="#FFC7E4"/>
<path d="M279.788 30.9715L307.106 34.3978L305.204 49.5592L302.169 49.1785L303.69 37.0494L279.407 34.0038L277.126 52.1976L289.267 53.7203L288.887 56.7526L273.71 54.8491L276.752 30.5908L279.788 30.9715ZM285.098 37.7975L282.063 37.4168L281.682 40.4491L284.718 40.8298L284.337 43.8621L287.373 44.2428L286.992 47.275L293.063 48.0364L293.443 45.0041L296.479 45.3848L296.859 42.3525L299.894 42.7332L300.275 39.7009L297.239 39.3203L296.859 42.3525L293.824 41.9719L293.443 45.0041L287.373 44.2428L287.753 41.2105L284.718 40.8298L285.098 37.7975ZM292.302 54.101L295.338 54.4817L294.957 57.514L291.922 57.1333L292.302 54.101ZM297.993 57.8947L297.613 60.927L294.577 60.5463L294.957 57.514L297.993 57.8947ZM301.409 55.2431L298.373 54.8624L297.993 57.8947L301.028 58.2754L301.409 55.2431ZM301.409 55.2431L301.789 52.2108L304.824 52.5915L304.444 55.6238L301.409 55.2431Z" fill="#FFC7E4"/>
<path d="M339.358 35.3628L333.287 34.6014L332.907 37.6337L329.871 37.253L329.491 40.2853L326.456 39.9046L326.075 42.9369L323.04 42.5562L322.66 45.5885L319.624 45.2078L317.342 63.4015L347.696 67.2085L349.978 49.0147L346.943 48.634L347.323 45.6017L344.287 45.221L344.668 42.1887L341.632 41.808L342.013 38.7758L338.977 38.3951L339.358 35.3628ZM338.977 38.3951L338.597 41.4274L341.632 41.808L341.252 44.8403L344.287 45.221L343.527 51.2856L340.491 50.9049L340.111 53.9372L337.076 53.5565L336.696 56.5888L330.625 55.8274L331.005 52.7951L327.97 52.4144L328.35 49.3821L325.315 49.0015L326.075 42.9369L329.111 43.3176L329.491 40.2853L332.526 40.666L332.907 37.6337L338.977 38.3951ZM325.315 49.0015L324.934 52.0337L327.97 52.4144L327.589 55.4467L330.625 55.8274L330.244 58.8597L336.315 59.6211L336.696 56.5888L339.731 56.9695L340.111 53.9372L343.147 54.3179L343.527 51.2856L346.562 51.6663L345.041 63.7955L320.758 60.7499L322.279 48.6208L325.315 49.0015Z" fill="#FFC7E4"/>
<path d="M395.512 42.4056L386.406 41.2635L385.265 50.3604L394.371 51.5024L395.512 42.4056ZM367.813 42.0116L382.99 43.9151L382.61 46.9474L367.433 45.0439L365.151 63.2377L389.434 66.2832L390.955 54.154L393.991 54.5347L392.089 69.6962L361.735 65.8893L364.778 41.6309L367.813 42.0116ZM373.123 48.8376L370.088 48.4569L369.708 51.4892L372.743 51.8699L372.363 54.9022L375.398 55.2829L375.018 58.3152L381.089 59.0765L381.469 56.0442L384.504 56.4249L384.884 53.3927L381.849 53.012L381.469 56.0442L375.398 55.2829L375.778 52.2506L372.743 51.8699L373.123 48.8376Z" fill="#FFC7E4"/>
<path d="M411.826 47.5317L439.144 50.9579L437.623 63.0871L434.588 62.7064L435.728 53.6095L411.446 50.564L409.164 68.7577L421.305 70.2805L420.925 73.3128L405.748 71.4093L408.791 47.151L411.826 47.5317ZM417.136 54.3577L414.101 53.977L413.72 57.0093L416.756 57.39L416.375 60.4222L419.411 60.8029L419.03 63.8352L425.101 64.5966L425.481 61.5643L428.517 61.945L428.897 58.9127L431.932 59.2934L432.313 56.2611L429.277 55.8804L428.897 58.9127L425.862 58.532L425.481 61.5643L419.411 60.8029L419.791 57.7706L416.756 57.39L417.136 54.3577ZM431.172 65.358L434.207 65.7387L433.447 71.8033L439.517 72.5647L439.137 75.597L436.102 75.2163L435.721 78.2486L432.686 77.8679L432.306 80.9002L429.27 80.5195L430.031 74.4549L423.96 73.6935L424.341 70.6612L427.376 71.0419L427.756 68.0096L430.792 68.3903L431.172 65.358Z" fill="#FFC7E4"/>
<path d="M455.839 53.0517L483.157 56.478L481.255 71.6394L478.22 71.2587L479.741 59.1296L455.458 56.084L453.176 74.2778L465.318 75.8005L464.938 78.8328L449.761 76.9293L452.803 52.671L455.839 53.0517ZM461.149 59.8777L458.113 59.497L457.733 62.5293L460.768 62.91L460.388 65.9423L463.423 66.323L463.043 69.3552L469.114 70.1166L469.494 67.0843L472.53 67.465L472.91 64.4327L475.945 64.8134L476.325 61.7811L473.29 61.4005L472.91 64.4327L469.874 64.0521L469.494 67.0843L463.423 66.323L463.804 63.2907L460.768 62.91L461.149 59.8777ZM468.353 76.1812L471.389 76.5619L471.008 79.5942L467.973 79.2135L468.353 76.1812ZM474.044 79.9749L473.663 83.0072L470.628 82.6265L471.008 79.5942L474.044 79.9749ZM477.459 77.3233L474.424 76.9426L474.044 79.9749L477.079 80.3556L477.459 77.3233ZM477.459 77.3233L477.84 74.291L480.875 74.6717L480.495 77.704L477.459 77.3233Z" fill="#FFC7E4"/>
<path d="M515.408 57.443L509.338 56.6816L508.957 59.7139L505.922 59.3332L505.542 62.3655L502.506 61.9848L502.126 65.0171L499.091 64.6364L498.71 67.6687L495.675 67.288L493.393 85.4817L523.747 89.2887L526.029 71.0949L522.993 70.7142L523.374 67.6819L520.338 67.3012L520.719 64.2689L517.683 63.8882L518.064 60.856L515.028 60.4753L515.408 57.443ZM515.028 60.4753L514.648 63.5076L517.683 63.8882L517.303 66.9205L520.338 67.3012L519.578 73.3658L516.542 72.9851L516.162 76.0174L513.127 75.6367L512.746 78.669L506.676 77.9076L507.056 74.8753L504.021 74.4946L504.401 71.4623L501.365 71.0817L502.126 65.0171L505.161 65.3978L505.542 62.3655L508.577 62.7462L508.957 59.7139L515.028 60.4753ZM501.365 71.0817L500.985 74.1139L504.021 74.4946L503.64 77.5269L506.676 77.9076L506.295 80.9399L512.366 81.7013L512.746 78.669L515.782 79.0497L516.162 76.0174L519.197 76.3981L519.578 73.3658L522.613 73.7465L521.092 85.8757L496.809 82.8301L498.33 70.701L501.365 71.0817Z" fill="#FFC7E4"/>
<path d="M571.563 64.4858L562.457 63.3437L561.316 72.4406L570.422 73.5826L571.563 64.4858ZM543.864 64.0918L559.041 65.9953L558.661 69.0276L543.484 67.1241L541.202 85.3179L565.485 88.3634L567.006 76.2342L570.041 76.6149L568.14 91.7764L537.786 87.9695L540.829 63.7111L543.864 64.0918ZM549.174 70.9178L546.139 70.5371L545.758 73.5694L548.794 73.9501L548.414 76.9824L551.449 77.3631L551.069 80.3954L557.139 81.1567L557.52 78.1244L560.555 78.5051L560.935 75.4729L557.9 75.0922L557.52 78.1244L551.449 77.3631L551.829 74.3308L548.794 73.9501L549.174 70.9178Z" fill="#FFC7E4"/>
<path d="M587.877 69.6119L615.195 73.0381L613.674 85.1673L610.638 84.7866L611.779 75.6897L587.496 72.6442L585.215 90.8379L597.356 92.3607L596.976 95.393L581.799 93.4895L584.841 69.2312L587.877 69.6119ZM593.187 76.4379L590.151 76.0572L589.771 79.0895L592.806 79.4702L592.426 82.5024L595.462 82.8831L595.081 85.9154L601.152 86.6768L601.532 83.6445L604.568 84.0252L604.948 80.9929L607.983 81.3736L608.364 78.3413L605.328 77.9606L604.948 80.9929L601.913 80.6122L601.532 83.6445L595.462 82.8831L595.842 79.8508L592.806 79.4702L593.187 76.4379ZM607.223 87.4382L610.258 87.8189L609.497 93.8835L615.568 94.6449L615.188 97.6772L612.152 97.2965L611.772 100.329L608.737 99.9481L608.356 102.98L605.321 102.6L606.082 96.5351L600.011 95.7737L600.391 92.7414L603.427 93.1221L603.807 90.0898L606.842 90.4705L607.223 87.4382Z" fill="#FFC7E4"/>
<path d="M76.9748 50.1947L104.293 53.6209L102.392 68.7824L99.3561 68.4017L100.877 56.2725L76.5945 53.2269L74.3127 71.4207L86.4541 72.9435L86.0738 75.9758L70.897 74.0723L73.9395 49.814L76.9748 50.1947ZM82.2849 57.0206L79.2496 56.6399L78.8692 59.6722L81.9046 60.0529L81.5243 63.0852L84.5597 63.4659L84.1794 66.4982L90.2501 67.2596L90.6304 64.2273L93.6657 64.608L94.046 61.5757L97.0814 61.9564L97.4617 58.9241L94.4264 58.5434L94.046 61.5757L91.0107 61.195L90.6304 64.2273L84.5597 63.4659L84.94 60.4336L81.9046 60.0529L82.2849 57.0206ZM89.4895 73.3242L92.5248 73.7049L92.1445 76.7371L89.1091 76.3565L89.4895 73.3242ZM95.1799 77.1178L94.7996 80.1501L91.7642 79.7694L92.1445 76.7371L95.1799 77.1178ZM98.5955 74.4662L95.5602 74.0855L95.1799 77.1178L98.2152 77.4985L98.5955 74.4662ZM98.5955 74.4662L98.9758 71.434L102.011 71.8146L101.631 74.8469L98.5955 74.4662Z" fill="#FFC7E4"/>
<path d="M164.81 62.7509L192.129 66.1772L190.227 81.3386L187.192 80.9579L188.713 68.8288L164.43 65.7832L162.148 83.977L174.29 85.4997L173.909 88.532L158.732 86.6286L161.775 62.3702L164.81 62.7509ZM170.12 69.5769L167.085 69.1962L166.705 72.2285L169.74 72.6092L169.36 75.6415L172.395 76.0222L172.015 79.0545L178.086 79.8159L178.466 76.7836L181.501 77.1643L181.881 74.132L184.917 74.5127L185.297 71.4804L182.262 71.0997L181.881 74.132L178.846 73.7513L178.466 76.7836L172.395 76.0222L172.775 72.9899L169.74 72.6092L170.12 69.5769ZM177.325 85.8804L180.36 86.2611L179.98 89.2934L176.945 88.9127L177.325 85.8804ZM183.015 89.6741L182.635 92.7064L179.6 92.3257L179.98 89.2934L183.015 89.6741ZM186.431 87.0225L183.396 86.6418L183.015 89.6741L186.051 90.0548L186.431 87.0225ZM186.431 87.0225L186.811 83.9902L189.847 84.3709L189.466 87.4032L186.431 87.0225Z" fill="#FFC7E4"/>
<path d="M136.545 54.5859L130.474 53.8245L130.094 56.8568L127.058 56.4761L126.678 59.5084L123.643 59.1277L123.262 62.16L120.227 61.7793L119.847 64.8116L116.811 64.4309L114.529 82.6247L144.883 86.4316L147.165 68.2379L144.13 67.8572L144.51 64.8249L141.474 64.4442L141.855 61.4119L138.819 61.0312L139.2 57.9989L136.164 57.6182L136.545 54.5859ZM136.164 57.6182L135.784 60.6505L138.819 61.0312L138.439 64.0635L141.474 64.4442L140.714 70.5088L137.678 70.1281L137.298 73.1604L134.263 72.7797L133.883 75.812L127.812 75.0506L128.192 72.0183L125.157 71.6376L125.537 68.6053L122.502 68.2246L123.262 62.16L126.298 62.5407L126.678 59.5084L129.713 59.8891L130.094 56.8568L136.164 57.6182ZM122.502 68.2246L122.121 71.2569L125.157 71.6376L124.776 74.6699L127.812 75.0506L127.431 78.0829L133.502 78.8442L133.883 75.812L136.918 76.1926L137.298 73.1604L140.334 73.541L140.714 70.5088L143.749 70.8895L142.228 83.0186L117.945 79.9731L119.466 67.8439L122.502 68.2246Z" fill="#FFC7E4"/>
<path d="M64.6041 185.703L55.498 184.561L54.3571 193.657L63.4632 194.8L64.6041 185.703ZM36.9055 185.309L52.0823 187.212L51.702 190.244L36.5252 188.341L34.2434 206.535L58.5263 209.58L60.0475 197.451L63.0829 197.832L61.1813 212.993L30.8277 209.186L33.8702 184.928L36.9055 185.309ZM42.2156 192.135L39.1803 191.754L38.8 194.786L41.8353 195.167L41.455 198.199L44.4904 198.58L44.1101 201.612L50.1808 202.374L50.5611 199.341L53.5965 199.722L53.9768 196.69L50.9414 196.309L50.5611 199.341L44.4904 198.58L44.8707 195.548L41.8353 195.167L42.2156 192.135Z" fill="#FFC7E4"/>
<path d="M80.9187 190.829L108.237 194.255L106.716 206.384L103.68 206.004L104.821 196.907L80.5384 193.861L78.2565 212.055L90.3979 213.578L90.0176 216.61L74.8408 214.706L77.8833 190.448L80.9187 190.829ZM86.2288 197.655L83.1934 197.274L82.8131 200.306L85.8485 200.687L85.4681 203.719L88.5035 204.1L88.1232 207.132L94.1939 207.894L94.5742 204.861L97.6096 205.242L97.9899 202.21L101.025 202.591L101.406 199.558L98.3702 199.178L97.9899 202.21L94.9545 201.829L94.5742 204.861L88.5035 204.1L88.8838 201.068L85.8485 200.687L86.2288 197.655ZM100.265 208.655L103.3 209.036L102.539 215.1L108.61 215.862L108.23 218.894L105.194 218.513L104.814 221.546L101.779 221.165L101.398 224.197L98.3631 223.817L99.1237 217.752L93.053 216.991L93.4333 213.958L96.4687 214.339L96.849 211.307L99.8843 211.687L100.265 208.655Z" fill="#FFC7E4"/>
<path d="M152.629 196.743L143.523 195.601L142.382 204.698L151.489 205.84L152.629 196.743ZM124.931 196.349L140.108 198.252L139.727 201.285L124.551 199.381L122.269 217.575L146.552 220.62L148.073 208.491L151.108 208.872L149.207 224.033L118.853 220.227L121.896 195.968L124.931 196.349ZM130.241 203.175L127.206 202.794L126.825 205.826L129.861 206.207L129.48 209.239L132.516 209.62L132.135 212.652L138.206 213.414L138.586 210.382L141.622 210.762L142.002 207.73L138.967 207.349L138.586 210.382L132.516 209.62L132.896 206.588L129.861 206.207L130.241 203.175Z" fill="#FFC7E4"/>
<path d="M168.944 201.869L196.262 205.295L194.741 217.424L191.706 217.044L192.847 207.947L168.564 204.901L166.282 223.095L178.423 224.618L178.043 227.65L162.866 225.746L165.909 201.488L168.944 201.869ZM174.254 208.695L171.219 208.314L170.838 211.346L173.874 211.727L173.494 214.759L176.529 215.14L176.149 218.172L182.219 218.934L182.6 215.901L185.635 216.282L186.015 213.25L189.051 213.631L189.431 210.598L186.396 210.218L186.015 213.25L182.98 212.869L182.6 215.901L176.529 215.14L176.909 212.108L173.874 211.727L174.254 208.695ZM188.29 219.695L191.325 220.076L190.565 226.14L196.635 226.902L196.255 229.934L193.22 229.553L192.84 232.586L189.804 232.205L189.424 235.237L186.388 234.857L187.149 228.792L181.078 228.031L181.459 224.998L184.494 225.379L184.874 222.347L187.91 222.727L188.29 219.695Z" fill="#FFC7E4"/>
<path d="M212.957 207.389L240.275 210.815L238.373 225.977L235.338 225.596L236.859 213.467L212.576 210.421L210.295 228.615L222.436 230.138L222.056 233.17L206.879 231.267L209.921 207.008L212.957 207.389ZM218.267 214.215L215.231 213.834L214.851 216.867L217.887 217.247L217.506 220.28L220.542 220.66L220.161 223.693L226.232 224.454L226.612 221.422L229.648 221.802L230.028 218.77L233.063 219.151L233.444 216.118L230.408 215.738L230.028 218.77L226.993 218.389L226.612 221.422L220.542 220.66L220.922 217.628L217.887 217.247L218.267 214.215ZM225.471 230.518L228.507 230.899L228.126 233.931L225.091 233.551L225.471 230.518ZM231.162 234.312L230.781 237.344L227.746 236.964L228.126 233.931L231.162 234.312ZM234.577 231.661L231.542 231.28L231.162 234.312L234.197 234.693L234.577 231.661ZM234.577 231.661L234.958 228.628L237.993 229.009L237.613 232.041L234.577 231.661Z" fill="#FFC7E4"/>
<path d="M362.299 85.9798L389.617 89.4061L388.096 101.535L385.06 101.155L386.201 92.0577L361.918 89.0121L359.636 107.206L371.778 108.729L371.398 111.761L356.221 109.857L359.263 85.5991L362.299 85.9798ZM367.609 92.8058L364.573 92.4251L364.193 95.4574L367.228 95.8381L366.848 98.8704L369.883 99.2511L369.503 102.283L375.574 103.045L375.954 100.012L378.989 100.393L379.37 97.3608L382.405 97.7415L382.785 94.7092L379.75 94.3286L379.37 97.3608L376.334 96.9802L375.954 100.012L369.883 99.2511L370.264 96.2188L367.228 95.8381L367.609 92.8058ZM381.645 103.806L384.68 104.187L383.919 110.251L389.99 111.013L389.61 114.045L386.574 113.664L386.194 116.697L383.159 116.316L382.778 119.348L379.743 118.968L380.504 112.903L374.433 112.142L374.813 109.109L377.849 109.49L378.229 106.458L381.264 106.838L381.645 103.806Z" fill="#FFC7E4"/>
<path d="M406.312 91.5L433.63 94.9262L431.728 110.088L428.693 109.707L430.214 97.5778L405.931 94.5322L403.65 112.726L415.791 114.249L415.411 117.281L400.234 115.378L403.276 91.1193L406.312 91.5ZM411.622 98.3259L408.586 97.9452L408.206 100.978L411.242 101.358L410.861 104.391L413.897 104.771L413.516 107.803L419.587 108.565L419.967 105.533L423.003 105.913L423.383 102.881L426.418 103.262L426.799 100.229L423.763 99.8487L423.383 102.881L420.348 102.5L419.967 105.533L413.897 104.771L414.277 101.739L411.242 101.358L411.622 98.3259ZM418.826 114.629L421.862 115.01L421.481 118.042L418.446 117.662L418.826 114.629ZM424.517 118.423L424.136 121.455L421.101 121.075L421.481 118.042L424.517 118.423ZM427.932 115.772L424.897 115.391L424.517 118.423L427.552 118.804L427.932 115.772ZM427.932 115.772L428.313 112.739L431.348 113.12L430.968 116.152L427.932 115.772Z" fill="#FFC7E4"/>
<path d="M465.882 95.8912L459.811 95.1298L459.431 98.1621L456.395 97.7814L456.015 100.814L452.98 100.433L452.599 103.465L449.564 103.085L449.184 106.117L446.148 105.736L443.866 123.93L474.22 127.737L476.502 109.543L473.466 109.162L473.847 106.13L470.811 105.749L471.192 102.717L468.156 102.336L468.537 99.3042L465.501 98.9235L465.882 95.8912ZM465.501 98.9235L465.121 101.956L468.156 102.336L467.776 105.369L470.811 105.749L470.051 111.814L467.015 111.433L466.635 114.466L463.6 114.085L463.219 117.117L457.149 116.356L457.529 113.324L454.494 112.943L454.874 109.911L451.839 109.53L452.599 103.465L455.635 103.846L456.015 100.814L459.05 101.194L459.431 98.1621L465.501 98.9235ZM451.839 109.53L451.458 112.562L454.494 112.943L454.113 115.975L457.149 116.356L456.768 119.388L462.839 120.15L463.219 117.117L466.255 117.498L466.635 114.466L469.67 114.846L470.051 111.814L473.086 112.195L471.565 124.324L447.282 121.278L448.803 109.149L451.839 109.53Z" fill="#FFC7E4"/>
<path d="M522.035 102.934L512.929 101.792L511.788 110.889L520.894 112.031L522.035 102.934ZM494.337 102.54L509.513 104.444L509.133 107.476L493.956 105.572L491.675 123.766L515.957 126.812L517.479 114.682L520.514 115.063L518.612 130.225L488.259 126.418L491.301 102.159L494.337 102.54ZM499.647 109.366L496.611 108.985L496.231 112.018L499.266 112.398L498.886 115.431L501.922 115.811L501.541 118.844L507.612 119.605L507.992 116.573L511.028 116.953L511.408 113.921L508.373 113.54L507.992 116.573L501.922 115.811L502.302 112.779L499.266 112.398L499.647 109.366Z" fill="#FFC7E4"/>
<path d="M538.35 108.06L565.668 111.486L564.147 123.616L561.111 123.235L562.252 114.138L537.97 111.092L535.688 129.286L547.829 130.809L547.449 133.841L532.272 131.938L535.314 107.679L538.35 108.06ZM543.66 114.886L540.625 114.505L540.244 117.538L543.28 117.918L542.899 120.951L545.935 121.331L545.554 124.364L551.625 125.125L552.005 122.093L555.041 122.473L555.421 119.441L558.456 119.822L558.837 116.79L555.801 116.409L555.421 119.441L552.386 119.06L552.005 122.093L545.935 121.331L546.315 118.299L543.28 117.918L543.66 114.886ZM557.696 125.886L560.731 126.267L559.971 132.332L566.041 133.093L565.661 136.125L562.626 135.745L562.245 138.777L559.21 138.396L558.83 141.429L555.794 141.048L556.555 134.983L550.484 134.222L550.864 131.19L553.9 131.57L554.28 128.538L557.315 128.919L557.696 125.886Z" fill="#FFC7E4"/>
<path d="M582.363 113.58L609.681 117.006L607.779 132.168L604.744 131.787L606.265 119.658L581.982 116.612L579.7 134.806L591.842 136.329L591.461 139.361L576.285 137.458L579.327 113.199L582.363 113.58ZM587.673 120.406L584.637 120.025L584.257 123.058L587.292 123.438L586.912 126.471L589.947 126.851L589.567 129.884L595.638 130.645L596.018 127.613L599.053 127.993L599.434 124.961L602.469 125.342L602.849 122.31L599.814 121.929L599.434 124.961L596.398 124.58L596.018 127.613L589.947 126.851L590.328 123.819L587.292 123.438L587.673 120.406ZM594.877 136.71L597.913 137.09L597.532 140.123L594.497 139.742L594.877 136.71ZM600.568 140.503L600.187 143.536L597.152 143.155L597.532 140.123L600.568 140.503ZM603.983 137.852L600.948 137.471L600.568 140.503L603.603 140.884L603.983 137.852ZM603.983 137.852L604.364 134.819L607.399 135.2L607.019 138.232L603.983 137.852Z" fill="#FFC7E4"/>
<path d="M86.447 97.5825L80.3763 96.8211L79.996 99.8534L76.9606 99.4727L76.5803 102.505L73.545 102.124L73.1647 105.157L70.1293 104.776L69.749 107.808L66.7136 107.428L64.4318 125.621L94.7854 129.428L97.0672 111.234L94.0319 110.854L94.4122 107.821L91.3768 107.441L91.7571 104.408L88.7218 104.028L89.1021 100.995L86.0667 100.615L86.447 97.5825ZM86.0667 100.615L85.6864 103.647L88.7218 104.028L88.3415 107.06L91.3768 107.441L90.6162 113.505L87.5808 113.125L87.2005 116.157L84.1652 115.776L83.7849 118.809L77.7141 118.047L78.0945 115.015L75.0591 114.634L75.4394 111.602L72.404 111.221L73.1647 105.157L76.2 105.537L76.5803 102.505L79.6157 102.886L79.996 99.8534L86.0667 100.615ZM72.404 111.221L72.0237 114.253L75.0591 114.634L74.6788 117.666L77.7141 118.047L77.3338 121.079L83.4046 121.841L83.7849 118.809L86.8202 119.189L87.2005 116.157L90.2359 116.538L90.6162 113.505L93.6516 113.886L92.1303 126.015L67.8474 122.97L69.3687 110.84L72.404 111.221Z" fill="#FFC7E4"/>
<path d="M174.282 110.139L168.212 109.377L167.831 112.41L164.796 112.029L164.416 115.061L161.38 114.681L161 117.713L157.965 117.332L157.584 120.364L154.549 119.984L152.267 138.178L182.621 141.984L184.903 123.791L181.867 123.41L182.248 120.378L179.212 119.997L179.593 116.965L176.557 116.584L176.938 113.552L173.902 113.171L174.282 110.139ZM173.902 113.171L173.522 116.203L176.557 116.584L176.177 119.616L179.212 119.997L178.452 126.062L175.416 125.681L175.036 128.713L172.001 128.333L171.62 131.365L165.55 130.603L165.93 127.571L162.895 127.19L163.275 124.158L160.239 123.777L161 117.713L164.035 118.094L164.416 115.061L167.451 115.442L167.831 112.41L173.902 113.171ZM160.239 123.777L159.859 126.81L162.895 127.19L162.514 130.223L165.55 130.603L165.169 133.636L171.24 134.397L171.62 131.365L174.656 131.746L175.036 128.713L178.071 129.094L178.452 126.062L181.487 126.442L179.966 138.571L155.683 135.526L157.204 123.397L160.239 123.777Z" fill="#FFC7E4"/>
<path d="M142.601 104.625L133.495 103.483L132.354 112.58L141.46 113.722L142.601 104.625ZM114.903 104.231L130.079 106.135L129.699 109.167L114.522 107.264L112.24 125.458L136.523 128.503L138.045 116.374L141.08 116.755L139.178 131.916L108.825 128.109L111.867 103.851L114.903 104.231ZM120.213 111.057L117.177 110.677L116.797 113.709L119.832 114.09L119.452 117.122L122.487 117.503L122.107 120.535L128.178 121.296L128.558 118.264L131.594 118.645L131.974 115.612L128.938 115.232L128.558 118.264L122.487 117.503L122.868 114.47L119.832 114.09L120.213 111.057Z" fill="#FFC7E4"/>
<path d="M356.784 129.948L384.103 133.374L382.201 148.536L379.166 148.155L380.687 136.026L356.404 132.98L354.122 151.174L366.264 152.697L365.883 155.729L350.707 153.826L353.749 129.567L356.784 129.948ZM362.094 136.774L359.059 136.393L358.679 139.426L361.714 139.806L361.334 142.839L364.369 143.219L363.989 146.252L370.06 147.013L370.44 143.981L373.475 144.361L373.856 141.329L376.891 141.71L377.271 138.678L374.236 138.297L373.856 141.329L370.82 140.948L370.44 143.981L364.369 143.219L364.75 140.187L361.714 139.806L362.094 136.774ZM369.299 153.078L372.334 153.458L371.954 156.491L368.919 156.11L369.299 153.078ZM374.989 156.871L374.609 159.904L371.574 159.523L371.954 156.491L374.989 156.871ZM378.405 154.22L375.37 153.839L374.989 156.871L378.025 157.252L378.405 154.22ZM378.405 154.22L378.785 151.187L381.821 151.568L381.44 154.6L378.405 154.22Z" fill="#FFC7E4"/>
<path d="M416.354 134.339L410.284 133.578L409.903 136.61L406.868 136.23L406.488 139.262L403.452 138.881L403.072 141.913L400.037 141.533L399.656 144.565L396.621 144.184L394.339 162.378L424.693 166.185L426.974 147.991L423.939 147.611L424.319 144.578L421.284 144.198L421.664 141.165L418.629 140.785L419.009 137.752L415.974 137.372L416.354 134.339ZM415.974 137.372L415.594 140.404L418.629 140.785L418.249 143.817L421.284 144.198L420.523 150.262L417.488 149.881L417.108 152.914L414.072 152.533L413.692 155.565L407.621 154.804L408.002 151.772L404.966 151.391L405.347 148.359L402.311 147.978L403.072 141.913L406.107 142.294L406.488 139.262L409.523 139.643L409.903 136.61L415.974 137.372ZM402.311 147.978L401.931 151.01L404.966 151.391L404.586 154.423L407.621 154.804L407.241 157.836L413.312 158.598L413.692 155.565L416.727 155.946L417.108 152.914L420.143 153.294L420.523 150.262L423.559 150.643L422.038 162.772L397.755 159.726L399.276 147.597L402.311 147.978Z" fill="#FFC7E4"/>
<path d="M472.508 141.382L463.402 140.24L462.261 149.337L471.367 150.479L472.508 141.382ZM444.81 140.988L459.987 142.892L459.606 145.924L444.43 144.02L442.148 162.214L466.431 165.26L467.952 153.131L470.987 153.511L469.086 168.673L438.732 164.866L441.774 140.607L444.81 140.988ZM450.12 147.814L447.085 147.433L446.704 150.466L449.74 150.846L449.359 153.879L452.395 154.259L452.014 157.292L458.085 158.053L458.465 155.021L461.501 155.402L461.881 152.369L458.846 151.989L458.465 155.021L452.395 154.259L452.775 151.227L449.74 150.846L450.12 147.814Z" fill="#FFC7E4"/>
<path d="M488.822 146.508L516.141 149.934L514.619 162.064L511.584 161.683L512.725 152.586L488.442 149.541L486.16 167.734L498.302 169.257L497.921 172.289L482.745 170.386L485.787 146.128L488.822 146.508ZM494.133 153.334L491.097 152.954L490.717 155.986L493.752 156.367L493.372 159.399L496.407 159.78L496.027 162.812L502.098 163.573L502.478 160.541L505.513 160.922L505.894 157.889L508.929 158.27L509.309 155.238L506.274 154.857L505.894 157.889L502.858 157.509L502.478 160.541L496.407 159.78L496.788 156.747L493.752 156.367L494.133 153.334ZM508.168 164.335L511.204 164.715L510.443 170.78L516.514 171.541L516.134 174.574L513.098 174.193L512.718 177.225L509.683 176.844L509.302 179.877L506.267 179.496L507.028 173.431L500.957 172.67L501.337 169.638L504.372 170.018L504.753 166.986L507.788 167.367L508.168 164.335Z" fill="#FFC7E4"/>
<path d="M532.835 152.028L560.153 155.455L558.252 170.616L555.217 170.235L556.738 158.106L532.455 155.061L530.173 173.254L542.314 174.777L541.934 177.809L526.757 175.906L529.8 151.648L532.835 152.028ZM538.145 158.854L535.11 158.474L534.73 161.506L537.765 161.887L537.385 164.919L540.42 165.3L540.04 168.332L546.11 169.093L546.491 166.061L549.526 166.442L549.906 163.409L552.942 163.79L553.322 160.758L550.287 160.377L549.906 163.409L546.871 163.029L546.491 166.061L540.42 165.3L540.8 162.267L537.765 161.887L538.145 158.854ZM545.35 175.158L548.385 175.538L548.005 178.571L544.969 178.19L545.35 175.158ZM551.04 178.951L550.66 181.984L547.625 181.603L548.005 178.571L551.04 178.951ZM554.456 176.3L551.421 175.919L551.04 178.951L554.076 179.332L554.456 176.3ZM554.456 176.3L554.836 173.268L557.872 173.648L557.491 176.681L554.456 176.3Z" fill="#FFC7E4"/>
<path d="M592.405 156.42L586.334 155.658L585.954 158.69L582.919 158.31L582.538 161.342L579.503 160.961L579.123 163.994L576.087 163.613L575.707 166.645L572.672 166.265L570.39 184.458L600.743 188.265L603.025 170.071L599.99 169.691L600.37 166.658L597.335 166.278L597.715 163.246L594.68 162.865L595.06 159.833L592.025 159.452L592.405 156.42ZM592.025 159.452L591.644 162.484L594.68 162.865L594.299 165.897L597.335 166.278L596.574 172.342L593.539 171.962L593.159 174.994L590.123 174.613L589.743 177.646L583.672 176.884L584.052 173.852L581.017 173.471L581.397 170.439L578.362 170.058L579.123 163.994L582.158 164.374L582.538 161.342L585.574 161.723L585.954 158.69L592.025 159.452ZM578.362 170.058L577.982 173.091L581.017 173.471L580.637 176.503L583.672 176.884L583.292 179.916L589.363 180.678L589.743 177.646L592.778 178.026L593.159 174.994L596.194 175.375L596.574 172.342L599.61 172.723L598.088 184.852L573.805 181.807L575.327 169.678L578.362 170.058Z" fill="#FFC7E4"/>
<path d="M93.0743 143.074L83.9682 141.931L82.8273 151.028L91.9334 152.17L93.0743 143.074ZM65.3758 142.68L80.5526 144.583L80.1722 147.615L64.9954 145.712L62.7136 163.906L86.9965 166.951L88.5177 154.822L91.5531 155.203L89.6515 170.364L59.2979 166.557L62.3404 142.299L65.3758 142.68ZM70.6859 149.506L67.6505 149.125L67.2702 152.157L70.3055 152.538L69.9252 155.57L72.9606 155.951L72.5803 158.983L78.651 159.745L79.0313 156.712L82.0667 157.093L82.447 154.061L79.4116 153.68L79.0313 156.712L72.9606 155.951L73.3409 152.919L70.3055 152.538L70.6859 149.506Z" fill="#FFC7E4"/>
<path d="M180.909 155.63L171.803 154.488L170.662 163.585L179.768 164.727L180.909 155.63ZM153.211 155.236L168.388 157.139L168.007 160.172L152.83 158.268L150.549 176.462L174.831 179.507L176.353 167.378L179.388 167.759L177.486 182.92L147.133 179.113L150.175 154.855L153.211 155.236ZM158.521 162.062L155.485 161.681L155.105 164.713L158.141 165.094L157.76 168.126L160.796 168.507L160.415 171.539L166.486 172.301L166.866 169.268L169.902 169.649L170.282 166.617L167.247 166.236L166.866 169.268L160.796 168.507L161.176 165.475L158.141 165.094L158.521 162.062Z" fill="#FFC7E4"/>
<path d="M109.388 148.2L136.707 151.626L135.185 163.755L132.15 163.374L133.291 154.277L109.008 151.232L106.726 169.426L118.868 170.948L118.487 173.981L103.311 172.077L106.353 147.819L109.388 148.2ZM114.698 155.026L111.663 154.645L111.283 157.677L114.318 158.058L113.938 161.09L116.973 161.471L116.593 164.503L122.664 165.265L123.044 162.232L126.079 162.613L126.46 159.581L129.495 159.961L129.875 156.929L126.84 156.548L126.46 159.581L123.424 159.2L123.044 162.232L116.973 161.471L117.354 158.439L114.318 158.058L114.698 155.026ZM128.734 166.026L131.77 166.407L131.009 172.471L137.08 173.233L136.7 176.265L133.664 175.884L133.284 178.917L130.248 178.536L129.868 181.568L126.833 181.187L127.593 175.123L121.523 174.361L121.903 171.329L124.938 171.71L125.319 168.678L128.354 169.058L128.734 166.026Z" fill="#FFC7E4"/>
<path d="M33.2571 337.311L27.1864 336.549L26.8061 339.582L23.7707 339.201L23.3904 342.233L20.355 341.852L19.9747 344.885L16.9394 344.504L16.559 347.536L13.5237 347.156L11.2418 365.349L41.5954 369.156L43.8773 350.963L40.8419 350.582L41.2222 347.55L38.1869 347.169L38.5672 344.137L35.5318 343.756L35.9121 340.724L32.8768 340.343L33.2571 337.311ZM32.8768 340.343L32.4965 343.375L35.5318 343.756L35.1515 346.788L38.1869 347.169L37.4263 353.233L34.3909 352.853L34.0106 355.885L30.9752 355.504L30.5949 358.537L24.5242 357.775L24.9045 354.743L21.8692 354.362L22.2495 351.33L19.2141 350.949L19.9747 344.885L23.0101 345.265L23.3904 342.233L26.4257 342.614L26.8061 339.582L32.8768 340.343ZM19.2141 350.949L18.8338 353.982L21.8692 354.362L21.4888 357.395L24.5242 357.775L24.1439 360.808L30.2146 361.569L30.5949 358.537L33.6303 358.917L34.0106 355.885L37.046 356.266L37.4263 353.233L40.4616 353.614L38.9404 365.743L14.6575 362.698L16.1787 350.569L19.2141 350.949Z" fill="#FFC7E4"/>
<path d="M89.4112 344.353L80.3051 343.211L79.1642 352.308L88.2703 353.45L89.4112 344.353ZM61.7127 343.959L76.8895 345.863L76.5092 348.895L61.3324 346.992L59.0505 365.186L83.3334 368.231L84.8546 356.102L87.89 356.483L85.9884 371.644L55.6348 367.837L58.6773 343.579L61.7127 343.959ZM67.0228 350.785L63.9874 350.405L63.6071 353.437L66.6425 353.818L66.2622 356.85L69.2975 357.231L68.9172 360.263L74.9879 361.024L75.3682 357.992L78.4036 358.373L78.7839 355.341L75.7485 354.96L75.3682 357.992L69.2975 357.231L69.6778 354.198L66.6425 353.818L67.0228 350.785Z" fill="#FFC7E4"/>
<path d="M31.2009 230.793L58.5191 234.219L56.6176 249.381L53.5822 249L55.1035 236.871L30.8206 233.825L28.5387 252.019L40.6802 253.542L40.2999 256.574L25.1231 254.671L28.1655 230.412L31.2009 230.793ZM36.511 237.619L33.4756 237.238L33.0953 240.271L36.1307 240.651L35.7504 243.684L38.7857 244.064L38.4054 247.097L44.4761 247.858L44.8565 244.826L47.8918 245.206L48.2721 242.174L51.3075 242.555L51.6878 239.523L48.6524 239.142L48.2721 242.174L45.2368 241.794L44.8565 244.826L38.7857 244.064L39.166 241.032L36.1307 240.651L36.511 237.619ZM43.7155 253.923L46.7509 254.303L46.3706 257.336L43.3352 256.955L43.7155 253.923ZM49.4059 257.716L49.0256 260.749L45.9903 260.368L46.3706 257.336L49.4059 257.716ZM52.8216 255.065L49.7862 254.684L49.4059 257.716L52.4413 258.097L52.8216 255.065ZM52.8216 255.065L53.2019 252.032L56.2373 252.413L55.857 255.445L52.8216 255.065Z" fill="#FFC7E4"/>
<path d="M75.2141 236.313L102.532 239.739L101.011 251.869L97.9757 251.488L99.1166 242.391L74.8338 239.345L72.5519 257.539L84.6933 259.062L84.313 262.094L69.1362 260.191L72.1787 235.932L75.2141 236.313ZM80.5242 243.139L77.4888 242.758L77.1085 245.791L80.1439 246.171L79.7636 249.204L82.7989 249.584L82.4186 252.617L88.4893 253.378L88.8696 250.346L91.905 250.727L92.2853 247.694L95.3207 248.075L95.701 245.043L92.6656 244.662L92.2853 247.694L89.2499 247.314L88.8696 250.346L82.7989 249.584L83.1792 246.552L80.1439 246.171L80.5242 243.139ZM94.56 254.139L97.5954 254.52L96.8348 260.585L102.906 261.346L102.525 264.378L99.4898 263.998L99.1095 267.03L96.0742 266.649L95.6939 269.682L92.6585 269.301L93.4191 263.236L87.3484 262.475L87.7287 259.443L90.7641 259.823L91.1444 256.791L94.1797 257.172L94.56 254.139Z" fill="#FFC7E4"/>
<path d="M119.227 241.833L146.545 245.259L144.643 260.421L141.608 260.04L143.129 247.911L118.846 244.865L116.565 263.059L128.706 264.582L128.326 267.614L113.149 265.711L116.191 241.453L119.227 241.833ZM124.537 248.659L121.502 248.278L121.121 251.311L124.157 251.691L123.776 254.724L126.812 255.104L126.431 258.137L132.502 258.898L132.882 255.866L135.918 256.247L136.298 253.214L139.333 253.595L139.714 250.563L136.678 250.182L136.298 253.214L133.263 252.834L132.882 255.866L126.812 255.104L127.192 252.072L124.157 251.691L124.537 248.659ZM131.741 264.963L134.777 265.343L134.396 268.376L131.361 267.995L131.741 264.963ZM137.432 268.756L137.052 271.789L134.016 271.408L134.396 268.376L137.432 268.756ZM140.847 266.105L137.812 265.724L137.432 268.756L140.467 269.137L140.847 266.105ZM140.847 266.105L141.228 263.073L144.263 263.453L143.883 266.485L140.847 266.105Z" fill="#FFC7E4"/>
<path d="M178.796 246.224L172.725 245.463L172.345 248.495L169.31 248.115L168.929 251.147L165.894 250.766L165.514 253.799L162.478 253.418L162.098 256.45L159.063 256.069L156.781 274.263L187.134 278.07L189.416 259.876L186.381 259.496L186.761 256.463L183.726 256.083L184.106 253.05L181.071 252.67L181.451 249.637L178.416 249.257L178.796 246.224ZM178.416 249.257L178.036 252.289L181.071 252.67L180.691 255.702L183.726 256.083L182.965 262.147L179.93 261.767L179.55 264.799L176.514 264.418L176.134 267.451L170.063 266.689L170.444 263.657L167.408 263.276L167.789 260.244L164.753 259.863L165.514 253.799L168.549 254.179L168.929 251.147L171.965 251.528L172.345 248.495L178.416 249.257ZM164.753 259.863L164.373 262.895L167.408 263.276L167.028 266.308L170.063 266.689L169.683 269.721L175.754 270.483L176.134 267.451L179.169 267.831L179.55 264.799L182.585 265.18L182.965 262.147L186.001 262.528L184.479 274.657L160.197 271.612L161.718 259.482L164.753 259.863Z" fill="#FFC7E4"/>
<path d="M234.95 253.267L225.844 252.125L224.703 261.222L233.809 262.364L234.95 253.267ZM207.252 252.873L222.429 254.777L222.048 257.809L206.871 255.906L204.59 274.099L228.872 277.145L230.394 265.016L233.429 265.396L231.528 280.558L201.174 276.751L204.216 252.493L207.252 252.873ZM212.562 259.699L209.526 259.319L209.146 262.351L212.182 262.732L211.801 265.764L214.837 266.145L214.456 269.177L220.527 269.938L220.907 266.906L223.943 267.287L224.323 264.254L221.288 263.874L220.907 266.906L214.837 266.145L215.217 263.112L212.182 262.732L212.562 259.699Z" fill="#FFC7E4"/>
<path d="M251.265 258.393L278.583 261.82L276.682 276.981L273.646 276.6L275.167 264.471L250.885 261.426L248.603 279.619L260.744 281.142L260.364 284.174L245.187 282.271L248.229 258.013L251.265 258.393ZM256.575 265.219L253.54 264.839L253.159 267.871L256.195 268.252L255.814 271.284L258.85 271.665L258.469 274.697L264.54 275.458L264.92 272.426L267.956 272.807L268.336 269.774L271.371 270.155L271.752 267.123L268.716 266.742L268.336 269.774L265.301 269.394L264.92 272.426L258.85 271.665L259.23 268.632L256.195 268.252L256.575 265.219ZM263.779 281.523L266.815 281.904L266.435 284.936L263.399 284.555L263.779 281.523ZM269.47 285.317L269.09 288.349L266.054 287.968L266.435 284.936L269.47 285.317ZM272.886 282.665L269.85 282.284L269.47 285.317L272.505 285.697L272.886 282.665ZM272.886 282.665L273.266 279.633L276.301 280.013L275.921 283.046L272.886 282.665Z" fill="#FFC7E4"/>
<path d="M295.278 263.913L322.596 267.34L321.075 279.469L318.039 279.088L319.18 269.991L294.897 266.946L292.615 285.139L304.757 286.662L304.377 289.695L289.2 287.791L292.242 263.533L295.278 263.913ZM300.588 270.739L297.552 270.359L297.172 273.391L300.207 273.772L299.827 276.804L302.862 277.185L302.482 280.217L308.553 280.978L308.933 277.946L311.968 278.327L312.349 275.294L315.384 275.675L315.764 272.643L312.729 272.262L312.349 275.294L309.313 274.914L308.933 277.946L302.862 277.185L303.243 274.152L300.207 273.772L300.588 270.739ZM314.624 281.74L317.659 282.12L316.898 288.185L322.969 288.946L322.589 291.979L319.553 291.598L319.173 294.63L316.138 294.25L315.757 297.282L312.722 296.901L313.483 290.837L307.412 290.075L307.792 287.043L310.828 287.424L311.208 284.391L314.243 284.772L314.624 281.74Z" fill="#FFC7E4"/>
<path d="M111.423 328.634L138.741 332.06L137.22 344.19L134.185 343.809L135.326 334.712L111.043 331.667L108.761 349.86L120.902 351.383L120.522 354.415L105.345 352.512L108.388 328.254L111.423 328.634ZM116.733 335.46L113.698 335.08L113.317 338.112L116.353 338.492L115.973 341.525L119.008 341.905L118.628 344.938L124.698 345.699L125.079 342.667L128.114 343.048L128.494 340.015L131.53 340.396L131.91 337.364L128.875 336.983L128.494 340.015L125.459 339.635L125.079 342.667L119.008 341.905L119.388 338.873L116.353 338.492L116.733 335.46ZM130.769 346.461L133.804 346.841L133.044 352.906L139.114 353.667L138.734 356.699L135.699 356.319L135.319 359.351L132.283 358.97L131.903 362.003L128.867 361.622L129.628 355.557L123.557 354.796L123.938 351.764L126.973 352.144L127.353 349.112L130.389 349.493L130.769 346.461Z" fill="#FFC7E4"/>
<path d="M155.436 334.154L182.754 337.58L180.852 352.742L177.817 352.361L179.338 340.232L155.055 337.187L152.774 355.38L164.915 356.903L164.535 359.935L149.358 358.032L152.4 333.774L155.436 334.154ZM160.746 340.98L157.71 340.6L157.33 343.632L160.366 344.013L159.985 347.045L163.021 347.425L162.64 350.458L168.711 351.219L169.091 348.187L172.127 348.568L172.507 345.535L175.542 345.916L175.923 342.884L172.887 342.503L172.507 345.535L169.472 345.155L169.091 348.187L163.021 347.425L163.401 344.393L160.366 344.013L160.746 340.98ZM167.95 357.284L170.986 357.664L170.605 360.697L167.57 360.316L167.95 357.284ZM173.641 361.077L173.26 364.11L170.225 363.729L170.605 360.697L173.641 361.077ZM177.056 358.426L174.021 358.045L173.641 361.077L176.676 361.458L177.056 358.426ZM177.056 358.426L177.437 355.394L180.472 355.774L180.092 358.807L177.056 358.426Z" fill="#FFC7E4"/>
<path d="M215.006 338.545L208.935 337.784L208.555 340.816L205.519 340.436L205.139 343.468L202.104 343.087L201.723 346.119L198.688 345.739L198.308 348.771L195.272 348.39L192.99 366.584L223.344 370.391L225.626 352.197L222.59 351.817L222.971 348.784L219.935 348.404L220.316 345.371L217.28 344.991L217.661 341.958L214.625 341.578L215.006 338.545ZM214.625 341.578L214.245 344.61L217.28 344.991L216.9 348.023L219.935 348.404L219.175 354.468L216.139 354.088L215.759 357.12L212.724 356.739L212.343 359.771L206.273 359.01L206.653 355.978L203.618 355.597L203.998 352.565L200.963 352.184L201.723 346.119L204.759 346.5L205.139 343.468L208.174 343.849L208.555 340.816L214.625 341.578ZM200.963 352.184L200.582 355.216L203.618 355.597L203.237 358.629L206.273 359.01L205.892 362.042L211.963 362.804L212.343 359.771L215.379 360.152L215.759 357.12L218.794 357.501L219.175 354.468L222.21 354.849L220.689 366.978L196.406 363.933L197.927 351.803L200.963 352.184Z" fill="#FFC7E4"/>
<path d="M271.16 345.588L262.054 344.446L260.913 353.543L270.019 354.685L271.16 345.588ZM243.461 345.194L258.638 347.098L258.258 350.13L243.081 348.227L240.799 366.42L265.082 369.466L266.603 357.337L269.639 357.717L267.737 372.879L237.383 369.072L240.426 344.814L243.461 345.194ZM248.771 352.02L245.736 351.64L245.356 354.672L248.391 355.053L248.011 358.085L251.046 358.466L250.666 361.498L256.736 362.259L257.117 359.227L260.152 359.608L260.532 356.575L257.497 356.195L257.117 359.227L251.046 358.466L251.426 355.433L248.391 355.053L248.771 352.02Z" fill="#FFC7E4"/>
<path d="M287.474 350.714L314.792 354.141L313.271 366.27L310.235 365.889L311.376 356.792L287.094 353.747L284.812 371.94L296.953 373.463L296.573 376.496L281.396 374.592L284.438 350.334L287.474 350.714ZM292.784 357.54L289.749 357.16L289.368 360.192L292.404 360.573L292.023 363.605L295.059 363.986L294.678 367.018L300.749 367.779L301.129 364.747L304.165 365.128L304.545 362.095L307.58 362.476L307.961 359.444L304.925 359.063L304.545 362.095L301.51 361.715L301.129 364.747L295.059 363.986L295.439 360.953L292.404 360.573L292.784 357.54ZM306.82 368.541L309.855 368.921L309.095 374.986L315.165 375.747L314.785 378.78L311.75 378.399L311.369 381.431L308.334 381.051L307.954 384.083L304.918 383.702L305.679 377.638L299.608 376.876L299.988 373.844L303.024 374.225L303.404 371.192L306.44 371.573L306.82 368.541Z" fill="#FFC7E4"/>
<path d="M331.487 356.234L358.805 359.661L356.903 374.822L353.868 374.441L355.389 362.312L331.106 359.267L328.824 377.46L340.966 378.983L340.586 382.016L325.409 380.112L328.451 355.854L331.487 356.234ZM336.797 363.06L333.761 362.68L333.381 365.712L336.416 366.093L336.036 369.125L339.071 369.506L338.691 372.538L344.762 373.299L345.142 370.267L348.177 370.648L348.558 367.615L351.593 367.996L351.973 364.964L348.938 364.583L348.558 367.615L345.522 367.235L345.142 370.267L339.071 369.506L339.452 366.473L336.416 366.093L336.797 363.06ZM344.001 379.364L347.037 379.745L346.656 382.777L343.621 382.396L344.001 379.364ZM349.692 383.158L349.311 386.19L346.276 385.809L346.656 382.777L349.692 383.158ZM353.107 380.506L350.072 380.125L349.692 383.158L352.727 383.538L353.107 380.506ZM353.107 380.506L353.488 377.474L356.523 377.854L356.143 380.887L353.107 380.506Z" fill="#FFC7E4"/>
<path d="M391.056 360.626L384.986 359.864L384.605 362.897L381.57 362.516L381.19 365.548L378.154 365.168L377.774 368.2L374.739 367.819L374.358 370.851L371.323 370.471L369.041 388.664L399.395 392.471L401.677 374.278L398.641 373.897L399.022 370.865L395.986 370.484L396.367 367.452L393.331 367.071L393.711 364.039L390.676 363.658L391.056 360.626ZM390.676 363.658L390.296 366.69L393.331 367.071L392.951 370.103L395.986 370.484L395.226 376.549L392.19 376.168L391.81 379.2L388.775 378.819L388.394 381.852L382.324 381.09L382.704 378.058L379.668 377.677L380.049 374.645L377.013 374.264L377.774 368.2L380.809 368.581L381.19 365.548L384.225 365.929L384.605 362.897L390.676 363.658ZM377.013 374.264L376.633 377.297L379.668 377.677L379.288 380.71L382.324 381.09L381.943 384.123L388.014 384.884L388.394 381.852L391.43 382.232L391.81 379.2L394.845 379.581L395.226 376.549L398.261 376.929L396.74 389.058L372.457 386.013L373.978 373.884L377.013 374.264Z" fill="#FFC7E4"/>
<path d="M439.611 403.675L430.505 402.533L429.364 411.63L438.47 412.772L439.611 403.675ZM411.913 403.281L427.09 405.185L426.709 408.217L411.533 406.314L409.251 424.507L433.534 427.553L435.055 415.424L438.09 415.805L436.189 430.966L405.835 427.159L408.878 402.901L411.913 403.281ZM417.223 410.107L414.188 409.727L413.807 412.759L416.843 413.14L416.462 416.172L419.498 416.553L419.117 419.585L425.188 420.346L425.568 417.314L428.604 417.695L428.984 414.662L425.949 414.282L425.568 417.314L419.498 416.553L419.878 413.52L416.843 413.14L417.223 410.107Z" fill="#FFC7E4"/>
<path d="M39.8844 382.802L30.7783 381.659L29.6374 390.756L38.7434 391.898L39.8844 382.802ZM12.1858 382.408L27.3626 384.311L26.9823 387.343L11.8055 385.44L9.52365 403.634L33.8065 406.679L35.3278 394.55L38.3631 394.931L36.4616 410.092L6.10799 406.285L9.15045 382.027L12.1858 382.408ZM17.4959 389.234L14.4606 388.853L14.0802 391.885L17.1156 392.266L16.7353 395.298L19.7707 395.679L19.3904 398.711L25.4611 399.473L25.8414 396.44L28.8767 396.821L29.257 393.789L26.2217 393.408L25.8414 396.44L19.7707 395.679L20.151 392.647L17.1156 392.266L17.4959 389.234Z" fill="#FFC7E4"/>
<path d="M56.1984 387.928L83.5167 391.354L81.9954 403.483L78.9601 403.102L80.101 394.006L55.8181 390.96L53.5363 409.154L65.6777 410.676L65.2974 413.709L50.1206 411.805L53.1631 387.547L56.1984 387.928ZM61.5085 394.754L58.4732 394.373L58.0929 397.405L61.1282 397.786L60.7479 400.818L63.7833 401.199L63.403 404.231L69.4737 404.993L69.854 401.96L72.8894 402.341L73.2697 399.309L76.305 399.689L76.6853 396.657L73.65 396.276L73.2697 399.309L70.2343 398.928L69.854 401.96L63.7833 401.199L64.1636 398.167L61.1282 397.786L61.5085 394.754ZM75.5444 405.754L78.5798 406.135L77.8192 412.199L83.8899 412.961L83.5096 415.993L80.4742 415.612L80.0939 418.645L77.0585 418.264L76.6782 421.296L73.6429 420.915L74.4035 414.851L68.3328 414.089L68.7131 411.057L71.7484 411.438L72.1288 408.406L75.1641 408.786L75.5444 405.754Z" fill="#FFC7E4"/>
<path d="M106.099 371.086L133.417 374.512L131.516 389.674L128.48 389.293L130.001 377.164L105.719 374.119L103.437 392.312L115.578 393.835L115.198 396.867L100.021 394.964L103.063 370.706L106.099 371.086ZM111.409 377.912L108.374 377.532L107.993 380.564L111.029 380.945L110.648 383.977L113.684 384.358L113.303 387.39L119.374 388.151L119.754 385.119L122.79 385.5L123.17 382.467L126.205 382.848L126.586 379.816L123.55 379.435L123.17 382.467L120.135 382.087L119.754 385.119L113.684 384.358L114.064 381.325L111.029 380.945L111.409 377.912ZM118.613 394.216L121.649 394.596L121.269 397.629L118.233 397.248L118.613 394.216ZM124.304 398.009L123.924 401.042L120.888 400.661L121.269 397.629L124.304 398.009ZM127.72 395.358L124.684 394.977L124.304 398.009L127.339 398.39L127.72 395.358ZM127.72 395.358L128.1 392.326L131.135 392.706L130.755 395.739L127.72 395.358Z" fill="#FFC7E4"/>
<path d="M166.049 372.445L159.978 371.684L159.598 374.716L156.563 374.336L156.182 377.368L153.147 376.987L152.767 380.019L149.731 379.639L149.351 382.671L146.316 382.29L144.034 400.484L174.387 404.291L176.669 386.097L173.634 385.717L174.014 382.684L170.979 382.304L171.359 379.271L168.324 378.891L168.704 375.858L165.669 375.478L166.049 372.445ZM165.669 375.478L165.288 378.51L168.324 378.891L167.944 381.923L170.979 382.304L170.218 388.368L167.183 387.987L166.803 391.02L163.767 390.639L163.387 393.671L157.316 392.91L157.697 389.878L154.661 389.497L155.041 386.465L152.006 386.084L152.767 380.019L155.802 380.4L156.182 377.368L159.218 377.748L159.598 374.716L165.669 375.478ZM152.006 386.084L151.626 389.116L154.661 389.497L154.281 392.529L157.316 392.91L156.936 395.942L163.007 396.704L163.387 393.671L166.422 394.052L166.803 391.02L169.838 391.4L170.218 388.368L173.254 388.749L171.732 400.878L147.449 397.832L148.971 385.703L152.006 386.084Z" fill="#FFC7E4"/>
<path d="M222.203 379.488L213.097 378.346L211.956 387.443L221.062 388.585L222.203 379.488ZM194.505 379.094L209.681 380.998L209.301 384.03L194.124 382.126L191.843 400.32L216.125 403.366L217.647 391.237L220.682 391.617L218.78 406.779L188.427 402.972L191.469 378.713L194.505 379.094ZM199.815 385.92L196.779 385.539L196.399 388.572L199.434 388.952L199.054 391.985L202.09 392.365L201.709 395.398L207.78 396.159L208.16 393.127L211.196 393.507L211.576 390.475L208.541 390.094L208.16 393.127L202.09 392.365L202.47 389.333L199.434 388.952L199.815 385.92Z" fill="#FFC7E4"/>
<path d="M238.517 384.614L265.836 388.04L264.314 400.17L261.279 399.789L262.42 390.692L238.137 387.647L235.855 405.84L247.997 407.363L247.616 410.395L232.439 408.492L235.482 384.234L238.517 384.614ZM243.827 391.44L240.792 391.059L240.412 394.092L243.447 394.472L243.067 397.505L246.102 397.885L245.722 400.918L251.793 401.679L252.173 398.647L255.208 399.028L255.589 395.995L258.624 396.376L259.004 393.344L255.969 392.963L255.589 395.995L252.553 395.615L252.173 398.647L246.102 397.885L246.482 394.853L243.447 394.472L243.827 391.44ZM257.863 402.441L260.899 402.821L260.138 408.886L266.209 409.647L265.828 412.679L262.793 412.299L262.413 415.331L259.377 414.95L258.997 417.983L255.962 417.602L256.722 411.537L250.652 410.776L251.032 407.744L254.067 408.124L254.448 405.092L257.483 405.473L257.863 402.441Z" fill="#FFC7E4"/>
<path d="M282.53 390.134L309.848 393.56L307.947 408.722L304.911 408.341L306.433 396.212L282.15 393.167L279.868 411.36L292.009 412.883L291.629 415.915L276.452 414.012L279.495 389.754L282.53 390.134ZM287.84 396.96L284.805 396.58L284.424 399.612L287.46 399.992L287.079 403.025L290.115 403.405L289.735 406.438L295.805 407.199L296.186 404.167L299.221 404.548L299.601 401.515L302.637 401.896L303.017 398.864L299.982 398.483L299.601 401.515L296.566 401.135L296.186 404.167L290.115 403.405L290.495 400.373L287.46 399.992L287.84 396.96ZM295.045 413.264L298.08 413.644L297.7 416.677L294.664 416.296L295.045 413.264ZM300.735 417.057L300.355 420.09L297.319 419.709L297.7 416.677L300.735 417.057ZM304.151 414.406L301.115 414.025L300.735 417.057L303.77 417.438L304.151 414.406ZM304.151 414.406L304.531 411.374L307.566 411.754L307.186 414.787L304.151 414.406Z" fill="#FFC7E4"/>
<path d="M72.925 279.146L100.243 282.572L98.3417 297.734L95.3063 297.353L96.8276 285.224L72.5447 282.178L70.2628 300.372L82.4043 301.895L82.024 304.927L66.8472 303.024L69.8896 278.765L72.925 279.146ZM78.2351 285.972L75.1998 285.591L74.8194 288.624L77.8548 289.004L77.4745 292.037L80.5099 292.417L80.1295 295.449L86.2003 296.211L86.5806 293.179L89.6159 293.559L89.9962 290.527L93.0316 290.908L93.4119 287.875L90.3766 287.495L89.9962 290.527L86.9609 290.146L86.5806 293.179L80.5099 292.417L80.8902 289.385L77.8548 289.004L78.2351 285.972ZM85.4396 302.275L88.475 302.656L88.0947 305.688L85.0593 305.308L85.4396 302.275ZM91.1301 306.069L90.7498 309.101L87.7144 308.721L88.0947 305.688L91.1301 306.069ZM94.5457 303.418L91.5104 303.037L91.1301 306.069L94.1654 306.45L94.5457 303.418ZM94.5457 303.418L94.926 300.385L97.9614 300.766L97.5811 303.798L94.5457 303.418Z" fill="#FFC7E4"/>
<path d="M132.495 283.537L126.424 282.776L126.044 285.808L123.008 285.427L122.628 288.46L119.593 288.079L119.213 291.111L116.177 290.73L115.797 293.763L112.761 293.382L110.48 311.576L140.833 315.383L143.115 297.189L140.08 296.808L140.46 293.776L137.425 293.395L137.805 290.363L134.77 289.982L135.15 286.95L132.115 286.569L132.495 283.537ZM132.115 286.569L131.734 289.602L134.77 289.982L134.389 293.015L137.425 293.395L136.664 299.46L133.629 299.079L133.248 302.112L130.213 301.731L129.833 304.763L123.762 304.002L124.142 300.969L121.107 300.589L121.487 297.556L118.452 297.176L119.213 291.111L122.248 291.492L122.628 288.46L125.664 288.84L126.044 285.808L132.115 286.569ZM118.452 297.176L118.072 300.208L121.107 300.589L120.727 303.621L123.762 304.002L123.382 307.034L129.452 307.795L129.833 304.763L132.868 305.144L133.248 302.112L136.284 302.492L136.664 299.46L139.699 299.841L138.178 311.97L113.895 308.924L115.417 296.795L118.452 297.176Z" fill="#FFC7E4"/>
<path d="M188.649 290.58L179.543 289.438L178.402 298.535L187.508 299.677L188.649 290.58ZM160.95 290.186L176.127 292.09L175.747 295.122L160.57 293.218L158.288 311.412L182.571 314.458L184.092 302.328L187.128 302.709L185.226 317.871L154.873 314.064L157.915 289.805L160.95 290.186ZM166.261 297.012L163.225 296.631L162.845 299.664L165.88 300.044L165.5 303.077L168.535 303.457L168.155 306.49L174.226 307.251L174.606 304.219L177.641 304.599L178.022 301.567L174.986 301.186L174.606 304.219L168.535 303.457L168.916 300.425L165.88 300.044L166.261 297.012Z" fill="#FFC7E4"/>
<path d="M204.963 295.706L232.281 299.132L230.76 311.262L227.725 310.881L228.866 301.784L204.583 298.738L202.301 316.932L214.442 318.455L214.062 321.487L198.885 319.584L201.928 295.325L204.963 295.706ZM210.273 302.532L207.238 302.151L206.858 305.184L209.893 305.564L209.513 308.597L212.548 308.977L212.168 312.01L218.238 312.771L218.619 309.739L221.654 310.119L222.034 307.087L225.07 307.468L225.45 304.436L222.415 304.055L222.034 307.087L218.999 306.706L218.619 309.739L212.548 308.977L212.928 305.945L209.893 305.564L210.273 302.532ZM224.309 313.532L227.344 313.913L226.584 319.978L232.655 320.739L232.274 323.771L229.239 323.391L228.859 326.423L225.823 326.042L225.443 329.075L222.408 328.694L223.168 322.629L217.097 321.868L217.478 318.836L220.513 319.216L220.893 316.184L223.929 316.565L224.309 313.532Z" fill="#FFC7E4"/>
<path d="M264.533 300.097L258.462 299.336L258.082 302.368L255.047 301.987L254.666 305.02L251.631 304.639L251.251 307.671L248.215 307.291L247.835 310.323L244.8 309.942L242.518 328.136L272.871 331.943L275.153 313.749L272.118 313.369L272.498 310.336L269.463 309.956L269.843 306.923L266.808 306.543L267.188 303.51L264.153 303.13L264.533 300.097ZM264.153 303.13L263.772 306.162L266.808 306.543L266.427 309.575L269.463 309.956L268.702 316.02L265.667 315.639L265.286 318.672L262.251 318.291L261.871 321.323L255.8 320.562L256.18 317.53L253.145 317.149L253.525 314.117L250.49 313.736L251.251 307.671L254.286 308.052L254.666 305.02L257.702 305.4L258.082 302.368L264.153 303.13ZM250.49 313.736L250.11 316.768L253.145 317.149L252.765 320.181L255.8 320.562L255.42 323.594L261.49 324.356L261.871 321.323L264.906 321.704L265.286 318.672L268.322 319.052L268.702 316.02L271.737 316.401L270.216 328.53L245.933 325.484L247.455 313.355L250.49 313.736Z" fill="#FFC7E4"/>
<path d="M292.988 306.746L320.307 310.172L318.405 325.334L315.37 324.953L316.891 312.824L292.608 309.778L290.326 327.972L302.468 329.495L302.087 332.527L286.911 330.624L289.953 306.365L292.988 306.746ZM298.299 313.572L295.263 313.191L294.883 316.224L297.918 316.604L297.538 319.637L300.573 320.017L300.193 323.05L306.264 323.811L306.644 320.779L309.679 321.159L310.06 318.127L313.095 318.508L313.475 315.476L310.44 315.095L310.06 318.127L307.024 317.747L306.644 320.779L300.573 320.017L300.954 316.985L297.918 316.604L298.299 313.572ZM305.503 329.876L308.538 330.256L308.158 333.289L305.123 332.908L305.503 329.876ZM311.194 333.669L310.813 336.702L307.778 336.321L308.158 333.289L311.194 333.669ZM314.609 331.018L311.574 330.637L311.194 333.669L314.229 334.05L314.609 331.018ZM314.609 331.018L314.99 327.985L318.025 328.366L317.645 331.398L314.609 331.018Z" fill="#FFC7E4"/>
<path d="M342.1 394.525L336.029 393.764L335.649 396.796L332.613 396.416L332.233 399.448L329.198 399.067L328.817 402.1L325.782 401.719L325.402 404.751L322.366 404.37L320.085 422.564L350.438 426.371L352.72 408.177L349.685 407.797L350.065 404.764L347.03 404.384L347.41 401.351L344.375 400.971L344.755 397.938L341.72 397.558L342.1 394.525ZM341.72 397.558L341.339 400.59L344.375 400.971L343.994 404.003L347.03 404.384L346.269 410.448L343.234 410.068L342.853 413.1L339.818 412.719L339.438 415.752L333.367 414.99L333.747 411.958L330.712 411.577L331.092 408.545L328.057 408.164L328.817 402.1L331.853 402.48L332.233 399.448L335.269 399.829L335.649 396.796L341.72 397.558ZM328.057 408.164L327.677 411.196L330.712 411.577L330.332 414.609L333.367 414.99L332.987 418.022L339.057 418.784L339.438 415.752L342.473 416.132L342.853 413.1L345.889 413.481L346.269 410.448L349.304 410.829L347.783 422.958L323.5 419.913L325.022 407.783L328.057 408.164Z" fill="#FFC7E4"/>
<path d="M398.254 401.568L389.148 400.426L388.007 409.523L397.113 410.665L398.254 401.568ZM370.555 401.174L385.732 403.078L385.352 406.11L370.175 404.207L367.893 422.4L392.176 425.446L393.697 413.317L396.733 413.697L394.831 428.859L364.478 425.052L367.52 400.794L370.555 401.174ZM375.866 408L372.83 407.62L372.45 410.652L375.485 411.033L375.105 414.065L378.14 414.446L377.76 417.478L383.831 418.239L384.211 415.207L387.246 415.588L387.627 412.555L384.591 412.175L384.211 415.207L378.14 414.446L378.521 411.413L375.485 411.033L375.866 408Z" fill="#FFC7E4"/>
<path d="M206.925 71.1129L343.516 88.2441L331.403 184.823L317.744 183.109L328.126 100.328L218.854 86.623L208.471 169.404L263.108 176.257L261.377 190.054L275.036 191.767L273.306 205.564L286.965 207.277L290.426 179.683L331.403 184.823L329.673 198.62L302.355 195.193L298.894 222.787L271.575 219.361L273.306 205.564L259.647 203.851L261.377 190.054L193.082 181.488L206.925 71.1129Z" fill="#FF69B8"/>
<path d="M541.664 194.715L372.746 173.53L369.68 197.978L345.549 194.951L336.35 268.295L432.874 280.401L429.808 304.849L357.415 295.769L354.348 320.217L402.611 326.27L399.544 350.718L423.676 353.744L420.609 378.192L565.396 396.351L583.793 249.664L559.662 246.638L562.729 222.19L538.597 219.163L541.664 194.715ZM508.334 265.032L484.203 262.006L487.269 237.558L511.4 240.585L508.334 265.032Z" fill="#FF69B8"/>
</mask>
<g mask="url(#mask0_453_16302)">
<path d="M283.686 454.665C424.502 472.326 552.959 372.604 570.602 231.931C588.245 91.2568 488.394 -37.0989 347.578 -54.76C206.761 -72.4211 78.3048 27.3004 60.6615 167.974C43.0183 308.648 142.87 437.004 283.686 454.665Z" fill="#FFC7E4" fill-opacity="0.75"/>
<path d="M561.176 230.748C544.187 366.207 420.487 462.248 284.868 445.239C149.249 428.229 53.0985 304.615 70.0877 169.156C87.0769 33.6975 210.776 -62.3432 346.395 -45.3339C482.015 -28.3246 578.165 95.2895 561.176 230.748Z" stroke="#FF69B8" stroke-opacity="0.75" stroke-width="19"/>
</g>
</g>
<defs>
<clipPath id="clip0_453_16302">
<rect width="569" height="518" fill="white" transform="translate(65.4429 -91.3911) rotate(7.14868)"/>
</clipPath>
</defs>
</svg>
