<svg width="363" height="247" viewBox="0 0 363 247" fill="none" xmlns="http://www.w3.org/2000/svg">
<mask id="mask0_472_3574" style="mask-type:alpha" maskUnits="userSpaceOnUse" x="2" y="0" width="359" height="328">
<path d="M48.2276 1.39436L44.7082 0.961147L44.4919 2.71845L42.7322 2.50184L42.5159 4.25914L40.7562 4.04254L40.5399 5.79984L38.7802 5.58323L38.5639 7.34053L36.8042 7.12393L35.5063 17.6677L53.1032 19.8338L54.4011 9.28998L52.6414 9.07338L52.8577 7.31607L51.098 7.09947L51.3143 5.34217L49.5546 5.12556L49.771 3.36826L48.0113 3.15166L48.2276 1.39436ZM48.0113 3.15166L47.795 4.90896L49.5546 5.12556L49.3383 6.88286L51.098 7.09947L50.6654 10.6141L48.9057 10.3975L48.6894 12.1548L46.9297 11.9382L46.7134 13.6955L43.194 13.2623L43.4103 11.505L41.6506 11.2883L41.8669 9.53105L40.1073 9.31444L40.5399 5.79984L42.2996 6.01644L42.5159 4.25914L44.2756 4.47575L44.4919 2.71845L48.0113 3.15166ZM40.1073 9.31444L39.8909 11.0717L41.6506 11.2883L41.4343 13.0456L43.194 13.2623L42.9777 15.0196L46.4971 15.4528L46.7134 13.6955L48.4731 13.9121L48.6894 12.1548L50.4491 12.3714L50.6654 10.6141L52.4251 10.8307L51.5598 17.8599L37.4823 16.127L38.3476 9.09784L40.1073 9.31444Z" fill="#FFC7E4"/>
<path d="M80.7815 5.40153L75.5024 4.75171L74.8535 10.0236L80.1325 10.6734L80.7815 5.40153ZM64.7279 5.20938L73.5264 6.29241L73.3101 8.04971L64.5116 6.96668L63.2138 17.5105L77.2913 19.2433L78.1565 12.2141L79.9162 12.4307L78.8347 21.2172L61.2378 19.0512L62.9683 4.99277L64.7279 5.20938ZM67.8147 9.15719L66.055 8.94059L65.8387 10.6979L67.5984 10.9145L67.3821 12.6718L69.1418 12.8884L68.9255 14.6457L72.4448 15.0789L72.6612 13.3216L74.4208 13.5382L74.6372 11.7809L72.8775 11.5643L72.6612 13.3216L69.1418 12.8884L69.3581 11.1311L67.5984 10.9145L67.8147 9.15719Z" fill="#FFC7E4"/>
<path d="M90.2431 8.35003L106.08 10.2995L105.215 17.3287L103.455 17.1121L104.104 11.8402L90.0268 10.1073L88.7289 20.6511L95.7677 21.5176L95.5514 23.2749L86.7529 22.1918L88.4834 8.13342L90.2431 8.35003ZM93.3298 12.2978L91.5702 12.0812L91.3538 13.8385L93.1135 14.0551L92.8972 15.8124L94.6569 16.029L94.4406 17.7863L97.96 18.2196L98.1763 16.4623L99.936 16.6789L100.152 14.9216L101.912 15.1382L102.128 13.3809L100.369 13.1643L100.152 14.9216L98.3926 14.705L98.1763 16.4623L94.6569 16.029L94.8732 14.2717L93.1135 14.0551L93.3298 12.2978ZM101.479 18.6528L103.239 18.8694L102.806 22.384L106.326 22.8172L106.11 24.5745L104.35 24.3579L104.134 26.1152L102.374 25.8986L102.157 27.6559L100.398 27.4393L100.83 23.9247L97.3111 23.4915L97.5274 21.7342L99.2871 21.9508L99.5034 20.1935L101.263 20.4101L101.479 18.6528Z" fill="#FFC7E4"/>
<path d="M115.759 11.4909L131.596 13.4403L130.515 22.2268L128.755 22.0102L129.62 14.981L115.543 13.2482L114.245 23.792L121.284 24.6584L121.067 26.4157L112.269 25.3327L114 11.2743L115.759 11.4909ZM118.846 15.4387L117.086 15.2221L116.87 16.9794L118.63 17.196L118.413 18.9533L120.173 19.1699L119.957 20.9272L123.476 21.3604L123.692 19.6031L125.452 19.8197L125.668 18.0624L127.428 18.279L127.644 16.5217L125.885 16.3051L125.668 18.0624L123.909 17.8458L123.692 19.6031L120.173 19.1699L120.389 17.4126L118.63 17.196L118.846 15.4387ZM123.043 24.875L124.803 25.0916L124.587 26.8489L122.827 26.6323L123.043 24.875ZM126.347 27.0655L126.13 28.8228L124.371 28.6062L124.587 26.8489L126.347 27.0655ZM128.323 25.5248L126.563 25.3082L126.347 27.0655L128.106 27.2821L128.323 25.5248ZM128.323 25.5248L128.539 23.7675L130.299 23.9841L130.082 25.7414L128.323 25.5248Z" fill="#FFC7E4"/>
<path d="M150.289 13.9573L146.77 13.5241L146.553 15.2814L144.794 15.0648L144.577 16.8221L142.818 16.6055L142.601 18.3628L140.842 18.1462L140.625 19.9035L138.866 19.6869L137.568 30.2307L155.165 32.3968L156.463 21.853L154.703 21.6364L154.919 19.8791L153.16 19.6625L153.376 17.9052L151.616 17.6886L151.832 15.9313L150.073 15.7146L150.289 13.9573ZM150.073 15.7146L149.856 17.4719L151.616 17.6886L151.4 19.4459L153.16 19.6625L152.727 23.1771L150.967 22.9605L150.751 24.7178L148.991 24.5011L148.775 26.2585L145.256 25.8252L145.472 24.0679L143.712 23.8513L143.928 22.094L142.169 21.8774L142.601 18.3628L144.361 18.5794L144.577 16.8221L146.337 17.0387L146.553 15.2814L150.073 15.7146ZM142.169 21.8774L141.952 23.6347L143.712 23.8513L143.496 25.6086L145.256 25.8252L145.039 27.5825L148.559 28.0158L148.775 26.2585L150.535 26.4751L150.751 24.7178L152.511 24.9344L152.727 23.1771L154.487 23.3937L153.621 30.4229L139.544 28.69L140.409 21.6608L142.169 21.8774Z" fill="#FFC7E4"/>
<path d="M182.844 17.9648L177.565 17.3149L176.916 22.5868L182.196 23.2367L182.844 17.9648ZM166.791 17.7726L175.589 18.8556L175.373 20.6129L166.575 19.5299L165.277 30.0737L179.354 31.8066L180.22 24.7774L181.979 24.994L180.898 33.7805L163.301 31.6144L165.031 17.556L166.791 17.7726ZM169.878 21.7204L168.118 21.5038L167.902 23.2611L169.661 23.4777L169.445 25.235L171.205 25.4516L170.988 27.2089L174.508 27.6421L174.724 25.8848L176.484 26.1014L176.7 24.3441L174.94 24.1275L174.724 25.8848L171.205 25.4516L171.421 23.6943L169.661 23.4777L169.878 21.7204Z" fill="#FFC7E4"/>
<path d="M192.306 20.9133L208.143 22.8627L207.278 29.8919L205.518 29.6753L206.167 24.4034L192.09 22.6706L190.792 33.2144L197.831 34.0808L197.614 35.8381L188.816 34.7551L190.546 20.6967L192.306 20.9133ZM195.393 24.8611L193.633 24.6445L193.417 26.4018L195.177 26.6184L194.96 28.3757L196.72 28.5923L196.504 30.3496L200.023 30.7828L200.239 29.0255L201.999 29.2421L202.215 27.4848L203.975 27.7014L204.191 25.9441L202.432 25.7275L202.215 27.4848L200.456 27.2682L200.239 29.0255L196.72 28.5923L196.936 26.835L195.177 26.6184L195.393 24.8611ZM203.542 31.216L205.302 31.4326L204.869 34.9472L208.389 35.3804L208.172 37.1377L206.413 36.9211L206.196 38.6784L204.437 38.4618L204.22 40.2191L202.461 40.0025L202.893 36.4879L199.374 36.0547L199.59 34.2974L201.35 34.514L201.566 32.7567L203.326 32.9733L203.542 31.216Z" fill="#FFC7E4"/>
<path d="M217.823 24.0541L233.66 26.0036L232.578 34.7901L230.819 34.5735L231.684 27.5443L217.606 25.8114L216.309 36.3552L223.347 37.2217L223.131 38.979L214.333 37.8959L216.063 23.8375L217.823 24.0541ZM220.909 28.0019L219.15 27.7853L218.933 29.5426L220.693 29.7592L220.477 31.5165L222.237 31.7331L222.02 33.4904L225.54 33.9237L225.756 32.1664L227.516 32.383L227.732 30.6257L229.492 30.8423L229.708 29.085L227.948 28.8684L227.732 30.6257L225.972 30.4091L225.756 32.1664L222.237 31.7331L222.453 29.9758L220.693 29.7592L220.909 28.0019ZM225.107 37.4383L226.867 37.6549L226.65 39.4122L224.891 39.1956L225.107 37.4383ZM228.41 39.6288L228.194 41.3861L226.434 41.1695L226.65 39.4122L228.41 39.6288ZM230.386 38.0881L228.626 37.8715L228.41 39.6288L230.17 39.8454L230.386 38.0881ZM230.386 38.0881L230.602 36.3308L232.362 36.5474L232.146 38.3047L230.386 38.0881Z" fill="#FFC7E4"/>
<path d="M252.353 26.5207L248.833 26.0875L248.617 27.8448L246.857 27.6282L246.641 29.3855L244.881 29.1689L244.665 30.9262L242.905 30.7096L242.689 32.4669L240.929 32.2503L239.631 42.7941L257.228 44.9601L258.526 34.4163L256.766 34.1997L256.983 32.4424L255.223 32.2258L255.439 30.4685L253.68 30.2519L253.896 28.4946L252.136 28.278L252.353 26.5207ZM252.136 28.278L251.92 30.0353L253.68 30.2519L253.463 32.0092L255.223 32.2258L254.79 35.7404L253.031 35.5238L252.814 37.2811L251.055 37.0645L250.838 38.8218L247.319 38.3886L247.535 36.6313L245.776 36.4147L245.992 34.6574L244.232 34.4408L244.665 30.9262L246.425 31.1428L246.641 29.3855L248.401 29.6021L248.617 27.8448L252.136 28.278ZM244.232 34.4408L244.016 36.1981L245.776 36.4147L245.559 38.172L247.319 38.3886L247.103 40.1459L250.622 40.5791L250.838 38.8218L252.598 39.0384L252.814 37.2811L254.574 37.4977L254.79 35.7404L256.55 35.957L255.685 42.9862L241.607 41.2534L242.473 34.2242L244.232 34.4408Z" fill="#FFC7E4"/>
<path d="M284.906 30.5277L279.627 29.8779L278.978 35.1498L284.257 35.7996L284.906 30.5277ZM268.852 30.3356L277.651 31.4186L277.435 33.1759L268.636 32.0929L267.338 42.6367L281.416 44.3695L282.281 37.3403L284.041 37.5569L282.959 46.3435L265.362 44.1774L267.093 30.119L268.852 30.3356ZM271.939 34.2834L270.18 34.0668L269.963 35.8241L271.723 36.0407L271.507 37.798L273.266 38.0146L273.05 39.7719L276.569 40.2051L276.786 38.4478L278.545 38.6644L278.762 36.9071L277.002 36.6905L276.786 38.4478L273.266 38.0146L273.483 36.2573L271.723 36.0407L271.939 34.2834Z" fill="#FFC7E4"/>
<path d="M294.368 33.4764L310.205 35.4258L309.34 42.455L307.58 42.2384L308.229 36.9665L294.152 35.2337L292.854 45.7775L299.893 46.6439L299.676 48.4012L290.878 47.3182L292.608 33.2598L294.368 33.4764ZM297.455 37.4242L295.695 37.2076L295.479 38.9649L297.239 39.1815L297.022 40.9388L298.782 41.1554L298.566 42.9127L302.085 43.3459L302.301 41.5886L304.061 41.8052L304.277 40.0479L306.037 40.2645L306.253 38.5072L304.494 38.2906L304.277 40.0479L302.518 39.8313L302.301 41.5886L298.782 41.1554L298.998 39.3981L297.239 39.1815L297.455 37.4242ZM305.604 43.7791L307.364 43.9957L306.931 47.5103L310.451 47.9435L310.235 49.7008L308.475 49.4842L308.259 51.2415L306.499 51.0249L306.282 52.7822L304.523 52.5656L304.955 49.051L301.436 48.6178L301.652 46.8605L303.412 47.0771L303.628 45.3198L305.388 45.5364L305.604 43.7791Z" fill="#FFC7E4"/>
<path d="M319.884 36.6172L335.721 38.5667L334.64 47.3532L332.88 47.1366L333.745 40.1074L319.668 38.3745L318.37 48.9183L325.409 49.7848L325.192 51.5421L316.394 50.459L318.125 36.4006L319.884 36.6172ZM322.971 40.5651L321.211 40.3484L320.995 42.1057L322.755 42.3224L322.538 44.0797L324.298 44.2963L324.082 46.0536L327.601 46.4868L327.817 44.7295L329.577 44.9461L329.793 43.1888L331.553 43.4054L331.769 41.6481L330.01 41.4315L329.793 43.1888L328.034 42.9722L327.817 44.7295L324.298 44.2963L324.514 42.539L322.755 42.3224L322.971 40.5651ZM327.168 50.0014L328.928 50.218L328.712 51.9753L326.952 51.7587L327.168 50.0014ZM330.472 52.1919L330.255 53.9492L328.496 53.7326L328.712 51.9753L330.472 52.1919ZM332.448 50.6512L330.688 50.4346L330.472 52.1919L332.231 52.4085L332.448 50.6512ZM332.448 50.6512L332.664 48.8939L334.424 49.1105L334.207 50.8678L332.448 50.6512Z" fill="#FFC7E4"/>
<path d="M354.414 39.0837L350.895 38.6505L350.678 40.4078L348.919 40.1912L348.702 41.9485L346.943 41.7319L346.726 43.4892L344.967 43.2726L344.75 45.0299L342.991 44.8133L341.693 55.3571L359.29 57.5231L360.588 46.9793L358.828 46.7627L359.044 45.0054L357.285 44.7888L357.501 43.0315L355.741 42.8149L355.957 41.0576L354.198 40.841L354.414 39.0837ZM354.198 40.841L353.981 42.5983L355.741 42.8149L355.525 44.5722L357.285 44.7888L356.852 48.3034L355.092 48.0868L354.876 49.8441L353.116 49.6275L352.9 51.3848L349.381 50.9516L349.597 49.1943L347.837 48.9777L348.053 47.2204L346.294 47.0038L346.726 43.4892L348.486 43.7058L348.702 41.9485L350.462 42.1651L350.678 40.4078L354.198 40.841ZM346.294 47.0038L346.077 48.7611L347.837 48.9777L347.621 50.735L349.381 50.9516L349.164 52.7089L352.684 53.1421L352.9 51.3848L354.66 51.6014L354.876 49.8441L356.636 50.0607L356.852 48.3034L358.612 48.52L357.746 55.5492L343.669 53.8164L344.534 46.7872L346.294 47.0038Z" fill="#FFC7E4"/>
<path d="M52.1296 27.7416L46.8505 27.0918L46.2016 32.3637L51.4807 33.0135L52.1296 27.7416ZM36.0761 27.5495L44.8745 28.6325L44.6582 30.3898L35.8598 29.3068L34.5619 39.8506L48.6394 41.5834L49.5047 34.5542L51.2644 34.7708L50.1828 43.5573L32.5859 41.3913L34.3164 27.3329L36.0761 27.5495ZM39.1629 31.4973L37.4032 31.2807L37.1869 33.038L38.9465 33.2546L38.7302 35.0119L40.4899 35.2285L40.2736 36.9858L43.793 37.419L44.0093 35.6617L45.769 35.8783L45.9853 34.121L44.2256 33.9044L44.0093 35.6617L40.4899 35.2285L40.7062 33.4712L38.9465 33.2546L39.1629 31.4973Z" fill="#FFC7E4"/>
<path d="M61.8075 28.9329L77.6448 30.8824L76.7795 37.9116L75.0198 37.695L75.6688 32.4231L61.5912 30.6902L60.2934 41.234L67.3321 42.1004L67.1158 43.8577L58.3174 42.7747L60.0479 28.7163L61.8075 28.9329ZM64.8943 32.8807L63.1346 32.6641L62.9183 34.4214L64.678 34.638L64.4617 36.3953L66.2214 36.6119L66.0051 38.3692L69.5244 38.8024L69.7407 37.0451L71.5004 37.2617L71.7167 35.5044L73.4764 35.7211L73.6928 33.9638L71.9331 33.7471L71.7167 35.5044L69.9571 35.2878L69.7407 37.0451L66.2214 36.6119L66.4377 34.8546L64.678 34.638L64.8943 32.8807ZM73.0438 39.2357L74.8035 39.4523L74.3709 42.9669L77.8903 43.4001L77.674 45.1574L75.9143 44.9408L75.698 46.6981L73.9383 46.4815L73.722 48.2388L71.9623 48.0222L72.3949 44.5076L68.8755 44.0743L69.0918 42.317L70.8515 42.5336L71.0678 40.7763L72.8275 40.993L73.0438 39.2357Z" fill="#FFC7E4"/>
<path d="M87.3227 32.0737L103.16 34.0231L102.078 42.8096L100.319 42.593L101.184 35.5638L87.1064 33.831L85.8085 44.3748L92.8473 45.2412L92.631 46.9985L83.8325 45.9155L85.563 31.8571L87.3227 32.0737ZM90.4094 36.0215L88.6497 35.8049L88.4334 37.5622L90.1931 37.7788L89.9768 39.5361L91.7365 39.7527L91.5202 41.51L95.0396 41.9432L95.2559 40.1859L97.0156 40.4025L97.2319 38.6452L98.9916 38.8618L99.2079 37.1045L97.4482 36.8879L97.2319 38.6452L95.4722 38.4286L95.2559 40.1859L91.7365 39.7527L91.9528 37.9954L90.1931 37.7788L90.4094 36.0215ZM94.607 45.4578L96.3666 45.6744L96.1503 47.4317L94.3906 47.2151L94.607 45.4578ZM97.91 47.6483L97.6937 49.4056L95.934 49.189L96.1503 47.4317L97.91 47.6483ZM99.886 46.1076L98.1263 45.891L97.91 47.6483L99.6697 47.8649L99.886 46.1076ZM99.886 46.1076L100.102 44.3503L101.862 44.5669L101.646 46.3242L99.886 46.1076Z" fill="#FFC7E4"/>
<path d="M121.638 36.2976L118.118 35.8643L117.902 37.6216L116.142 37.405L115.926 39.1623L114.166 38.9457L113.95 40.703L112.19 40.4864L111.974 42.2437L110.214 42.0271L108.916 52.5709L126.513 54.737L127.811 44.1932L126.052 43.9766L126.268 42.2193L124.508 42.0027L124.724 40.2454L122.965 40.0288L123.181 38.2715L121.421 38.0549L121.638 36.2976ZM121.421 38.0549L121.205 39.8122L122.965 40.0288L122.748 41.7861L124.508 42.0027L124.076 45.5173L122.316 45.3007L122.1 47.058L120.34 46.8414L120.124 48.5987L116.604 48.1654L116.82 46.4081L115.061 46.1915L115.277 44.4342L113.517 44.2176L113.95 40.703L115.71 40.9196L115.926 39.1623L117.686 39.3789L117.902 37.6216L121.421 38.0549ZM113.517 44.2176L113.301 45.9749L115.061 46.1915L114.844 47.9488L116.604 48.1654L116.388 49.9228L119.907 50.356L120.124 48.5987L121.883 48.8153L122.1 47.058L123.859 47.2746L124.076 45.5173L125.835 45.7339L124.97 52.7631L110.892 51.0302L111.758 44.001L113.517 44.2176Z" fill="#FFC7E4"/>
<path d="M154.192 40.3047L148.913 39.6549L148.264 44.9268L153.543 45.5766L154.192 40.3047ZM138.138 40.1126L146.937 41.1956L146.72 42.9529L137.922 41.8699L136.624 52.4137L150.701 54.1465L151.567 47.1173L153.326 47.3339L152.245 56.1204L134.648 53.9544L136.378 39.896L138.138 40.1126ZM141.225 44.0604L139.465 43.8438L139.249 45.6011L141.009 45.8177L140.792 47.575L142.552 47.7916L142.336 49.5489L145.855 49.9821L146.071 48.2248L147.831 48.4414L148.047 46.6841L146.288 46.4675L146.071 48.2248L142.552 47.7916L142.768 46.0343L141.009 45.8177L141.225 44.0604Z" fill="#FFC7E4"/>
<path d="M163.655 43.2535L179.492 45.2029L178.627 52.2321L176.867 52.0155L177.516 46.7436L163.438 45.0108L162.141 55.5546L169.179 56.421L168.963 58.1783L160.165 57.0953L161.895 43.0369L163.655 43.2535ZM166.741 47.2013L164.982 46.9847L164.765 48.742L166.525 48.9586L166.309 50.7159L168.069 50.9325L167.852 52.6898L171.372 53.123L171.588 51.3657L173.348 51.5823L173.564 49.825L175.324 50.0416L175.54 48.2843L173.78 48.0677L173.564 49.825L171.804 49.6084L171.588 51.3657L168.069 50.9325L168.285 49.1752L166.525 48.9586L166.741 47.2013ZM174.891 53.5562L176.651 53.7728L176.218 57.2874L179.737 57.7206L179.521 59.4779L177.761 59.2613L177.545 61.0186L175.785 60.802L175.569 62.5593L173.809 62.3427L174.242 58.8281L170.723 58.3949L170.939 56.6376L172.699 56.8542L172.915 55.0969L174.675 55.3135L174.891 53.5562Z" fill="#FFC7E4"/>
<path d="M189.17 46.3942L205.007 48.3437L203.926 57.1302L202.166 56.9136L203.031 49.8844L188.954 48.1515L187.656 58.6953L194.694 59.5617L194.478 61.319L185.68 60.236L187.41 46.1776L189.17 46.3942ZM192.257 50.342L190.497 50.1254L190.281 51.8827L192.04 52.0993L191.824 53.8566L193.584 54.0732L193.367 55.8305L196.887 56.2637L197.103 54.5064L198.863 54.7231L199.079 52.9658L200.839 53.1824L201.055 51.4251L199.295 51.2084L199.079 52.9658L197.319 52.7491L197.103 54.5064L193.584 54.0732L193.8 52.3159L192.04 52.0993L192.257 50.342ZM196.454 59.7783L198.214 59.995L197.998 61.7523L196.238 61.5356L196.454 59.7783ZM199.757 61.9689L199.541 63.7262L197.781 63.5096L197.998 61.7523L199.757 61.9689ZM201.733 60.4282L199.974 60.2116L199.757 61.9689L201.517 62.1855L201.733 60.4282ZM201.733 60.4282L201.95 58.6709L203.709 58.8875L203.493 60.6448L201.733 60.4282Z" fill="#FFC7E4"/>
<path d="M223.701 48.8608L220.181 48.4276L219.965 50.1849L218.205 49.9683L217.989 51.7256L216.229 51.509L216.013 53.2663L214.253 53.0497L214.037 54.807L212.277 54.5904L210.979 65.1342L228.576 67.3002L229.874 56.7564L228.115 56.5398L228.331 54.7825L226.571 54.5659L226.787 52.8086L225.028 52.592L225.244 50.8347L223.484 50.6181L223.701 48.8608ZM223.484 50.6181L223.268 52.3754L225.028 52.592L224.811 54.3493L226.571 54.5659L226.139 58.0805L224.379 57.8639L224.163 59.6212L222.403 59.4046L222.187 61.1619L218.667 60.7287L218.883 58.9714L217.124 58.7548L217.34 56.9975L215.58 56.7809L216.013 53.2663L217.773 53.4829L217.989 51.7256L219.749 51.9422L219.965 50.1849L223.484 50.6181ZM215.58 56.7809L215.364 58.5382L217.124 58.7548L216.907 60.5121L218.667 60.7287L218.451 62.486L221.97 62.9192L222.187 61.1619L223.946 61.3785L224.163 59.6212L225.922 59.8378L226.139 58.0805L227.898 58.2971L227.033 65.3263L212.955 63.5935L213.821 56.5643L215.58 56.7809Z" fill="#FFC7E4"/>
<path d="M256.255 52.868L250.976 52.2181L250.327 57.49L255.606 58.1399L256.255 52.868ZM240.201 52.6758L249 53.7588L248.783 55.5161L239.985 54.4331L238.687 64.9769L252.764 66.7098L253.63 59.6806L255.389 59.8972L254.308 68.6837L236.711 66.5176L238.441 52.4592L240.201 52.6758ZM243.288 56.6236L241.528 56.407L241.312 58.1643L243.072 58.3809L242.855 60.1382L244.615 60.3548L244.399 62.1121L247.918 62.5453L248.134 60.788L249.894 61.0046L250.11 59.2473L248.351 59.0307L248.134 60.788L244.615 60.3548L244.831 58.5975L243.072 58.3809L243.288 56.6236Z" fill="#FFC7E4"/>
<path d="M265.716 55.8165L281.553 57.7659L280.688 64.7951L278.929 64.5785L279.577 59.3066L265.5 57.5738L264.202 68.1176L271.241 68.984L271.025 70.7413L262.226 69.6583L263.957 55.5999L265.716 55.8165ZM268.803 59.7643L267.043 59.5477L266.827 61.305L268.587 61.5216L268.37 63.2789L270.13 63.4955L269.914 65.2528L273.433 65.686L273.649 63.9287L275.409 64.1453L275.625 62.388L277.385 62.6046L277.601 60.8473L275.842 60.6307L275.625 62.388L273.866 62.1714L273.649 63.9287L270.13 63.4955L270.346 61.7382L268.587 61.5216L268.803 59.7643ZM276.953 66.1192L278.712 66.3358L278.28 69.8504L281.799 70.2836L281.583 72.0409L279.823 71.8243L279.607 73.5816L277.847 73.365L277.631 75.1223L275.871 74.9057L276.304 71.3911L272.784 70.9579L273.001 69.2006L274.76 69.4172L274.977 67.6599L276.736 67.8765L276.953 66.1192Z" fill="#FFC7E4"/>
<path d="M291.231 58.9572L307.069 60.9067L305.987 69.6932L304.227 69.4766L305.093 62.4473L291.015 60.7145L289.717 71.2583L296.756 72.1247L296.54 73.882L287.741 72.799L289.472 58.7406L291.231 58.9572ZM294.318 62.905L292.558 62.6884L292.342 64.4457L294.102 64.6623L293.886 66.4196L295.645 66.6362L295.429 68.3935L298.948 68.8267L299.165 67.0694L300.924 67.286L301.141 65.5287L302.9 65.7453L303.117 63.988L301.357 63.7714L301.141 65.5287L299.381 65.3121L299.165 67.0694L295.645 66.6362L295.862 64.8789L294.102 64.6623L294.318 62.905ZM298.516 72.3413L300.275 72.5579L300.059 74.3152L298.299 74.0986L298.516 72.3413ZM301.819 74.5318L301.602 76.2891L299.843 76.0725L300.059 74.3152L301.819 74.5318ZM303.795 72.9912L302.035 72.7745L301.819 74.5318L303.578 74.7485L303.795 72.9912ZM303.795 72.9912L304.011 71.2339L305.771 71.4505L305.554 73.2078L303.795 72.9912Z" fill="#FFC7E4"/>
<path d="M325.762 61.4239L322.243 60.9907L322.027 62.748L320.267 62.5314L320.051 64.2887L318.291 64.0721L318.075 65.8294L316.315 65.6128L316.099 67.3701L314.339 67.1535L313.041 77.6973L330.638 79.8633L331.936 69.3195L330.176 69.1029L330.392 67.3456L328.633 67.129L328.849 65.3717L327.089 65.1551L327.306 63.3978L325.546 63.1812L325.762 61.4239ZM325.546 63.1812L325.33 64.9385L327.089 65.1551L326.873 66.9124L328.633 67.129L328.2 70.6436L326.44 70.427L326.224 72.1843L324.464 71.9677L324.248 73.725L320.729 73.2918L320.945 71.5345L319.185 71.3179L319.402 69.5606L317.642 69.344L318.075 65.8294L319.834 66.046L320.051 64.2887L321.81 64.5053L322.027 62.748L325.546 63.1812ZM317.642 69.344L317.426 71.1013L319.185 71.3179L318.969 73.0752L320.729 73.2918L320.512 75.0491L324.032 75.4823L324.248 73.725L326.008 73.9416L326.224 72.1843L327.984 72.4009L328.2 70.6436L329.96 70.8602L329.095 77.8894L315.017 76.1566L315.882 69.1274L317.642 69.344Z" fill="#FFC7E4"/>
<path d="M358.316 65.4309L353.037 64.7811L352.388 70.053L357.667 70.7028L358.316 65.4309ZM342.263 65.2388L351.061 66.3218L350.845 68.0791L342.046 66.9961L340.748 77.5399L354.826 79.2727L355.691 72.2435L357.451 72.4601L356.369 81.2467L338.772 79.0806L340.503 65.0222L342.263 65.2388ZM345.349 69.1866L343.59 68.97L343.373 70.7273L345.133 70.9439L344.917 72.7012L346.676 72.9178L346.46 74.6751L349.98 75.1083L350.196 73.351L351.956 73.5676L352.172 71.8103L350.412 71.5937L350.196 73.351L346.676 72.9178L346.893 71.1605L345.133 70.9439L345.349 69.1866Z" fill="#FFC7E4"/>
<path d="M32.9399 53.0304L48.7771 54.9799L47.9118 62.0091L46.1521 61.7925L46.8011 56.5206L32.7236 54.7877L31.4257 65.3316L38.4644 66.198L38.2481 67.9553L29.4497 66.8722L31.1802 52.8138L32.9399 53.0304ZM36.0266 56.9783L34.2669 56.7617L34.0506 58.519L35.8103 58.7356L35.594 60.4929L37.3537 60.7095L37.1374 62.4668L40.6568 62.9L40.8731 61.1427L42.6328 61.3593L42.8491 59.602L44.6088 59.8186L44.8251 58.0613L43.0654 57.8447L42.8491 59.602L41.0894 59.3854L40.8731 61.1427L37.3537 60.7095L37.57 58.9522L35.8103 58.7356L36.0266 56.9783ZM44.1761 63.3332L45.9358 63.5498L45.5032 67.0644L49.0226 67.4976L48.8063 69.2549L47.0466 69.0383L46.8303 70.7956L45.0706 70.579L44.8543 72.3363L43.0946 72.1197L43.5272 68.6051L40.0078 68.1719L40.2241 66.4146L41.9838 66.6312L42.2001 64.8739L43.9598 65.0905L44.1761 63.3332Z" fill="#FFC7E4"/>
<path d="M58.6713 54.4139L74.5085 56.3633L73.427 65.1498L71.6673 64.9332L72.5325 57.904L58.455 56.1712L57.1571 66.715L64.1959 67.5814L63.9796 69.3387L55.1811 68.2557L56.9116 54.1973L58.6713 54.4139ZM61.7581 58.3617L59.9984 58.1451L59.7821 59.9024L61.5418 60.119L61.3254 61.8763L63.0851 62.0929L62.8688 63.8502L66.3882 64.2834L66.6045 62.5261L68.3642 62.7427L68.5805 60.9854L70.3402 61.202L70.5565 59.4447L68.7968 59.2281L68.5805 60.9854L66.8208 60.7688L66.6045 62.5261L63.0851 62.0929L63.3014 60.3356L61.5418 60.119L61.7581 58.3617ZM65.9556 67.798L67.7153 68.0146L67.499 69.7719L65.7393 69.5553L65.9556 67.798ZM69.2587 69.9885L69.0423 71.7458L67.2827 71.5292L67.499 69.7719L69.2587 69.9885ZM71.2347 68.4478L69.475 68.2312L69.2587 69.9885L71.0183 70.2051L71.2347 68.4478ZM71.2347 68.4478L71.451 66.6905L73.2107 66.9071L72.9943 68.6644L71.2347 68.4478Z" fill="#FFC7E4"/>
<path d="M93.2012 56.8802L89.6818 56.447L89.4655 58.2043L87.7058 57.9877L87.4895 59.745L85.7298 59.5284L85.5135 61.2857L83.7538 61.0691L83.5375 62.8264L81.7778 62.6098L80.48 73.1536L98.0769 75.3196L99.3747 64.7758L97.615 64.5592L97.8313 62.8019L96.0717 62.5853L96.288 60.828L94.5283 60.6114L94.7446 58.8541L92.9849 58.6375L93.2012 56.8802ZM92.9849 58.6375L92.7686 60.3948L94.5283 60.6114L94.312 62.3687L96.0717 62.5853L95.639 66.0999L93.8793 65.8833L93.663 67.6406L91.9033 67.424L91.687 69.1813L88.1677 68.7481L88.384 66.9908L86.6243 66.7742L86.8406 65.0169L85.0809 64.8003L85.5135 61.2857L87.2732 61.5023L87.4895 59.745L89.2492 59.9616L89.4655 58.2043L92.9849 58.6375ZM85.0809 64.8003L84.8646 66.5576L86.6243 66.7742L86.408 68.5315L88.1677 68.7481L87.9513 70.5054L91.4707 70.9386L91.687 69.1813L93.4467 69.3979L93.663 67.6406L95.4227 67.8572L95.639 66.0999L97.3987 66.3165L96.5335 73.3457L82.456 71.6129L83.3212 64.5837L85.0809 64.8003Z" fill="#FFC7E4"/>
<path d="M125.54 62.6449L120.261 61.9951L119.612 67.267L124.891 67.9168L125.54 62.6449ZM109.486 62.4528L118.285 63.5358L118.068 65.2931L109.27 64.2101L107.972 74.7539L122.05 76.4867L122.915 69.4575L124.675 69.6741L123.593 78.4606L105.996 76.2946L107.727 62.2362L109.486 62.4528ZM112.573 66.4006L110.813 66.184L110.597 67.9413L112.357 68.1579L112.14 69.9152L113.9 70.1318L113.684 71.8891L117.203 72.3223L117.419 70.565L119.179 70.7816L119.395 69.0243L117.636 68.8077L117.419 70.565L113.9 70.1318L114.116 68.3745L112.357 68.1579L112.573 66.4006Z" fill="#FFC7E4"/>
<path d="M135.001 65.5934L150.839 67.5429L149.973 74.5721L148.214 74.3555L148.863 69.0836L134.785 67.3507L133.487 77.8945L140.526 78.761L140.31 80.5183L131.511 79.4352L133.242 65.3768L135.001 65.5934ZM138.088 69.5412L136.328 69.3246L136.112 71.0819L137.872 71.2985L137.656 73.0558L139.415 73.2725L139.199 75.0298L142.718 75.463L142.935 73.7057L144.694 73.9223L144.911 72.165L146.67 72.3816L146.887 70.6243L145.127 70.4077L144.911 72.165L143.151 71.9484L142.935 73.7057L139.415 73.2725L139.632 71.5152L137.872 71.2985L138.088 69.5412ZM146.238 75.8962L147.997 76.1128L147.565 79.6274L151.084 80.0606L150.868 81.8179L149.108 81.6013L148.892 83.3586L147.132 83.142L146.916 84.8993L145.156 84.6827L145.589 81.1681L142.069 80.7349L142.286 78.9776L144.045 79.1942L144.262 77.4369L146.021 77.6535L146.238 75.8962Z" fill="#FFC7E4"/>
<path d="M160.518 68.7343L176.355 70.6838L175.274 79.4703L173.514 79.2537L174.379 72.2244L160.302 70.4916L159.004 81.0354L166.043 81.9018L165.826 83.6591L157.028 82.5761L158.758 68.5177L160.518 68.7343ZM163.605 72.6821L161.845 72.4655L161.629 74.2228L163.388 74.4394L163.172 76.1967L164.932 76.4133L164.716 78.1706L168.235 78.6038L168.451 76.8465L170.211 77.0631L170.427 75.3058L172.187 75.5224L172.403 73.7651L170.644 73.5485L170.427 75.3058L168.668 75.0892L168.451 76.8465L164.932 76.4133L165.148 74.656L163.388 74.4394L163.605 72.6821ZM167.802 82.1184L169.562 82.335L169.346 84.0923L167.586 83.8757L167.802 82.1184ZM171.105 84.3089L170.889 86.0662L169.129 85.8496L169.346 84.0923L171.105 84.3089ZM173.081 82.7683L171.322 82.5516L171.105 84.3089L172.865 84.5256L173.081 82.7683ZM173.081 82.7683L173.298 81.011L175.057 81.2276L174.841 82.9849L173.081 82.7683Z" fill="#FFC7E4"/>
<path d="M195.048 71.2009L191.529 70.7677L191.312 72.525L189.553 72.3084L189.336 74.0657L187.577 73.8491L187.36 75.6064L185.601 75.3898L185.384 77.1471L183.625 76.9304L182.327 87.4743L199.924 89.6403L201.221 79.0965L199.462 78.8799L199.678 77.1226L197.918 76.906L198.135 75.1487L196.375 74.9321L196.591 73.1748L194.832 72.9582L195.048 71.2009ZM194.832 72.9582L194.615 74.7155L196.375 74.9321L196.159 76.6894L197.918 76.906L197.486 80.4206L195.726 80.204L195.51 81.9613L193.75 81.7447L193.534 83.502L190.014 83.0688L190.231 81.3115L188.471 81.0949L188.687 79.3376L186.928 79.121L187.36 75.6064L189.12 75.823L189.336 74.0657L191.096 74.2823L191.312 72.525L194.832 72.9582ZM186.928 79.121L186.711 80.8783L188.471 81.0949L188.255 82.8522L190.014 83.0688L189.798 84.8261L193.317 85.2593L193.534 83.502L195.293 83.7186L195.51 81.9613L197.269 82.1779L197.486 80.4206L199.245 80.6372L198.38 87.6664L184.303 85.9336L185.168 78.9044L186.928 79.121Z" fill="#FFC7E4"/>
<path d="M227.603 75.2082L222.324 74.5584L221.675 79.8303L226.954 80.4801L227.603 75.2082ZM211.549 75.016L220.348 76.099L220.131 77.8563L211.333 76.7733L210.035 87.3171L224.113 89.05L224.978 82.0208L226.738 82.2374L225.656 91.0239L208.059 88.8578L209.79 74.7994L211.549 75.016ZM214.636 78.9638L212.876 78.7472L212.66 80.5045L214.42 80.7211L214.203 82.4784L215.963 82.695L215.747 84.4523L219.266 84.8855L219.482 83.1282L221.242 83.3449L221.458 81.5876L219.699 81.3709L219.482 83.1282L215.963 82.695L216.179 80.9377L214.42 80.7211L214.636 78.9638Z" fill="#FFC7E4"/>
<path d="M237.064 78.1567L252.902 80.1061L252.036 87.1353L250.277 86.9187L250.926 81.6468L236.848 79.914L235.55 90.4578L242.589 91.3242L242.373 93.0815L233.574 91.9985L235.305 77.9401L237.064 78.1567ZM240.151 82.1045L238.391 81.8879L238.175 83.6452L239.935 83.8618L239.719 85.6191L241.478 85.8357L241.262 87.593L244.781 88.0262L244.998 86.2689L246.757 86.4855L246.974 84.7282L248.733 84.9448L248.95 83.1875L247.19 82.9709L246.974 84.7282L245.214 84.5116L244.998 86.2689L241.478 85.8357L241.695 84.0784L239.935 83.8618L240.151 82.1045ZM248.301 88.4594L250.06 88.676L249.628 92.1906L253.147 92.6238L252.931 94.3811L251.171 94.1645L250.955 95.9218L249.195 95.7052L248.979 97.4625L247.219 97.2459L247.652 93.7313L244.132 93.2981L244.349 91.5408L246.108 91.7574L246.325 90.0001L248.084 90.2167L248.301 88.4594Z" fill="#FFC7E4"/>
<path d="M262.58 81.2974L278.417 83.2469L277.335 92.0334L275.575 91.8168L276.441 84.7876L262.363 83.0547L261.065 93.5985L268.104 94.4649L267.888 96.2222L259.089 95.1392L260.82 81.0808L262.58 81.2974ZM265.666 85.2452L263.907 85.0286L263.69 86.7859L265.45 87.0025L265.234 88.7598L266.993 88.9764L266.777 90.7337L270.296 91.1669L270.513 89.4096L272.272 89.6262L272.489 87.8689L274.248 88.0856L274.465 86.3283L272.705 86.1116L272.489 87.8689L270.729 87.6523L270.513 89.4096L266.993 88.9764L267.21 87.2191L265.45 87.0025L265.666 85.2452ZM269.864 94.6815L271.623 94.8982L271.407 96.6555L269.647 96.4388L269.864 94.6815ZM273.167 96.8721L272.951 98.6294L271.191 98.4128L271.407 96.6555L273.167 96.8721ZM275.143 95.3314L273.383 95.1148L273.167 96.8721L274.927 97.0887L275.143 95.3314ZM275.143 95.3314L275.359 93.5741L277.119 93.7907L276.903 95.548L275.143 95.3314Z" fill="#FFC7E4"/>
<path d="M297.109 83.7639L293.59 83.3307L293.374 85.088L291.614 84.8713L291.398 86.6287L289.638 86.412L289.422 88.1693L287.662 87.9527L287.446 89.71L285.686 89.4934L284.388 100.037L301.985 102.203L303.283 91.6595L301.523 91.4429L301.74 89.6856L299.98 89.469L300.196 87.7117L298.436 87.4951L298.653 85.7378L296.893 85.5212L297.109 83.7639ZM296.893 85.5212L296.677 87.2785L298.436 87.4951L298.22 89.2524L299.98 89.469L299.547 92.9836L297.788 92.767L297.571 94.5243L295.812 94.3077L295.595 96.065L292.076 95.6318L292.292 93.8745L290.532 93.6579L290.749 91.9006L288.989 91.6839L289.422 88.1693L291.181 88.386L291.398 86.6287L293.157 86.8453L293.374 85.088L296.893 85.5212ZM288.989 91.6839L288.773 93.4412L290.532 93.6579L290.316 95.4152L292.076 95.6318L291.86 97.3891L295.379 97.8223L295.595 96.065L297.355 96.2816L297.571 94.5243L299.331 94.7409L299.547 92.9836L301.307 93.2002L300.442 100.229L286.364 98.4965L287.229 91.4673L288.989 91.6839Z" fill="#FFC7E4"/>
<path d="M329.665 87.7712L324.386 87.1213L323.737 92.3932L329.016 93.0431L329.665 87.7712ZM313.611 87.579L322.41 88.662L322.193 90.4193L313.395 89.3363L312.097 99.8801L326.175 101.613L327.04 94.5838L328.8 94.8004L327.718 103.587L310.121 101.421L311.852 87.3624L313.611 87.579ZM316.698 91.5268L314.938 91.3102L314.722 93.0675L316.482 93.2841L316.265 95.0414L318.025 95.258L317.809 97.0153L321.328 97.4485L321.544 95.6912L323.304 95.9078L323.52 94.1505L321.761 93.9339L321.544 95.6912L318.025 95.258L318.241 93.5007L316.482 93.2841L316.698 91.5268Z" fill="#FFC7E4"/>
<path d="M339.126 90.7198L354.963 92.6692L354.098 99.6984L352.338 99.4818L352.987 94.2099L338.91 92.4771L337.612 103.021L344.65 103.887L344.434 105.645L335.636 104.562L337.366 90.5032L339.126 90.7198ZM342.213 94.6676L340.453 94.451L340.237 96.2083L341.996 96.4249L341.78 98.1822L343.54 98.3988L343.323 100.156L346.843 100.589L347.059 98.832L348.819 99.0486L349.035 97.2913L350.795 97.5079L351.011 95.7506L349.251 95.534L349.035 97.2913L347.275 97.0747L347.059 98.832L343.54 98.3988L343.756 96.6415L341.996 96.4249L342.213 94.6676ZM350.362 101.023L352.122 101.239L351.689 104.754L355.209 105.187L354.992 106.944L353.233 106.728L353.016 108.485L351.257 108.268L351.04 110.026L349.281 109.809L349.713 106.294L346.194 105.861L346.41 104.104L348.17 104.321L348.386 102.563L350.146 102.78L350.362 101.023Z" fill="#FFC7E4"/>
<path d="M43.0009 80.1358L58.8381 82.0852L57.7566 90.8717L55.9969 90.6551L56.8621 83.6259L42.7846 81.8931L41.4867 92.4369L48.5255 93.3033L48.3092 95.0606L39.5107 93.9776L41.2412 79.9192L43.0009 80.1358ZM46.0877 84.0836L44.328 83.867L44.1117 85.6243L45.8713 85.8409L45.655 87.5982L47.4147 87.8148L47.1984 89.5721L50.7178 90.0053L50.9341 88.248L52.6938 88.4646L52.9101 86.7073L54.6698 86.9239L54.8861 85.1666L53.1264 84.95L52.9101 86.7073L51.1504 86.4907L50.9341 88.248L47.4147 87.8148L47.631 86.0575L45.8713 85.8409L46.0877 84.0836ZM50.2852 93.5199L52.0449 93.7365L51.8286 95.4938L50.0689 95.2772L50.2852 93.5199ZM53.5882 95.7104L53.3719 97.4677L51.6122 97.2511L51.8286 95.4938L53.5882 95.7104ZM55.5642 94.1697L53.8046 93.9531L53.5882 95.7104L55.3479 95.927L55.5642 94.1697ZM55.5642 94.1697L55.7806 92.4124L57.5402 92.629L57.3239 94.3863L55.5642 94.1697Z" fill="#FFC7E4"/>
<path d="M93.9228 87.2958L109.76 89.2453L108.678 98.0318L106.919 97.8152L107.784 90.786L93.7065 89.0531L92.4086 99.5969L99.4474 100.463L99.231 102.221L90.4326 101.138L92.1631 87.0792L93.9228 87.2958ZM97.0095 91.2436L95.2498 91.027L95.0335 92.7843L96.7932 93.0009L96.5769 94.7582L98.3366 94.9748L98.1203 96.7321L101.64 97.1654L101.856 95.4081L103.616 95.6247L103.832 93.8674L105.592 94.084L105.808 92.3267L104.048 92.1101L103.832 93.8674L102.072 93.6508L101.856 95.4081L98.3366 94.9748L98.5529 93.2175L96.7932 93.0009L97.0095 91.2436ZM101.207 100.68L102.967 100.897L102.75 102.654L100.991 102.437L101.207 100.68ZM104.51 102.87L104.294 104.628L102.534 104.411L102.75 102.654L104.51 102.87ZM106.486 101.33L104.726 101.113L104.51 102.87L106.27 103.087L106.486 101.33ZM106.486 101.33L106.702 99.5725L108.462 99.7891L108.246 101.546L106.486 101.33Z" fill="#FFC7E4"/>
<path d="M77.5308 82.6022L74.0114 82.169L73.7951 83.9263L72.0354 83.7097L71.8191 85.467L70.0594 85.2504L69.8431 87.0077L68.0834 86.7911L67.8671 88.5484L66.1074 88.3318L64.8095 98.8756L82.4064 101.042L83.7043 90.4979L81.9446 90.2813L82.1609 88.524L80.4012 88.3074L80.6176 86.5501L78.8579 86.3334L79.0742 84.5761L77.3145 84.3595L77.5308 82.6022ZM77.3145 84.3595L77.0982 86.1168L78.8579 86.3334L78.6416 88.0908L80.4012 88.3074L79.9686 91.822L78.2089 91.6054L77.9926 93.3627L76.2329 93.146L76.0166 94.9033L72.4972 94.4701L72.7136 92.7128L70.9539 92.4962L71.1702 90.7389L69.4105 90.5223L69.8431 87.0077L71.6028 87.2243L71.8191 85.467L73.5788 85.6836L73.7951 83.9263L77.3145 84.3595ZM69.4105 90.5223L69.1942 92.2796L70.9539 92.4962L70.7376 94.2535L72.4972 94.4701L72.2809 96.2274L75.8003 96.6606L76.0166 94.9033L77.7763 95.12L77.9926 93.3627L79.7523 93.5793L79.9686 91.822L81.7283 92.0386L80.8631 99.0678L66.7855 97.3349L67.6508 90.3057L69.4105 90.5223Z" fill="#FFC7E4"/>
<path d="M36.0149 158.661L30.7358 158.011L30.0869 163.283L35.3659 163.932L36.0149 158.661ZM19.9613 158.468L28.7598 159.551L28.5435 161.309L19.745 160.226L18.4472 170.77L32.5247 172.502L33.3899 165.473L35.1496 165.69L34.0681 174.476L16.4712 172.31L18.2017 158.252L19.9613 158.468ZM23.0481 162.416L21.2884 162.2L21.0721 163.957L22.8318 164.174L22.6155 165.931L24.3752 166.147L24.1589 167.905L27.6782 168.338L27.8946 166.581L29.6542 166.797L29.8706 165.04L28.1109 164.823L27.8946 166.581L24.3752 166.147L24.5915 164.39L22.8318 164.174L23.0481 162.416Z" fill="#FFC7E4"/>
<path d="M45.4765 161.609L61.3137 163.559L60.4485 170.588L58.6888 170.371L59.3377 165.099L45.2602 163.366L43.9623 173.91L51.0011 174.777L50.7848 176.534L41.9863 175.451L43.7168 161.392L45.4765 161.609ZM48.5632 165.557L46.8036 165.34L46.5872 167.098L48.3469 167.314L48.1306 169.071L49.8903 169.288L49.674 171.045L53.1934 171.479L53.4097 169.721L55.1694 169.938L55.3857 168.181L57.1454 168.397L57.3617 166.64L55.602 166.423L55.3857 168.181L53.626 167.964L53.4097 169.721L49.8903 169.288L50.1066 167.531L48.3469 167.314L48.5632 165.557ZM56.7128 171.912L58.4725 172.128L58.0398 175.643L61.5592 176.076L61.3429 177.834L59.5832 177.617L59.3669 179.374L57.6072 179.158L57.3909 180.915L55.6312 180.698L56.0638 177.184L52.5444 176.75L52.7608 174.993L54.5205 175.21L54.7368 173.452L56.4965 173.669L56.7128 171.912Z" fill="#FFC7E4"/>
<path d="M87.0451 164.942L81.7661 164.292L81.1171 169.564L86.3962 170.214L87.0451 164.942ZM70.9916 164.75L79.7901 165.833L79.5738 167.59L70.7753 166.507L69.4774 177.051L83.555 178.784L84.4202 171.755L86.1799 171.971L85.0983 180.758L67.5014 178.592L69.2319 164.533L70.9916 164.75ZM74.0784 168.698L72.3187 168.481L72.1024 170.238L73.8621 170.455L73.6458 172.212L75.4054 172.429L75.1891 174.186L78.7085 174.619L78.9248 172.862L80.6845 173.079L80.9008 171.321L79.1411 171.105L78.9248 172.862L75.4054 172.429L75.6218 170.672L73.8621 170.455L74.0784 168.698Z" fill="#FFC7E4"/>
<path d="M96.5077 167.891L112.345 169.84L111.48 176.869L109.72 176.653L110.369 171.381L96.2914 169.648L94.9936 180.192L102.032 181.058L101.816 182.816L93.0176 181.732L94.748 167.674L96.5077 167.891ZM99.5945 171.838L97.8348 171.622L97.6185 173.379L99.3782 173.596L99.1619 175.353L100.922 175.57L100.705 177.327L104.225 177.76L104.441 176.003L106.201 176.22L106.417 174.462L108.177 174.679L108.393 172.922L106.633 172.705L106.417 174.462L104.657 174.246L104.441 176.003L100.922 175.57L101.138 173.812L99.3782 173.596L99.5945 171.838ZM107.744 178.193L109.504 178.41L109.071 181.925L112.59 182.358L112.374 184.115L110.614 183.899L110.398 185.656L108.638 185.439L108.422 187.197L106.662 186.98L107.095 183.465L103.576 183.032L103.792 181.275L105.552 181.491L105.768 179.734L107.528 179.951L107.744 178.193Z" fill="#FFC7E4"/>
<path d="M122.023 171.031L137.86 172.981L136.779 181.767L135.019 181.551L135.884 174.522L121.807 172.789L120.509 183.333L127.547 184.199L127.331 185.956L118.533 184.873L120.263 170.815L122.023 171.031ZM125.11 174.979L123.35 174.763L123.134 176.52L124.893 176.737L124.677 178.494L126.437 178.71L126.22 180.468L129.74 180.901L129.956 179.144L131.716 179.36L131.932 177.603L133.692 177.82L133.908 176.062L132.148 175.846L131.932 177.603L130.172 177.386L129.956 179.144L126.437 178.71L126.653 176.953L124.893 176.737L125.11 174.979ZM129.307 184.416L131.067 184.632L130.851 186.389L129.091 186.173L129.307 184.416ZM132.61 186.606L132.394 188.363L130.634 188.147L130.851 186.389L132.61 186.606ZM134.586 185.065L132.827 184.849L132.61 186.606L134.37 186.823L134.586 185.065ZM134.586 185.065L134.803 183.308L136.562 183.525L136.346 185.282L134.586 185.065Z" fill="#FFC7E4"/>
<path d="M208.413 100.497L224.25 102.446L223.385 109.476L221.625 109.259L222.274 103.987L208.197 102.254L206.899 112.798L213.938 113.664L213.721 115.422L204.923 114.339L206.653 100.28L208.413 100.497ZM211.5 104.445L209.74 104.228L209.524 105.985L211.283 106.202L211.067 107.959L212.827 108.176L212.611 109.933L216.13 110.366L216.346 108.609L218.106 108.826L218.322 107.068L220.082 107.285L220.298 105.528L218.539 105.311L218.322 107.068L216.563 106.852L216.346 108.609L212.827 108.176L213.043 106.419L211.283 106.202L211.5 104.445ZM219.649 110.8L221.409 111.016L220.976 114.531L224.496 114.964L224.279 116.721L222.52 116.505L222.303 118.262L220.544 118.045L220.327 119.803L218.568 119.586L219 116.072L215.481 115.638L215.697 113.881L217.457 114.098L217.673 112.34L219.433 112.557L219.649 110.8Z" fill="#FFC7E4"/>
<path d="M233.928 103.638L249.765 105.587L248.684 114.373L246.924 114.157L247.789 107.128L233.712 105.395L232.414 115.939L239.453 116.805L239.236 118.562L230.438 117.479L232.168 103.421L233.928 103.638ZM237.015 107.585L235.255 107.369L235.039 109.126L236.799 109.343L236.582 111.1L238.342 111.317L238.126 113.074L241.645 113.507L241.861 111.75L243.621 111.966L243.837 110.209L245.597 110.426L245.813 108.668L244.054 108.452L243.837 110.209L242.078 109.992L241.861 111.75L238.342 111.317L238.558 109.559L236.799 109.343L237.015 107.585ZM241.212 117.022L242.972 117.238L242.756 118.996L240.996 118.779L241.212 117.022ZM244.515 119.212L244.299 120.969L242.539 120.753L242.756 118.996L244.515 119.212ZM246.491 117.671L244.732 117.455L244.515 119.212L246.275 119.429L246.491 117.671ZM246.491 117.671L246.708 115.914L248.467 116.131L248.251 117.888L246.491 117.671Z" fill="#FFC7E4"/>
<path d="M268.458 106.104L264.939 105.671L264.722 107.428L262.963 107.212L262.746 108.969L260.987 108.752L260.77 110.51L259.011 110.293L258.794 112.05L257.035 111.834L255.737 122.377L273.334 124.544L274.632 114L272.872 113.783L273.088 112.026L271.328 111.809L271.545 110.052L269.785 109.835L270.001 108.078L268.242 107.861L268.458 106.104ZM268.242 107.861L268.025 109.619L269.785 109.835L269.569 111.593L271.328 111.809L270.896 115.324L269.136 115.107L268.92 116.864L267.16 116.648L266.944 118.405L263.424 117.972L263.641 116.215L261.881 115.998L262.097 114.241L260.338 114.024L260.77 110.51L262.53 110.726L262.746 108.969L264.506 109.185L264.722 107.428L268.242 107.861ZM260.338 114.024L260.121 115.781L261.881 115.998L261.665 117.755L263.424 117.972L263.208 119.729L266.728 120.162L266.944 118.405L268.704 118.622L268.92 116.864L270.68 117.081L270.896 115.324L272.656 115.54L271.79 122.57L257.713 120.837L258.578 113.808L260.338 114.024Z" fill="#FFC7E4"/>
<path d="M301.012 110.111L295.733 109.461L295.084 114.733L300.363 115.383L301.012 110.111ZM284.958 109.919L293.757 111.002L293.541 112.759L284.742 111.676L283.444 122.22L297.522 123.953L298.387 116.924L300.147 117.14L299.065 125.927L281.468 123.761L283.199 109.702L284.958 109.919ZM288.045 113.867L286.285 113.65L286.069 115.408L287.829 115.624L287.613 117.382L289.372 117.598L289.156 119.355L292.675 119.789L292.892 118.031L294.651 118.248L294.868 116.491L293.108 116.274L292.892 118.031L289.372 117.598L289.589 115.841L287.829 115.624L288.045 113.867Z" fill="#FFC7E4"/>
<path d="M310.475 113.06L326.312 115.009L325.447 122.039L323.687 121.822L324.336 116.55L310.258 114.817L308.96 125.361L315.999 126.227L315.783 127.985L306.984 126.902L308.715 112.843L310.475 113.06ZM313.561 117.008L311.802 116.791L311.585 118.548L313.345 118.765L313.129 120.522L314.888 120.739L314.672 122.496L318.191 122.929L318.408 121.172L320.167 121.389L320.384 119.631L322.143 119.848L322.36 118.091L320.6 117.874L320.384 119.631L318.624 119.415L318.408 121.172L314.888 120.739L315.105 118.982L313.345 118.765L313.561 117.008ZM321.711 123.363L323.47 123.579L323.038 127.094L326.557 127.527L326.341 129.284L324.581 129.068L324.365 130.825L322.605 130.608L322.389 132.366L320.629 132.149L321.062 128.635L317.542 128.201L317.759 126.444L319.518 126.661L319.735 124.903L321.494 125.12L321.711 123.363Z" fill="#FFC7E4"/>
<path d="M335.99 116.201L351.827 118.15L350.745 126.937L348.986 126.72L349.851 119.691L335.773 117.958L334.475 128.502L341.514 129.368L341.298 131.125L332.499 130.042L334.23 115.984L335.99 116.201ZM339.076 120.148L337.317 119.932L337.1 121.689L338.86 121.906L338.644 123.663L340.403 123.88L340.187 125.637L343.707 126.07L343.923 124.313L345.683 124.529L345.899 122.772L347.659 122.989L347.875 121.231L346.115 121.015L345.899 122.772L344.139 122.556L343.923 124.313L340.403 123.88L340.62 122.122L338.86 121.906L339.076 120.148ZM343.274 129.585L345.034 129.801L344.817 131.559L343.058 131.342L343.274 129.585ZM346.577 131.775L346.361 133.533L344.601 133.316L344.817 131.559L346.577 131.775ZM348.553 130.235L346.793 130.018L346.577 131.775L348.337 131.992L348.553 130.235ZM348.553 130.235L348.769 128.477L350.529 128.694L350.313 130.451L348.553 130.235Z" fill="#FFC7E4"/>
<path d="M48.5547 107.578L45.0353 107.145L44.819 108.902L43.0593 108.686L42.843 110.443L41.0833 110.226L40.867 111.984L39.1073 111.767L38.891 113.524L37.1313 113.308L35.8335 123.852L53.4304 126.018L54.7282 115.474L52.9686 115.257L53.1849 113.5L51.4252 113.283L51.6415 111.526L49.8818 111.31L50.0981 109.552L48.3384 109.336L48.5547 107.578ZM48.3384 109.336L48.1221 111.093L49.8818 111.31L49.6655 113.067L51.4252 113.283L50.9925 116.798L49.2329 116.581L49.0165 118.339L47.2569 118.122L47.0405 119.879L43.5212 119.446L43.7375 117.689L41.9778 117.472L42.1941 115.715L40.4344 115.498L40.867 111.984L42.6267 112.2L42.843 110.443L44.6027 110.66L44.819 108.902L48.3384 109.336ZM40.4344 115.498L40.2181 117.256L41.9778 117.472L41.7615 119.23L43.5212 119.446L43.3049 121.204L46.8242 121.637L47.0405 119.879L48.8002 120.096L49.0165 118.339L50.7762 118.555L50.9925 116.798L52.7522 117.015L51.887 124.044L37.8095 122.311L38.6747 115.282L40.4344 115.498Z" fill="#FFC7E4"/>
<path d="M99.4766 114.738L95.9572 114.305L95.7409 116.063L93.9812 115.846L93.7649 117.603L92.0052 117.387L91.7889 119.144L90.0292 118.927L89.8129 120.685L88.0532 120.468L86.7553 131.012L104.352 133.178L105.65 122.634L103.89 122.417L104.107 120.66L102.347 120.444L102.563 118.686L100.804 118.47L101.02 116.712L99.2603 116.496L99.4766 114.738ZM99.2603 116.496L99.044 118.253L100.804 118.47L100.587 120.227L102.347 120.444L101.914 123.958L100.155 123.742L99.9384 125.499L98.1787 125.282L97.9624 127.04L94.443 126.606L94.6594 124.849L92.8997 124.632L93.116 122.875L91.3563 122.659L91.7889 119.144L93.5486 119.361L93.7649 117.603L95.5246 117.82L95.7409 116.063L99.2603 116.496ZM91.3563 122.659L91.14 124.416L92.8997 124.632L92.6834 126.39L94.443 126.606L94.2267 128.364L97.7461 128.797L97.9624 127.04L99.7221 127.256L99.9384 125.499L101.698 125.715L101.914 123.958L103.674 124.175L102.809 131.204L88.7313 129.471L89.5966 122.442L91.3563 122.659Z" fill="#FFC7E4"/>
<path d="M81.1086 111.585L75.8296 110.936L75.1806 116.208L80.4597 116.857L81.1086 111.585ZM65.0551 111.393L73.8535 112.476L73.6372 114.234L64.8388 113.151L63.5409 123.694L77.6184 125.427L78.4837 118.398L80.2434 118.615L79.1618 127.401L61.5649 125.235L63.2954 111.177L65.0551 111.393ZM68.1419 115.341L66.3822 115.125L66.1659 116.882L67.9255 117.098L67.7092 118.856L69.4689 119.072L69.2526 120.83L72.772 121.263L72.9883 119.506L74.748 119.722L74.9643 117.965L73.2046 117.748L72.9883 119.506L69.4689 119.072L69.6852 117.315L67.9255 117.098L68.1419 115.341Z" fill="#FFC7E4"/>
<path d="M205.276 125.978L221.114 127.927L220.032 136.714L218.272 136.497L219.138 129.468L205.06 127.735L203.762 138.279L210.801 139.145L210.585 140.902L201.786 139.819L203.517 125.761L205.276 125.978ZM208.363 129.925L206.603 129.709L206.387 131.466L208.147 131.683L207.93 133.44L209.69 133.657L209.474 135.414L212.993 135.847L213.209 134.09L214.969 134.306L215.186 132.549L216.945 132.766L217.162 131.008L215.402 130.792L215.186 132.549L213.426 132.333L213.209 134.09L209.69 133.657L209.906 131.899L208.147 131.683L208.363 129.925ZM212.561 139.362L214.32 139.578L214.104 141.336L212.344 141.119L212.561 139.362ZM215.864 141.552L215.647 143.31L213.888 143.093L214.104 141.336L215.864 141.552ZM217.84 140.012L216.08 139.795L215.864 141.552L217.623 141.769L217.84 140.012ZM217.84 140.012L218.056 138.254L219.816 138.471L219.599 140.228L217.84 140.012Z" fill="#FFC7E4"/>
<path d="M239.806 128.444L236.287 128.011L236.07 129.768L234.311 129.552L234.094 131.309L232.335 131.092L232.118 132.85L230.359 132.633L230.142 134.39L228.383 134.174L227.085 144.718L244.682 146.884L245.98 136.34L244.22 136.123L244.436 134.366L242.677 134.149L242.893 132.392L241.133 132.175L241.35 130.418L239.59 130.201L239.806 128.444ZM239.59 130.201L239.374 131.959L241.133 132.175L240.917 133.933L242.677 134.149L242.244 137.664L240.484 137.447L240.268 139.205L238.508 138.988L238.292 140.745L234.773 140.312L234.989 138.555L233.229 138.338L233.446 136.581L231.686 136.364L232.118 132.85L233.878 133.066L234.094 131.309L235.854 131.526L236.07 129.768L239.59 130.201ZM231.686 136.364L231.47 138.122L233.229 138.338L233.013 140.095L234.773 140.312L234.556 142.069L238.076 142.503L238.292 140.745L240.052 140.962L240.268 139.205L242.028 139.421L242.244 137.664L244.004 137.88L243.138 144.91L229.061 143.177L229.926 136.148L231.686 136.364Z" fill="#FFC7E4"/>
<path d="M272.36 132.451L267.081 131.802L266.432 137.073L271.711 137.723L272.36 132.451ZM256.307 132.259L265.105 133.342L264.889 135.1L256.09 134.016L254.792 144.56L268.87 146.293L269.735 139.264L271.495 139.481L270.413 148.267L252.816 146.101L254.547 132.043L256.307 132.259ZM259.393 136.207L257.634 135.99L257.417 137.748L259.177 137.964L258.961 139.722L260.72 139.938L260.504 141.696L264.023 142.129L264.24 140.371L265.999 140.588L266.216 138.831L264.456 138.614L264.24 140.371L260.72 139.938L260.937 138.181L259.177 137.964L259.393 136.207Z" fill="#FFC7E4"/>
<path d="M281.822 135.4L297.659 137.349L296.794 144.378L295.034 144.162L295.683 138.89L281.605 137.157L280.308 147.701L287.346 148.567L287.13 150.325L278.332 149.242L280.062 135.183L281.822 135.4ZM284.908 139.348L283.149 139.131L282.932 140.888L284.692 141.105L284.476 142.862L286.236 143.079L286.019 144.836L289.539 145.269L289.755 143.512L291.515 143.729L291.731 141.971L293.491 142.188L293.707 140.431L291.947 140.214L291.731 141.971L289.971 141.755L289.755 143.512L286.236 143.079L286.452 141.322L284.692 141.105L284.908 139.348ZM293.058 145.703L294.818 145.919L294.385 149.434L297.904 149.867L297.688 151.624L295.928 151.408L295.712 153.165L293.952 152.948L293.736 154.706L291.976 154.489L292.409 150.974L288.89 150.541L289.106 148.784L290.866 149.001L291.082 147.243L292.842 147.46L293.058 145.703Z" fill="#FFC7E4"/>
<path d="M307.338 138.541L323.175 140.49L322.093 149.277L320.334 149.06L321.199 142.031L307.122 140.298L305.824 150.842L312.862 151.708L312.646 153.465L303.848 152.382L305.578 138.324L307.338 138.541ZM310.425 142.488L308.665 142.272L308.449 144.029L310.208 144.246L309.992 146.003L311.752 146.22L311.535 147.977L315.055 148.41L315.271 146.653L317.031 146.869L317.247 145.112L319.007 145.329L319.223 143.571L317.463 143.355L317.247 145.112L315.487 144.896L315.271 146.653L311.752 146.22L311.968 144.462L310.208 144.246L310.425 142.488ZM314.622 151.925L316.382 152.141L316.165 153.899L314.406 153.682L314.622 151.925ZM317.925 154.115L317.709 155.873L315.949 155.656L316.165 153.899L317.925 154.115ZM319.901 152.575L318.141 152.358L317.925 154.115L319.685 154.332L319.901 152.575ZM319.901 152.575L320.117 150.817L321.877 151.034L321.661 152.791L319.901 152.575Z" fill="#FFC7E4"/>
<path d="M341.868 141.007L338.348 140.574L338.132 142.331L336.372 142.115L336.156 143.872L334.396 143.655L334.18 145.413L332.42 145.196L332.204 146.953L330.444 146.737L329.146 157.281L346.743 159.447L348.041 148.903L346.282 148.686L346.498 146.929L344.738 146.712L344.954 144.955L343.195 144.738L343.411 142.981L341.651 142.765L341.868 141.007ZM341.651 142.765L341.435 144.522L343.195 144.738L342.978 146.496L344.738 146.712L344.306 150.227L342.546 150.01L342.33 151.768L340.57 151.551L340.354 153.308L336.834 152.875L337.05 151.118L335.291 150.901L335.507 149.144L333.747 148.927L334.18 145.413L335.94 145.629L336.156 143.872L337.916 144.089L338.132 142.331L341.651 142.765ZM333.747 148.927L333.531 150.685L335.291 150.901L335.074 152.659L336.834 152.875L336.618 154.632L340.137 155.066L340.354 153.308L342.113 153.525L342.33 151.768L344.089 151.984L344.306 150.227L346.065 150.444L345.2 157.473L331.122 155.74L331.988 148.711L333.747 148.927Z" fill="#FFC7E4"/>
<path d="M52.4568 133.926L47.1777 133.276L46.5288 138.548L51.8078 139.197L52.4568 133.926ZM36.4032 133.733L45.2017 134.816L44.9854 136.574L36.1869 135.491L34.8891 146.035L48.9666 147.767L49.8318 140.738L51.5915 140.955L50.51 149.741L32.9131 147.575L34.6436 133.517L36.4032 133.733ZM39.49 137.681L37.7303 137.465L37.514 139.222L39.2737 139.439L39.0574 141.196L40.8171 141.412L40.6008 143.17L44.1201 143.603L44.3364 141.846L46.0961 142.062L46.3125 140.305L44.5528 140.088L44.3364 141.846L40.8171 141.412L41.0334 139.655L39.2737 139.439L39.49 137.681Z" fill="#FFC7E4"/>
<path d="M103.379 141.086L98.1001 140.436L97.4511 145.708L102.73 146.358L103.379 141.086ZM87.3256 140.893L96.1241 141.976L95.9077 143.734L87.1093 142.651L85.8114 153.195L99.889 154.927L100.754 147.898L102.514 148.115L101.432 156.901L83.8354 154.735L85.5659 140.677L87.3256 140.893ZM90.4124 144.841L88.6527 144.625L88.4364 146.382L90.1961 146.599L89.9797 148.356L91.7394 148.572L91.5231 150.33L95.0425 150.763L95.2588 149.006L97.0185 149.222L97.2348 147.465L95.4751 147.248L95.2588 149.006L91.7394 148.572L91.9557 146.815L90.1961 146.599L90.4124 144.841Z" fill="#FFC7E4"/>
<path d="M61.9184 136.874L77.7556 138.824L76.8903 145.853L75.1307 145.636L75.7796 140.364L61.7021 138.631L60.4042 149.175L67.443 150.042L67.2267 151.799L58.4282 150.716L60.1587 136.658L61.9184 136.874ZM65.0051 140.822L63.2454 140.605L63.0291 142.363L64.7888 142.579L64.5725 144.337L66.3322 144.553L66.1159 146.311L69.6353 146.744L69.8516 144.986L71.6113 145.203L71.8276 143.446L73.5873 143.662L73.8036 141.905L72.0439 141.688L71.8276 143.446L70.0679 143.229L69.8516 144.986L66.3322 144.553L66.5485 142.796L64.7888 142.579L65.0051 140.822ZM73.1547 147.177L74.9143 147.394L74.4817 150.908L78.0011 151.341L77.7848 153.099L76.0251 152.882L75.8088 154.639L74.0491 154.423L73.8328 156.18L72.0731 155.963L72.5057 152.449L68.9863 152.016L69.2027 150.258L70.9623 150.475L71.1787 148.718L72.9383 148.934L73.1547 147.177Z" fill="#FFC7E4"/>
<path d="M18.0523 246.538L14.5329 246.105L14.3166 247.862L12.5569 247.646L12.3406 249.403L10.5809 249.186L10.3646 250.944L8.6049 250.727L8.38859 252.484L6.6289 252.268L5.33103 262.811L22.9279 264.977L24.2258 254.434L22.4661 254.217L22.6824 252.46L20.9227 252.243L21.139 250.486L19.3794 250.269L19.5957 248.512L17.836 248.295L18.0523 246.538ZM17.836 248.295L17.6197 250.053L19.3794 250.269L19.163 252.027L20.9227 252.243L20.4901 255.758L18.7304 255.541L18.5141 257.298L16.7544 257.082L16.5381 258.839L13.0187 258.406L13.235 256.649L11.4753 256.432L11.6917 254.675L9.93197 254.458L10.3646 250.944L12.1243 251.16L12.3406 249.403L14.1003 249.619L14.3166 247.862L17.836 248.295ZM9.93197 254.458L9.71566 256.215L11.4753 256.432L11.259 258.189L13.0187 258.406L12.8024 260.163L16.3218 260.596L16.5381 258.839L18.2978 259.056L18.5141 257.298L20.2738 257.515L20.4901 255.758L22.2498 255.974L21.3846 263.004L7.30703 261.271L8.17228 254.242L9.93197 254.458Z" fill="#FFC7E4"/>
<path d="M16.7162 184.828L32.5534 186.777L31.4719 195.564L29.7122 195.347L30.5774 188.318L16.4999 186.585L15.2021 197.129L22.2408 197.995L22.0245 199.753L13.2261 198.67L14.9565 184.611L16.7162 184.828ZM19.803 188.776L18.0433 188.559L17.827 190.316L19.5867 190.533L19.3704 192.29L21.1301 192.507L20.9137 194.264L24.4331 194.697L24.6494 192.94L26.4091 193.157L26.6254 191.399L28.3851 191.616L28.6014 189.859L26.8418 189.642L26.6254 191.399L24.8658 191.183L24.6494 192.94L21.1301 192.507L21.3464 190.75L19.5867 190.533L19.803 188.776ZM24.0005 198.212L25.7602 198.429L25.5439 200.186L23.7842 199.969L24.0005 198.212ZM27.3036 200.403L27.0873 202.16L25.3276 201.943L25.5439 200.186L27.3036 200.403ZM29.2796 198.862L27.5199 198.645L27.3036 200.403L29.0633 200.619L29.2796 198.862ZM29.2796 198.862L29.4959 197.105L31.2556 197.321L31.0393 199.078L29.2796 198.862Z" fill="#FFC7E4"/>
<path d="M42.2314 187.969L58.0686 189.918L57.2033 196.947L55.4436 196.731L56.0926 191.459L42.0151 189.726L40.7172 200.27L47.756 201.136L47.5396 202.894L38.7412 201.81L40.4717 187.752L42.2314 187.969ZM45.3181 191.916L43.5584 191.7L43.3421 193.457L45.1018 193.674L44.8855 195.431L46.6452 195.648L46.4289 197.405L49.9483 197.838L50.1646 196.081L51.9243 196.298L52.1406 194.54L53.9003 194.757L54.1166 193L52.3569 192.783L52.1406 194.54L50.3809 194.324L50.1646 196.081L46.6452 195.648L46.8615 193.89L45.1018 193.674L45.3181 191.916ZM53.4676 198.271L55.2273 198.488L54.7947 202.003L58.3141 202.436L58.0978 204.193L56.3381 203.977L56.1218 205.734L54.3621 205.517L54.1458 207.275L52.3861 207.058L52.8187 203.543L49.2993 203.11L49.5156 201.353L51.2753 201.569L51.4916 199.812L53.2513 200.029L53.4676 198.271Z" fill="#FFC7E4"/>
<path d="M67.7465 191.109L83.5837 193.059L82.5022 201.845L80.7425 201.629L81.6077 194.6L67.5302 192.867L66.2323 203.411L73.2711 204.277L73.0548 206.034L64.2563 204.951L65.9868 190.893L67.7465 191.109ZM70.8333 195.057L69.0736 194.841L68.8573 196.598L70.617 196.815L70.4006 198.572L72.1603 198.788L71.944 200.546L75.4634 200.979L75.6797 199.222L77.4394 199.438L77.6557 197.681L79.4154 197.898L79.6317 196.14L77.872 195.924L77.6557 197.681L75.896 197.464L75.6797 199.222L72.1603 198.788L72.3766 197.031L70.617 196.815L70.8333 195.057ZM75.0308 204.494L76.7905 204.71L76.5742 206.467L74.8145 206.251L75.0308 204.494ZM78.3339 206.684L78.1175 208.441L76.3578 208.225L76.5742 206.467L78.3339 206.684ZM80.3099 205.143L78.5502 204.927L78.3339 206.684L80.0935 206.901L80.3099 205.143ZM80.3099 205.143L80.5262 203.386L82.2859 203.603L82.0695 205.36L80.3099 205.143Z" fill="#FFC7E4"/>
<path d="M102.278 193.576L98.7585 193.143L98.5422 194.9L96.7825 194.683L96.5662 196.441L94.8065 196.224L94.5902 197.981L92.8305 197.765L92.6142 199.522L90.8545 199.305L89.5566 209.849L107.154 212.015L108.451 201.471L106.692 201.255L106.908 199.498L105.148 199.281L105.365 197.524L103.605 197.307L103.821 195.55L102.062 195.333L102.278 193.576ZM102.062 195.333L101.845 197.09L103.605 197.307L103.389 199.064L105.148 199.281L104.716 202.796L102.956 202.579L102.74 204.336L100.98 204.12L100.764 205.877L97.2443 205.444L97.4606 203.686L95.7009 203.47L95.9172 201.713L94.1576 201.496L94.5902 197.981L96.3499 198.198L96.5662 196.441L98.3259 196.657L98.5422 194.9L102.062 195.333ZM94.1576 201.496L93.9412 203.253L95.7009 203.47L95.4846 205.227L97.2443 205.444L97.028 207.201L100.547 207.634L100.764 205.877L102.523 206.094L102.74 204.336L104.499 204.553L104.716 202.796L106.475 203.012L105.61 210.041L91.5326 208.309L92.3979 201.279L94.1576 201.496Z" fill="#FFC7E4"/>
<path d="M134.832 197.583L129.553 196.933L128.904 202.205L134.183 202.855L134.832 197.583ZM118.778 197.391L127.577 198.474L127.36 200.231L118.562 199.148L117.264 209.692L131.342 211.425L132.207 204.396L133.967 204.612L132.885 213.399L115.288 211.233L117.019 197.174L118.778 197.391ZM121.865 201.339L120.105 201.122L119.889 202.879L121.649 203.096L121.432 204.853L123.192 205.07L122.976 206.827L126.495 207.26L126.711 205.503L128.471 205.72L128.687 203.962L126.928 203.746L126.711 205.503L123.192 205.07L123.408 203.313L121.649 203.096L121.865 201.339Z" fill="#FFC7E4"/>
<path d="M144.295 200.532L160.132 202.481L159.051 211.268L157.291 211.051L158.156 204.022L144.079 202.289L142.781 212.833L149.819 213.699L149.603 215.457L140.805 214.374L142.535 200.315L144.295 200.532ZM147.382 204.48L145.622 204.263L145.406 206.02L147.165 206.237L146.949 207.994L148.709 208.211L148.492 209.968L152.012 210.401L152.228 208.644L153.988 208.861L154.204 207.103L155.964 207.32L156.18 205.563L154.42 205.346L154.204 207.103L152.444 206.887L152.228 208.644L148.709 208.211L148.925 206.454L147.165 206.237L147.382 204.48ZM151.579 213.916L153.339 214.133L153.123 215.89L151.363 215.673L151.579 213.916ZM154.882 216.107L154.666 217.864L152.906 217.647L153.123 215.89L154.882 216.107ZM156.858 214.566L155.099 214.349L154.882 216.107L156.642 216.323L156.858 214.566ZM156.858 214.566L157.075 212.809L158.834 213.025L158.618 214.782L156.858 214.566Z" fill="#FFC7E4"/>
<path d="M169.81 203.673L185.647 205.622L184.782 212.651L183.022 212.435L183.671 207.163L169.594 205.43L168.296 215.974L175.335 216.84L175.118 218.597L166.32 217.514L168.05 203.456L169.81 203.673ZM172.897 207.62L171.137 207.404L170.921 209.161L172.68 209.378L172.464 211.135L174.224 211.352L174.007 213.109L177.527 213.542L177.743 211.785L179.503 212.001L179.719 210.244L181.479 210.461L181.695 208.703L179.936 208.487L179.719 210.244L177.96 210.028L177.743 211.785L174.224 211.352L174.44 209.594L172.68 209.378L172.897 207.62ZM181.046 213.975L182.806 214.192L182.373 217.707L185.893 218.14L185.676 219.897L183.917 219.681L183.7 221.438L181.941 221.221L181.724 222.979L179.965 222.762L180.397 219.247L176.878 218.814L177.094 217.057L178.854 217.273L179.07 215.516L180.83 215.733L181.046 213.975Z" fill="#FFC7E4"/>
<path d="M63.3422 241.409L79.1794 243.359L78.3142 250.388L76.5545 250.171L77.2034 244.899L63.1259 243.166L61.828 253.71L68.8668 254.577L68.6505 256.334L59.852 255.251L61.5825 241.193L63.3422 241.409ZM66.429 245.357L64.6693 245.14L64.453 246.898L66.2127 247.114L65.9963 248.872L67.756 249.088L67.5397 250.845L71.0591 251.279L71.2754 249.521L73.0351 249.738L73.2514 247.981L75.0111 248.197L75.2274 246.44L73.4677 246.223L73.2514 247.981L71.4917 247.764L71.2754 249.521L67.756 249.088L67.9723 247.331L66.2127 247.114L66.429 245.357ZM74.5785 251.712L76.3382 251.928L75.9056 255.443L79.4249 255.876L79.2086 257.634L77.4489 257.417L77.2326 259.174L75.4729 258.958L75.2566 260.715L73.4969 260.498L73.9296 256.984L70.4102 256.551L70.6265 254.793L72.3862 255.01L72.6025 253.253L74.3622 253.469L74.5785 251.712Z" fill="#FFC7E4"/>
<path d="M88.8573 244.55L104.695 246.499L103.613 255.286L101.853 255.069L102.719 248.04L88.641 246.307L87.3432 256.851L94.3819 257.717L94.1656 259.475L85.3672 258.392L87.0977 244.333L88.8573 244.55ZM91.9441 248.498L90.1844 248.281L89.9681 250.038L91.7278 250.255L91.5115 252.012L93.2712 252.229L93.0549 253.986L96.5742 254.419L96.7906 252.662L98.5502 252.879L98.7666 251.121L100.526 251.338L100.743 249.581L98.9829 249.364L98.7666 251.121L97.0069 250.905L96.7906 252.662L93.2712 252.229L93.4875 250.472L91.7278 250.255L91.9441 248.498ZM96.1416 257.934L97.9013 258.151L97.685 259.908L95.9253 259.691L96.1416 257.934ZM99.4447 260.124L99.2284 261.882L97.4687 261.665L97.685 259.908L99.4447 260.124ZM101.421 258.584L99.661 258.367L99.4447 260.124L101.204 260.341L101.421 258.584ZM101.421 258.584L101.637 256.827L103.397 257.043L103.18 258.8L101.421 258.584Z" fill="#FFC7E4"/>
<path d="M123.387 247.016L119.868 246.583L119.652 248.341L117.892 248.124L117.676 249.881L115.916 249.665L115.7 251.422L113.94 251.205L113.724 252.963L111.964 252.746L110.666 263.29L128.263 265.456L129.561 254.912L127.801 254.695L128.017 252.938L126.258 252.722L126.474 250.964L124.714 250.748L124.931 248.99L123.171 248.774L123.387 247.016ZM123.171 248.774L122.955 250.531L124.714 250.748L124.498 252.505L126.258 252.722L125.825 256.236L124.065 256.02L123.849 257.777L122.089 257.56L121.873 259.318L118.354 258.884L118.57 257.127L116.81 256.91L117.027 255.153L115.267 254.937L115.7 251.422L117.459 251.639L117.676 249.881L119.435 250.098L119.652 248.341L123.171 248.774ZM115.267 254.937L115.051 256.694L116.81 256.91L116.594 258.668L118.354 258.884L118.137 260.642L121.657 261.075L121.873 259.318L123.633 259.534L123.849 257.777L125.609 257.993L125.825 256.236L127.585 256.453L126.72 263.482L112.642 261.749L113.507 254.72L115.267 254.937Z" fill="#FFC7E4"/>
<path d="M40.9638 212.788L56.801 214.737L55.7194 223.524L53.9598 223.307L54.825 216.278L40.7475 214.545L39.4496 225.089L46.4884 225.955L46.2721 227.712L37.4736 226.629L39.2041 212.571L40.9638 212.788ZM44.0506 216.735L42.2909 216.519L42.0745 218.276L43.8342 218.493L43.6179 220.25L45.3776 220.467L45.1613 222.224L48.6807 222.657L48.897 220.9L50.6567 221.116L50.873 219.359L52.6327 219.576L52.849 217.818L51.0893 217.602L50.873 219.359L49.1133 219.143L48.897 220.9L45.3776 220.467L45.5939 218.709L43.8342 218.493L44.0506 216.735ZM48.2481 226.172L50.0078 226.388L49.7914 228.146L48.0318 227.929L48.2481 226.172ZM51.5511 228.362L51.3348 230.12L49.5751 229.903L49.7914 228.146L51.5511 228.362ZM53.5271 226.822L51.7674 226.605L51.5511 228.362L53.3108 228.579L53.5271 226.822ZM53.5271 226.822L53.7434 225.064L55.5031 225.281L55.2868 227.038L53.5271 226.822Z" fill="#FFC7E4"/>
<path d="M75.4937 215.254L71.9743 214.821L71.758 216.578L69.9983 216.362L69.782 218.119L68.0223 217.902L67.806 219.66L66.0463 219.443L65.83 221.2L64.0703 220.984L62.7724 231.527L80.3693 233.694L81.6672 223.15L79.9075 222.933L80.1238 221.176L78.3641 220.959L78.5804 219.202L76.8208 218.985L77.0371 217.228L75.2774 217.011L75.4937 215.254ZM75.2774 217.011L75.0611 218.769L76.8208 218.985L76.6044 220.743L78.3641 220.959L77.9315 224.474L76.1718 224.257L75.9555 226.015L74.1958 225.798L73.9795 227.555L70.4601 227.122L70.6764 225.365L68.9168 225.148L69.1331 223.391L67.3734 223.174L67.806 219.66L69.5657 219.876L69.782 218.119L71.5417 218.335L71.758 216.578L75.2774 217.011ZM67.3734 223.174L67.1571 224.931L68.9168 225.148L68.7004 226.905L70.4601 227.122L70.2438 228.879L73.7632 229.313L73.9795 227.555L75.7392 227.772L75.9555 226.015L77.7152 226.231L77.9315 224.474L79.6912 224.69L78.826 231.72L64.7484 229.987L65.6137 222.958L67.3734 223.174Z" fill="#FFC7E4"/>
<path d="M108.048 219.261L102.769 218.611L102.12 223.883L107.399 224.533L108.048 219.261ZM91.9941 219.069L100.793 220.152L100.576 221.909L91.7778 220.826L90.4799 231.37L104.557 233.103L105.423 226.074L107.182 226.29L106.101 235.077L88.5039 232.911L90.2344 218.853L91.9941 219.069ZM95.0808 223.017L93.3211 222.8L93.1048 224.558L94.8645 224.774L94.6482 226.532L96.4079 226.748L96.1916 228.505L99.711 228.939L99.9273 227.181L101.687 227.398L101.903 225.641L100.144 225.424L99.9273 227.181L96.4079 226.748L96.6242 224.991L94.8645 224.774L95.0808 223.017Z" fill="#FFC7E4"/>
<path d="M117.509 222.21L133.346 224.159L132.481 231.188L130.721 230.972L131.37 225.7L117.293 223.967L115.995 234.511L123.034 235.377L122.817 237.135L114.019 236.052L115.75 221.993L117.509 222.21ZM120.596 226.158L118.836 225.941L118.62 227.698L120.38 227.915L120.163 229.672L121.923 229.889L121.707 231.646L125.226 232.079L125.442 230.322L127.202 230.539L127.418 228.781L129.178 228.998L129.394 227.241L127.635 227.024L127.418 228.781L125.659 228.565L125.442 230.322L121.923 229.889L122.139 228.131L120.38 227.915L120.596 226.158ZM128.745 232.513L130.505 232.729L130.073 236.244L133.592 236.677L133.376 238.434L131.616 238.218L131.4 239.975L129.64 239.758L129.424 241.516L127.664 241.299L128.097 237.784L124.577 237.351L124.793 235.594L126.553 235.811L126.769 234.053L128.529 234.27L128.745 232.513Z" fill="#FFC7E4"/>
<path d="M152.04 224.676L148.521 224.243L148.304 226L146.545 225.784L146.328 227.541L144.569 227.325L144.352 229.082L142.593 228.865L142.376 230.623L140.617 230.406L139.319 240.95L156.916 243.116L158.214 232.572L156.454 232.355L156.67 230.598L154.911 230.381L155.127 228.624L153.367 228.408L153.583 226.65L151.824 226.434L152.04 224.676ZM151.824 226.434L151.607 228.191L153.367 228.408L153.151 230.165L154.911 230.381L154.478 233.896L152.718 233.679L152.502 235.437L150.742 235.22L150.526 236.977L147.007 236.544L147.223 234.787L145.463 234.57L145.679 232.813L143.92 232.596L144.352 229.082L146.112 229.298L146.328 227.541L148.088 227.758L148.304 226L151.824 226.434ZM143.92 232.596L143.703 234.354L145.463 234.57L145.247 236.328L147.007 236.544L146.79 238.302L150.31 238.735L150.526 236.977L152.286 237.194L152.502 235.437L154.262 235.653L154.478 233.896L156.238 234.113L155.372 241.142L141.295 239.409L142.16 232.38L143.92 232.596Z" fill="#FFC7E4"/>
<path d="M168.54 228.491L184.378 230.441L183.296 239.227L181.536 239.011L182.402 231.982L168.324 230.249L167.026 240.792L174.065 241.659L173.849 243.416L165.05 242.333L166.781 228.275L168.54 228.491ZM171.627 232.439L169.868 232.223L169.651 233.98L171.411 234.196L171.195 235.954L172.954 236.17L172.738 237.928L176.257 238.361L176.474 236.604L178.233 236.82L178.45 235.063L180.209 235.28L180.426 233.522L178.666 233.306L178.45 235.063L176.69 234.846L176.474 236.604L172.954 236.17L173.171 234.413L171.411 234.196L171.627 232.439ZM175.825 241.876L177.584 242.092L177.368 243.849L175.608 243.633L175.825 241.876ZM179.128 244.066L178.911 245.823L177.152 245.607L177.368 243.849L179.128 244.066ZM181.104 242.525L179.344 242.309L179.128 244.066L180.887 244.283L181.104 242.525ZM181.104 242.525L181.32 240.768L183.08 240.985L182.863 242.742L181.104 242.525Z" fill="#FFC7E4"/>
<path d="M118.343 92.0858L197.529 101.833L190.639 157.803L182.721 156.828L188.626 108.854L125.277 101.056L119.372 149.031L151.046 152.929L150.062 160.925L157.981 161.9L156.996 169.896L164.915 170.87L166.884 154.879L190.639 157.803L189.655 165.799L173.818 163.849L171.849 179.841L156.012 177.891L156.996 169.896L149.078 168.921L150.062 160.925L110.469 156.052L118.343 92.0858Z" fill="#FF69B8"/>
<path d="M312.513 163.261L214.586 151.207L212.842 165.375L198.853 163.653L193.621 206.158L249.579 213.046L247.835 227.214L205.866 222.048L204.122 236.216L232.101 239.66L230.357 253.828L244.347 255.55L242.603 269.719L326.54 280.051L337.004 195.041L323.015 193.319L324.759 179.151L310.769 177.429L312.513 163.261ZM293.291 204.043L279.302 202.321L281.046 188.153L295.035 189.875L293.291 204.043Z" fill="#FF69B8"/>
</mask>
<g mask="url(#mask0_472_3574)">
<path d="M163.35 314.203C244.985 324.251 319.299 266.309 329.334 184.784C339.369 103.26 281.325 29.0248 199.69 18.9761C118.055 8.92735 43.7409 66.87 33.7059 148.394C23.6708 229.919 81.7143 304.154 163.35 314.203Z" fill="#FFC7E4" fill-opacity="0.75"/>
<path d="M319.905 183.624C310.512 259.929 240.95 314.183 164.51 304.774C88.0702 295.365 33.7421 225.86 43.1347 149.555C52.5273 73.2501 122.089 18.9957 198.529 28.4049C274.969 37.8141 329.298 107.318 319.905 183.624Z" stroke="#FF69B8" stroke-opacity="0.75" stroke-width="19"/>
</g>
</svg>
