<svg width="421" height="288" viewBox="0 0 421 288" fill="none" xmlns="http://www.w3.org/2000/svg">
<path d="M201.099 119.137L210.584 105.766L216.605 110.037L215.551 111.523L211.035 108.319L202.604 120.205L211.635 126.611L215.851 120.669L217.356 121.737L212.087 129.165L200.045 120.622L201.099 119.137ZM206.217 118.301L205.163 119.787L206.668 120.855L207.722 119.369L209.228 120.437L210.281 118.951L211.787 120.019L213.895 117.048L212.389 115.98L213.443 114.494L211.938 113.426L212.992 111.941L211.487 110.873L210.433 112.359L211.938 113.426L210.884 114.912L212.389 115.98L210.281 118.951L208.776 117.883L207.722 119.369L206.217 118.301ZM216.002 114.076L217.056 112.591L220.067 114.726L222.175 111.755L223.68 112.823L222.626 114.308L224.131 115.376L223.077 116.862L224.582 117.93L223.528 119.415L220.518 117.28L218.41 120.251L216.905 119.183L217.959 117.698L216.454 116.63L217.508 115.144L216.002 114.076Z" fill="#E8B6D0"/>
<path d="M345.501 190.076L346.261 192.903L349.088 192.143L348.328 189.316L351.155 188.556L351.915 191.383L356.155 190.242L356.915 193.069L354.088 193.829L354.849 196.656L357.676 195.896L356.915 193.069L359.742 192.309L358.982 189.482L361.809 188.722L363.329 194.376L366.156 193.616L364.636 187.962L367.463 187.201L368.223 190.028L371.05 189.268L371.81 192.095L374.637 191.335L373.877 188.508L371.05 189.268L370.29 186.441L374.53 185.301L372.25 176.82L369.423 177.58L370.943 183.234L353.981 187.795L350.941 176.488L359.421 174.207L358.661 171.38L354.421 172.52L353.661 169.694L350.834 170.454L350.074 167.627L347.247 168.387L348.007 171.214L350.834 170.454L351.594 173.281L347.354 174.421L348.114 177.248L345.287 178.008L344.527 175.181L341.7 175.941L342.46 178.768L345.287 178.008L346.047 180.835L348.874 180.075L350.394 185.729L347.567 186.489L348.328 189.316L345.501 190.076ZM355.941 178.174L357.462 183.828L360.289 183.068L358.768 177.414L355.941 178.174ZM363.116 182.308L362.355 179.481L365.182 178.721L365.942 181.548L363.116 182.308ZM365.836 175.514L365.075 172.687L367.902 171.927L368.662 174.753L365.836 175.514ZM367.142 169.1L369.969 168.339L370.729 171.166L367.902 171.927L367.142 169.1ZM363.555 167.033L364.315 169.86L367.142 169.1L366.382 166.273L363.555 167.033ZM363.555 167.033L360.728 167.793L359.968 164.966L362.795 164.206L363.555 167.033Z" fill="#E8B6D0"/>
<path d="M79.4911 109.111L81.2433 107.344L83.01 109.096L81.2579 110.863L79.4911 109.111ZM90.0186 102.029L88.2664 103.796L90.0332 105.548L86.5289 109.081L84.7621 107.329L83.01 109.096L84.7768 110.848L83.0246 112.615L85.6747 115.243L83.9226 117.01L82.1558 115.258L80.4037 117.024L82.1704 118.777L83.9226 117.01L85.6893 118.762L87.4415 116.995L89.2082 118.747L85.7039 122.281L87.4707 124.033L90.975 120.5L92.7417 122.252L90.9896 124.018L92.7563 125.771L91.0042 127.537L92.7709 129.289L94.5231 127.523L92.7563 125.771L94.5085 124.004L97.1586 126.632L104.167 119.565L102.4 117.813L97.144 123.113L86.5435 112.6L93.5521 105.533L98.8523 110.79L100.604 109.023L97.9544 106.395L99.7065 104.628L97.9397 102.876L99.6919 101.109L97.9251 99.357L96.173 101.124L97.9397 102.876L96.1876 104.643L93.5375 102.014L91.7853 103.781L90.0186 102.029ZM90.0186 102.029L88.2518 100.277L90.004 98.5101L91.7707 100.262L90.0186 102.029ZM90.9458 113.462L94.4501 109.928L96.2168 111.68L92.7125 115.214L90.9458 113.462ZM97.9836 113.433L94.4793 116.966L96.246 118.718L99.7503 115.185L97.9836 113.433ZM105.876 107.242L100.619 112.542L105.919 117.798L111.176 112.498L105.876 107.242Z" fill="#E8B6D0"/>
<path d="M84.8027 172.706L84.8757 170.132L90.0248 170.278L89.9518 172.852L84.8027 172.706ZM100.286 171.857L100.14 177.006L102.715 177.079L102.569 182.228L105.144 182.301L105.071 184.876L110.22 185.022L110.293 182.447L112.867 182.52L113.232 169.648L110.658 169.575L110.731 167L105.582 166.854L105.509 169.429L102.934 169.356L102.861 171.93L100.286 171.857ZM102.861 171.93L105.436 172.003L105.509 169.429L110.658 169.575L110.293 182.447L105.144 182.301L105.29 177.152L107.864 177.225L107.937 174.651L105.363 174.578L105.29 177.152L102.715 177.079L102.861 171.93ZM92.4168 176.787L92.6358 169.064L95.2104 169.137L94.9913 176.86L92.4168 176.787ZM94.9913 176.86L97.5659 176.933L97.4929 179.508L94.9183 179.435L94.9913 176.86ZM97.8579 166.635L97.7849 169.21L95.2104 169.137L95.2834 166.562L97.8579 166.635ZM97.8579 166.635L97.9309 164.061L100.505 164.134L100.432 166.708L97.8579 166.635ZM87.7057 161.194L87.7787 158.619L90.3533 158.692L90.2803 161.267L87.7057 161.194ZM90.2803 161.267L92.8548 161.34L92.7818 163.915L90.2073 163.842L90.2803 161.267ZM87.0487 184.365L87.1217 181.79L89.6962 181.863L89.6232 184.438L87.0487 184.365ZM89.6962 181.863L89.7692 179.289L92.3438 179.362L92.2708 181.936L89.6962 181.863ZM99.4372 156.373L99.2912 161.523L101.866 161.596L102.012 156.446L99.4372 156.373Z" fill="#E8B6D0"/>
<path d="M38.6878 70.9093L45.4401 59.0764L47.8067 60.4269L41.0544 72.2598L38.6878 70.9093ZM42.0705 75.9769L39.7039 74.6264L41.0544 72.2598L43.4209 73.6103L42.0705 75.9769ZM56.27 84.0797L54.9195 86.4463L40.72 78.3435L42.0705 75.9769L56.27 84.0797ZM59.9871 83.0636L58.6366 85.4302L56.27 84.0797L57.6205 81.7131L59.9871 83.0636ZM68.0899 68.8641L59.9871 83.0636L62.3536 84.4141L70.4565 70.2146L68.0899 68.8641ZM67.0738 65.147L69.4404 66.4975L68.0899 68.8641L65.7233 67.5136L67.0738 65.147ZM67.0738 65.147L68.4243 62.7804L56.5913 56.0281L55.2409 58.3947L67.0738 65.147ZM47.4724 66.5105L44.7714 71.2437L47.138 72.5942L45.7875 74.9608L55.2539 80.3627L56.6044 77.9961L58.9709 79.3466L64.3728 69.8802L62.0063 68.5297L63.3567 66.1631L58.6236 63.4622L57.2731 65.8288L62.0063 68.5297L56.6044 77.9961L47.138 72.5942L49.839 67.861L47.4724 66.5105ZM58.2892 69.5458L53.556 66.8449L54.9065 64.4783L52.5399 63.1278L53.8904 60.7612L51.5238 59.4108L54.2247 54.6776L51.8582 53.3271L50.5077 55.6937L48.1411 54.3432L46.7906 56.7098L51.5238 59.4108L50.1733 61.7774L52.5399 63.1278L51.1894 65.4944L53.556 66.8449L50.8551 71.5781L55.5882 74.279L58.2892 69.5458Z" fill="#C65691"/>
<path d="M369.484 106.65L372.667 104.432L377.104 110.796L383.468 106.359L379.031 99.9945L382.213 97.776L386.65 104.14L389.832 101.922L393.16 106.695L396.342 104.477L398.561 107.659L395.379 109.877L397.597 113.059L403.961 108.622L406.18 111.804L399.816 116.241L402.034 119.424L405.216 117.205L407.435 120.387L404.253 122.606L407.58 127.379L388.488 140.69L385.16 135.917L381.978 138.135L379.759 134.953L382.941 132.735L380.723 129.553L374.358 133.99L372.14 130.807L378.504 126.37L376.286 123.188L373.103 125.407L370.885 122.225L374.067 120.006L370.739 115.233L373.921 113.014L369.484 106.65ZM388.869 107.322L376.14 116.197L379.468 120.97L392.196 112.096L388.869 107.322ZM386.46 120.824L381.686 124.152L389.451 135.289L394.224 131.962L386.46 120.824ZM397.407 129.743L402.18 126.415L394.415 115.278L389.642 118.606L397.407 129.743ZM370.885 122.225L367.703 124.443L365.484 121.261L368.666 119.043L370.885 122.225ZM381.978 138.135L384.196 141.318L381.014 143.536L378.795 140.354L381.978 138.135ZM407.435 120.387L410.617 118.169L412.835 121.351L409.653 123.569L407.435 120.387ZM396.342 104.477L394.124 101.294L397.306 99.0758L399.524 102.258L396.342 104.477Z" fill="#E8B6D0"/>
<path d="M217.895 61.9856L218.522 63.9885L214.516 65.2414L215.769 69.2473L219.775 67.9944L220.401 69.9974L216.395 71.2502L217.022 73.2532L214.017 74.1928L214.644 76.1958L212.641 76.8222L212.014 74.8192L210.011 75.4457L211.264 79.4516L209.261 80.078L208.008 76.0721L206.005 76.6985L206.632 78.7015L204.629 79.3279L204.002 77.3249L200.998 78.2646L197.239 66.2468L200.244 65.3072L199.617 63.3042L201.62 62.6778L202.247 64.6808L204.25 64.0543L202.997 60.0484L205 59.422L206.253 63.4279L208.256 62.8015L207.629 60.7985L209.632 60.1721L210.259 62.1751L213.263 61.2354L213.889 63.2384L217.895 61.9856ZM214.392 71.8766L211.887 63.8648L208.882 64.8045L211.388 72.8163L214.392 71.8766ZM207.819 68.4353L206.879 65.4309L199.869 67.6234L200.808 70.6278L207.819 68.4353ZM201.435 72.6307L202.374 75.6352L209.385 73.4427L208.445 70.4383L201.435 72.6307ZM209.632 60.1721L209.006 58.1692L211.009 57.5427L211.635 59.5457L209.632 60.1721ZM199.617 63.3042L197.614 63.9307L196.988 61.9277L198.991 61.3013L199.617 63.3042ZM204.629 79.3279L205.255 81.3308L203.252 81.9573L202.626 79.9543L204.629 79.3279ZM214.644 76.1958L216.647 75.5693L217.273 77.5723L215.27 78.1987L214.644 76.1958Z" fill="#E8B6D0"/>
<path d="M142.871 122.935L128.257 148.299L146.012 158.529L147.474 155.993L132.255 147.224L143.946 126.933L159.165 135.701L153.319 145.847L155.856 147.308L154.394 149.845L156.931 151.306L155.469 153.843L150.396 150.92L146.012 158.529L148.549 159.991L151.471 154.918L156.544 157.841L159.467 152.768L156.931 151.306L158.392 148.77L155.856 147.308L163.163 134.626L142.871 122.935Z" fill="#C65691"/>
<path d="M244.309 72.9016L251.66 70.9316L253.63 78.2834L283.037 70.4038L288.455 90.6212L255.372 99.4858L248.969 75.5925L245.294 76.5774L244.309 72.9016ZM258.063 94.825L283.794 87.9303L280.347 75.0647L254.615 81.9593L258.063 94.825ZM260.032 102.177L265.546 100.699L267.024 106.213L261.51 107.691L260.032 102.177ZM285.764 95.2821L280.25 96.7595L281.727 102.273L287.241 100.796L285.764 95.2821Z" fill="#C67FA4"/>
<path d="M194.065 147.125L191.012 150.383L197.527 156.489L179.207 176.037L182.465 179.09L179.412 182.348L192.443 194.561L195.497 191.303L198.754 194.357L201.808 191.099L208.323 197.206L220.537 184.174L217.279 181.121L223.386 174.605L220.128 171.552L214.021 178.067L210.763 175.014L216.87 168.498L213.612 165.445L207.505 171.961L204.248 168.907L192.034 181.939L198.55 188.045L195.497 191.303L182.465 179.09L200.785 159.543L197.527 156.489L200.581 153.232L194.065 147.125ZM214.226 184.379L208.119 190.894L198.345 181.734L204.452 175.219L214.226 184.379Z" fill="#E8B6D0"/>
<path d="M129.987 97.0143L133.19 99.1574L137.476 92.7498L156.699 105.608L158.842 102.405L162.046 104.548L170.618 91.7326L167.415 89.5895L169.558 86.3858L166.354 84.2427L170.64 77.8351L157.825 69.2628L155.682 72.4665L149.274 68.1804L147.131 71.3841L153.539 75.6703L151.396 78.8741L144.988 74.5879L142.845 77.7917L149.253 82.0779L147.11 85.2816L159.925 93.854L164.211 87.4464L167.415 89.5895L158.842 102.405L139.62 89.5461L137.476 92.7498L134.273 90.6068L129.987 97.0143ZM158.886 74.6096L165.293 78.8958L158.864 88.5071L152.456 84.2209L158.886 74.6096Z" fill="#E8B6D0"/>
<path d="M234.368 143.628L234.037 140.72L245.671 139.397L244.348 127.762L250.165 127.101L250.496 130.009L247.588 130.34L248.911 141.974L240.185 142.967L240.516 145.875L237.607 146.206L237.276 143.298L234.368 143.628ZM243.755 148.453L240.847 148.784L240.516 145.875L243.425 145.545L243.755 148.453ZM246.995 151.031L244.086 151.362L243.755 148.453L246.664 148.122L246.995 151.031ZM250.234 153.609L247.326 153.94L246.995 151.031L249.903 150.7L250.234 153.609ZM260.215 137.742L263.123 137.412L263.454 140.32L266.363 139.989L266.693 142.898L255.059 144.221L256.382 155.856L250.565 156.517L250.234 153.609L253.143 153.278L251.82 141.644L260.545 140.651L260.215 137.742ZM256.975 135.165L259.884 134.834L260.215 137.742L257.306 138.073L256.975 135.165ZM253.736 132.587L256.644 132.256L256.975 135.165L254.066 135.496L253.736 132.587ZM253.736 132.587L253.405 129.678L250.496 130.009L250.827 132.918L253.736 132.587Z" fill="#E8B6D0"/>
<path d="M302.287 131.65L302.7 135.434L314.049 134.193L313.636 130.41L302.287 131.65ZM328.768 128.757L329.181 132.54L340.531 131.3L340.117 127.517L328.768 128.757ZM317.45 112.767L321.233 112.353L322.473 123.702L318.69 124.116L317.45 112.767ZM324.127 138.835L320.344 139.248L321.584 150.597L325.367 150.184L324.127 138.835ZM311.331 126.834L310.918 123.051L314.701 122.638L315.114 126.421L311.331 126.834ZM306.721 119.681L307.135 123.464L310.918 123.051L310.504 119.268L306.721 119.681ZM312.571 138.183L312.984 141.966L316.767 141.553L316.354 137.77L312.571 138.183ZM309.615 146.163L309.201 142.38L312.984 141.966L313.398 145.749L309.615 146.163ZM330.246 124.767L329.833 120.984L333.616 120.571L333.203 116.788L329.419 117.201L329.833 120.984L326.05 121.398L326.463 125.181L330.246 124.767ZM331.9 139.9L328.117 140.313L327.703 136.53L331.486 136.116L331.9 139.9L335.683 139.486L336.096 143.269L332.313 143.683L331.9 139.9Z" fill="#FFA0D2" fill-opacity="0.75"/>
<path d="M130.255 212.56L131.949 218.634L134.967 217.792L135.814 220.829L138.831 219.987L139.679 223.023L148.73 220.498L147.883 217.461L150.9 216.619L150.053 213.582L153.07 212.74L152.223 209.704L155.24 208.862L154.393 205.825L157.41 204.983L156.562 201.946L159.58 201.104L158.732 198.067L155.715 198.909L154.868 195.872L151.851 196.714L151.003 193.677L147.986 194.519L147.139 191.482L144.121 192.324L143.274 189.288L140.257 190.129L139.409 187.093L130.358 189.618L131.205 192.655L128.188 193.497L129.035 196.534L126.018 197.376L127.713 203.449L130.73 202.608L131.577 205.644L134.594 204.802L135.442 207.839L132.424 208.681L133.272 211.718L130.255 212.56ZM133.272 211.718L136.289 210.876L135.442 207.839L138.459 206.997L137.612 203.961L134.594 204.802L133.747 201.766L130.73 202.608L129.035 196.534L132.052 195.692L131.205 192.655L140.257 190.129L141.104 193.166L144.121 192.324L144.969 195.361L147.986 194.519L148.833 197.556L151.851 196.714L152.698 199.751L155.715 198.909L156.562 201.946L153.545 202.788L154.393 205.825L151.375 206.667L152.223 209.704L149.205 210.545L150.053 213.582L147.036 214.424L147.883 217.461L138.831 219.987L137.984 216.95L134.967 217.792L133.272 211.718Z" fill="#C65691"/>
<path d="M37.0284 112.946L33.22 114.688L34.9623 118.496L38.7706 116.754L37.0284 112.946ZM46.3872 113.269L50.1955 111.527L51.9378 115.335L48.1294 117.078L46.3872 113.269ZM40.189 129.921L43.9973 128.179L45.7395 131.987L41.9312 133.729L40.189 129.921ZM24.9558 136.89L28.7641 135.148L30.5063 138.956L26.698 140.698L24.9558 136.89ZM59.2305 121.21L55.4222 122.952L57.1645 126.76L60.9728 125.018L59.2305 121.21ZM23.5374 123.723L27.3457 121.981L29.0879 125.789L25.2796 127.531L23.5374 123.723ZM62.3912 138.185L58.5829 139.928L56.8406 136.119L60.6489 134.377L62.3912 138.185ZM48.9002 148.963L52.7085 147.22L50.9662 143.412L47.1579 145.154L48.9002 148.963ZM39.5413 148.639L35.733 150.381L33.9908 146.573L37.7991 144.83L39.5413 148.639ZM32.8962 124.047L44.3211 118.82L46.0634 122.628L34.6384 127.855L32.8962 124.047ZM39.8652 139.28L36.0569 141.022L30.8301 129.597L34.6384 127.855L39.8652 139.28ZM39.8652 139.28L41.6074 143.088L53.0323 137.861L51.2901 134.053L55.0984 132.311L49.8717 120.886L46.0634 122.628L51.2901 134.053L39.8652 139.28Z" fill="#C67FA4"/>
</svg>
