<svg width="363" height="205" viewBox="0 0 363 205" fill="none" xmlns="http://www.w3.org/2000/svg">
<path d="M66.7476 146.08L67.9089 142.923L80.5354 147.569L85.1808 134.942L91.494 137.265L90.3327 140.422L87.1761 139.26L82.5307 151.887L73.0608 148.403L71.8995 151.559L68.7429 150.398L69.9042 147.241L66.7476 146.08ZM73.8948 155.877L70.7382 154.716L71.8995 151.559L75.0561 152.721L73.8948 155.877ZM75.8901 160.195L72.7335 159.034L73.8948 155.877L77.0514 157.039L75.8901 160.195ZM77.8854 164.513L74.7288 163.352L75.8901 160.195L79.0467 161.357L77.8854 164.513ZM96.3186 153.375L99.4752 154.537L98.3139 157.693L101.471 158.855L100.309 162.011L87.6827 157.366L83.0373 169.993L76.7241 167.67L77.8854 164.513L81.042 165.675L85.6874 153.048L95.1573 156.532L96.3186 153.375ZM94.3233 149.057L97.4799 150.219L96.3186 153.375L93.162 152.214L94.3233 149.057ZM92.328 144.739L95.4846 145.901L94.3233 149.057L91.1667 147.896L92.328 144.739ZM92.328 144.739L93.4893 141.583L90.3327 140.422L89.1714 143.578L92.328 144.739Z" fill="#FFC7E4" fill-opacity="0.9"/>
<path d="M15.6795 124.176L14.8527 127.406L18.0826 128.233L18.9094 125.003L15.6795 124.176ZM20.563 118.543L21.3899 115.313L24.6198 116.14L23.793 119.37L20.563 118.543ZM27.7725 130.713L28.5993 127.483L31.8292 128.31L31.0024 131.54L27.7725 130.713ZM24.4652 143.633L25.292 140.403L28.522 141.23L27.6952 144.46L24.4652 143.633ZM31.9065 114.563L31.0797 117.793L34.3097 118.62L35.1365 115.39L31.9065 114.563ZM15.6022 137.923L16.429 134.693L19.6589 135.519L18.8321 138.749L15.6022 137.923ZM43.9995 121.1L43.1727 124.33L39.9428 123.504L40.7696 120.274L43.9995 121.1ZM43.9223 134.847L44.7491 131.617L41.5191 130.79L40.6923 134.02L43.9223 134.847ZM39.0387 140.48L38.2119 143.71L34.9819 142.883L35.8087 139.653L39.0387 140.48ZM20.4858 132.289L22.9662 122.6L26.1961 123.426L23.7157 133.116L20.4858 132.289ZM33.4056 135.597L32.5788 138.827L22.8889 136.346L23.7157 133.116L33.4056 135.597ZM33.4056 135.597L36.6355 136.423L39.116 126.734L35.886 125.907L36.7128 122.677L27.023 120.196L26.1961 123.426L35.886 125.907L33.4056 135.597Z" fill="#FFC7E4" fill-opacity="0.9"/>
<path d="M60.5859 103.253L59.5855 105.276L65.6526 108.277L66.653 106.254L60.5859 103.253ZM74.7424 110.256L73.7421 112.278L79.8092 115.279L80.8095 113.257L74.7424 110.256ZM74.1881 98.6542L76.2105 99.6546L73.2094 105.722L71.187 104.721L74.1881 98.6542ZM69.208 113.811L67.1857 112.811L64.1846 118.878L66.207 119.878L69.208 113.811ZM66.6421 103.732L67.6425 101.709L69.6649 102.71L68.6645 104.732L66.6421 103.732ZM66.6205 98.6867L65.6201 100.709L67.6425 101.709L68.6428 99.6871L66.6205 98.6867ZM63.6411 109.799L62.6408 111.821L64.6631 112.822L65.6635 110.799L63.6411 109.799ZM59.6181 112.843L60.6184 110.821L62.6408 111.821L61.6404 113.844L59.6181 112.843ZM76.754 108.734L77.7543 106.711L79.7767 107.712L80.777 105.689L78.7547 104.689L77.7543 106.711L75.732 105.711L74.7316 107.733L76.754 108.734ZM72.7526 116.823L70.7302 115.823L71.7306 113.8L73.7529 114.801L72.7526 116.823L74.775 117.823L73.7746 119.846L71.7523 118.845L72.7526 116.823Z" fill="#FFA0D2" fill-opacity="0.75"/>
<path d="M187.482 235.603L183.682 233.265L186.02 229.465L182.22 227.127L184.558 223.327L188.358 225.665L186.02 229.465L189.82 231.803L192.158 228.003L195.958 230.341L198.296 226.541L194.496 224.203L196.834 220.403L193.034 218.065L195.372 214.265L191.572 211.927L193.91 208.127L190.11 205.789L187.772 209.589L183.972 207.251L186.31 203.451L190.11 205.789L192.448 201.989L196.248 204.327L193.91 208.127L201.51 212.803L203.848 209.003L207.648 211.341L209.986 207.541L206.186 205.203L208.524 201.403L212.324 203.742L209.986 207.541L213.786 209.88L211.448 213.679L207.648 211.341L202.972 218.941L206.772 221.279L204.434 225.079L208.234 227.417L210.572 223.617L214.372 225.955L216.71 222.155L220.51 224.494L218.172 228.293L221.972 230.632L219.633 234.431L215.834 232.093L218.172 228.293L214.372 225.955L212.034 229.755L208.234 227.417L205.896 231.217L209.696 233.555L205.019 241.155L197.42 236.479L199.758 232.679L195.958 230.341L193.62 234.141L189.82 231.803L187.482 235.603Z" fill="#FFC7E4" fill-opacity="0.9"/>
<path d="M193.969 152.969L192.764 155.405L200.073 159.02L201.278 156.584L193.969 152.969ZM211.023 161.404L209.817 163.84L217.126 167.455L218.331 165.019L211.023 161.404ZM210.355 147.429L212.791 148.634L209.176 155.942L206.74 154.737L210.355 147.429ZM204.356 165.687L201.92 164.482L198.305 171.79L200.741 172.995L204.356 165.687ZM201.265 153.545L202.47 151.109L204.906 152.314L203.701 154.75L201.265 153.545ZM201.239 147.468L200.034 149.904L202.47 151.109L203.675 148.673L201.239 147.468ZM197.65 160.854L196.445 163.29L198.881 164.495L200.086 162.059L197.65 160.854ZM192.804 164.521L194.009 162.085L196.445 163.29L195.24 165.726L192.804 164.521ZM213.446 159.57L214.651 157.134L217.087 158.339L218.292 155.903L215.856 154.698L214.651 157.134L212.214 155.929L211.009 158.365L213.446 159.57ZM208.626 169.315L206.189 168.11L207.394 165.674L209.831 166.879L208.626 169.315L211.062 170.52L209.857 172.956L207.421 171.751L208.626 169.315Z" fill="#FFA0D2" fill-opacity="0.75"/>
<path d="M225.844 128L229.271 129.695L230.966 126.268L234.393 127.963L236.088 124.536L232.661 122.841L234.356 119.414L230.929 117.719L229.234 121.146L225.807 119.451L224.112 122.878L227.539 124.573L225.844 128ZM208.672 110.975L222.38 117.756L224.075 114.329L220.648 112.634L222.343 109.207L218.916 107.511L217.221 110.938L210.367 107.548L208.672 110.975ZM208.635 102.426L206.94 105.853L210.367 107.548L212.062 104.121L208.635 102.426ZM215.416 88.7177L211.989 87.0225L205.208 100.731L208.635 102.426L215.416 88.7177ZM220.538 86.9858L217.111 85.2906L215.416 88.7177L218.843 90.4129L220.538 86.9858ZM234.246 93.7664L235.941 90.3394L222.233 83.5588L220.538 86.9858L234.246 93.7664ZM235.978 98.8886L237.673 95.4616L234.246 93.7664L232.551 97.1935L235.978 98.8886ZM229.161 104.048L227.465 107.475L230.892 109.17L229.197 112.597L232.624 114.292L239.405 100.584L235.978 98.8886L232.588 105.743L229.161 104.048ZM222.306 100.657L229.161 104.048L230.856 100.621L224.002 97.2302L222.306 100.657ZM222.306 100.657L218.916 107.511L215.489 105.816L218.879 98.9621L222.306 100.657ZM213.684 83.5955L210.257 81.9003L211.952 78.4733L208.525 76.7781L210.22 73.3511L213.647 75.0462L215.342 71.6192L218.769 73.3143L217.074 76.7414L220.501 78.4366L218.806 81.8636L215.379 80.1684L213.684 83.5955Z" fill="#FFC7E4" fill-opacity="0.9"/>
<path d="M164.099 99.8499L167.691 97.3906L170.15 100.983L173.743 98.5234L176.202 102.115L172.61 104.575L170.15 100.983L166.558 103.442L169.018 107.034L165.426 109.493L167.885 113.085L171.477 110.626L173.936 114.218L177.528 111.759L179.988 115.351L183.58 112.891L186.039 116.483L189.631 114.024L187.172 110.432L190.764 107.973L193.223 111.565L189.631 114.024L192.09 117.616L188.498 120.076L186.039 116.483L178.855 121.402L181.314 124.994L177.722 127.453L180.181 131.045L183.773 128.586L186.233 132.178L182.641 134.637L180.181 131.045L176.589 133.505L174.13 129.913L177.722 127.453L172.804 120.269L169.212 122.729L166.752 119.137L163.16 121.596L165.62 125.188L162.027 127.647L164.487 131.239L160.895 133.698L158.435 130.106L154.843 132.566L152.384 128.974L155.976 126.514L158.435 130.106L162.027 127.647L159.568 124.055L163.16 121.596L160.701 118.004L157.109 120.463L152.19 113.279L159.374 108.36L161.834 111.953L165.426 109.493L162.966 105.901L166.558 103.442L164.099 99.8499Z" fill="#FFC7E4" fill-opacity="0.9"/>
<path d="M139.426 169.824L137.731 173.251L148.012 178.336L149.708 174.909L139.426 169.824ZM163.416 181.69L161.721 185.117L172.002 190.202L173.697 186.775L163.416 181.69ZM162.476 162.03L165.903 163.725L160.818 174.006L157.391 172.311L162.476 162.03ZM154.037 187.715L150.61 186.019L145.525 196.301L148.952 197.996L154.037 187.715ZM149.689 170.634L151.384 167.207L154.811 168.903L153.116 172.33L149.689 170.634ZM149.652 162.085L147.957 165.512L151.384 167.207L153.079 163.78L149.652 162.085ZM144.604 180.916L142.909 184.343L146.336 186.038L148.031 182.611L144.604 180.916ZM137.786 186.074L139.481 182.647L142.909 184.343L141.213 187.77L137.786 186.074ZM166.824 179.11L168.52 175.683L171.947 177.378L173.642 173.951L170.215 172.256L168.52 175.683L165.093 173.988L163.397 177.415L166.824 179.11ZM160.044 192.818L156.617 191.123L158.312 187.696L161.739 189.391L160.044 192.818L163.471 194.514L161.776 197.941L158.349 196.245L160.044 192.818Z" fill="#FFC7E4" fill-opacity="0.9"/>
<path d="M256.289 127.639L265.998 115.822L268.952 118.25L259.243 130.066L256.289 127.639ZM257.343 138.401L254.389 135.974L259.243 130.066L262.197 132.493L257.343 138.401ZM257.87 143.783L254.916 141.355L257.343 138.401L260.297 140.829L257.87 143.783ZM260.824 146.21L257.87 143.783L255.442 146.737L258.396 149.164L260.824 146.21ZM266.205 145.683L263.778 148.637L260.824 146.21L263.251 143.256L266.205 145.683ZM274.014 142.202L269.159 148.11L266.205 145.683L271.06 139.775L274.014 142.202ZM283.723 130.386L286.677 132.813L276.968 144.63L274.014 142.202L283.723 130.386ZM285.623 122.051L288.577 124.478L283.723 130.386L280.769 127.959L285.623 122.051ZM285.096 116.669L288.05 119.096L285.623 122.051L282.669 119.623L285.096 116.669ZM282.142 114.242L284.57 111.288L287.524 113.715L285.096 116.669L282.142 114.242ZM276.761 114.769L279.188 111.815L282.142 114.242L279.715 117.196L276.761 114.769ZM276.761 114.769L273.807 112.341L268.952 118.25L271.906 120.677L276.761 114.769ZM263.411 131.016L265.838 128.062L268.792 130.489L266.365 133.443L263.411 131.016ZM271.22 127.535L268.792 130.489L271.746 132.917L269.319 135.871L272.273 138.298L274.7 135.344L271.746 132.917L274.174 129.963L277.128 132.39L279.555 129.436L276.601 127.008L274.174 129.963L271.22 127.535ZM271.22 127.535L268.266 125.108L270.693 122.154L273.647 124.581L271.22 127.535Z" fill="#FF69B8" fill-opacity="0.75"/>
<path d="M89.7419 211.746L92.7435 196.75L96.4925 197.501L93.4909 212.497L89.7419 211.746ZM95.7391 220.745L91.9901 219.995L93.4909 212.497L97.2399 213.247L95.7391 220.745ZM98.7377 225.245L94.9887 224.494L95.7391 220.745L99.4881 221.496L98.7377 225.245ZM102.487 225.995L98.7377 225.245L97.9873 228.994L101.736 229.744L102.487 225.995ZM106.986 222.996L106.236 226.745L102.487 225.995L103.237 222.246L106.986 222.996ZM112.236 216.249L110.735 223.747L106.986 222.996L108.487 215.498L112.236 216.249ZM115.238 201.253L118.987 202.003L115.985 216.999L112.236 216.249L115.238 201.253ZM112.989 193.004L116.738 193.755L115.238 201.253L111.489 200.502L112.989 193.004ZM109.991 188.505L113.74 189.255L112.989 193.004L109.24 192.254L109.991 188.505ZM106.242 187.754L106.992 184.005L110.741 184.756L109.991 188.505L106.242 187.754ZM101.742 190.753L102.493 187.004L106.242 187.754L105.491 191.504L101.742 190.753ZM101.742 190.753L97.9934 190.003L96.4925 197.501L100.242 198.251L101.742 190.753ZM99.8648 209.873L101.366 202.375L108.864 203.876L107.363 211.374L99.8648 209.873Z" fill="#FF69B8" fill-opacity="0.75"/>
<path d="M31.2796 89.61L30.4965 93.1126L32.2365 93.5016L31.8449 95.2529L33.585 95.642L33.1934 97.3933L38.4134 98.5604L38.805 96.8091L40.545 97.1981L40.9365 95.4468L42.6765 95.8358L43.0681 94.0845L44.8081 94.4736L45.1997 92.7223L46.9397 93.1113L47.3313 91.36L49.0713 91.749L49.4628 89.9977L47.7228 89.6087L48.1144 87.8574L46.3744 87.4684L46.7659 85.7171L45.0259 85.328L45.4175 83.5767L43.6775 83.1877L44.0691 81.4364L42.329 81.0473L42.7206 79.296L37.5006 78.1289L37.109 79.8802L35.369 79.4912L34.9775 81.2425L33.2375 80.8534L32.4543 84.3561L34.1943 84.7451L33.8028 86.4964L35.5428 86.8854L35.1512 88.6367L33.4112 88.2477L33.0196 89.999L31.2796 89.61ZM33.0196 89.999L34.7596 90.388L35.1512 88.6367L36.8912 89.0258L37.2828 87.2745L35.5428 86.8854L35.9343 85.1341L34.1943 84.7451L34.9775 81.2425L36.7175 81.6315L37.109 79.8802L42.329 81.0473L41.9375 82.7986L43.6775 83.1877L43.2859 84.939L45.0259 85.328L44.6344 87.0793L46.3744 87.4684L45.9828 89.2197L47.7228 89.6087L47.3313 91.36L45.5912 90.971L45.1997 92.7223L43.4597 92.3332L43.0681 94.0845L41.3281 93.6955L40.9365 95.4468L39.1965 95.0578L38.805 96.8091L33.585 95.642L33.9765 93.8907L32.2365 93.5016L33.0196 89.999Z" fill="#C65691"/>
<path d="M299.722 153.724L296.676 153.547L295.964 165.732L283.779 165.021L283.423 171.114L286.469 171.292L286.647 168.245L298.833 168.957L299.366 159.817L302.413 159.995L302.591 156.949L299.544 156.771L299.722 153.724ZM305.281 163.219L305.459 160.173L302.413 159.995L302.235 163.041L305.281 163.219ZM308.15 166.443L308.328 163.397L305.281 163.219L305.104 166.266L308.15 166.443ZM311.019 169.668L311.196 166.621L308.15 166.443L307.972 169.49L311.019 169.668ZM295.075 180.964L294.898 184.011L297.944 184.189L297.766 187.235L300.813 187.413L301.524 175.227L313.71 175.938L314.065 169.846L311.019 169.668L310.841 172.714L298.655 172.003L298.122 181.142L295.075 180.964ZM292.207 177.74L292.029 180.787L295.075 180.964L295.253 177.918L292.207 177.74ZM289.338 174.516L289.16 177.562L292.207 177.74L292.385 174.694L289.338 174.516ZM289.338 174.516L286.292 174.338L286.469 171.292L289.516 171.47L289.338 174.516Z" fill="#FFC7E4" fill-opacity="0.9"/>
<path d="M347.707 203.217L345.584 203.716L346.082 205.839L348.205 205.34L347.707 203.217ZM352.451 204.343L354.574 203.845L355.073 205.968L352.95 206.466L352.451 204.343ZM347.577 212.208L349.7 211.709L350.199 213.832L348.076 214.331L347.577 212.208ZM339.085 214.202L341.208 213.703L341.707 215.826L339.584 216.325L339.085 214.202ZM358.193 209.716L356.07 210.214L356.568 212.337L358.691 211.839L358.193 209.716ZM339.713 207.334L341.836 206.836L342.334 208.959L340.211 209.457L339.713 207.334ZM358.063 218.706L355.94 219.205L355.442 217.082L357.565 216.583L358.063 218.706ZM350.07 222.823L352.193 222.325L351.694 220.202L349.571 220.7L350.07 222.823ZM345.325 221.697L343.202 222.195L342.704 220.072L344.827 219.574L345.325 221.697ZM344.457 208.46L350.827 206.965L351.325 209.088L344.956 210.583L344.457 208.46ZM346.451 216.952L344.328 217.451L342.833 211.082L344.956 210.583L346.451 216.952ZM346.451 216.952L346.95 219.075L353.319 217.58L352.82 215.457L354.943 214.959L353.448 208.589L351.325 209.088L352.82 215.457L346.451 216.952Z" fill="#FFC7E4" fill-opacity="0.9"/>
<path d="M346.299 181.504L344.382 185.38L342.509 184.454L344.427 180.578L342.554 179.651L337.761 189.342L335.888 188.416L341.64 176.787L347.258 179.566L346.299 181.504ZM343.602 168.108L347.347 169.961L344.471 175.775L342.599 174.849L344.516 170.973L342.644 170.047L334.016 187.489L332.143 186.563L341.73 167.182L343.602 168.108ZM328.398 184.711L330.27 185.637L336.981 172.07L331.363 169.292L328.487 175.106L330.36 176.032L332.277 172.156L334.15 173.082L328.398 184.711Z" fill="#FFC7E4" fill-opacity="0.9"/>
<path d="M306.78 204.941L306.043 206.43L310.51 208.639L311.246 207.15L306.78 204.941ZM317.202 210.096L316.465 211.585L320.932 213.794L321.668 212.305L317.202 210.096ZM316.793 201.555L318.282 202.292L316.073 206.758L314.584 206.022L316.793 201.555ZM313.127 212.713L311.638 211.977L309.429 216.443L310.918 217.18L313.127 212.713ZM311.238 205.293L311.975 203.804L313.464 204.541L312.727 206.03L311.238 205.293ZM311.222 201.579L310.486 203.068L311.975 203.804L312.711 202.316L311.222 201.579ZM309.029 209.76L308.293 211.248L309.781 211.985L310.518 210.496L309.029 209.76ZM306.067 212.001L306.804 210.512L308.293 211.248L307.556 212.737L306.067 212.001ZM318.682 208.975L319.419 207.487L320.908 208.223L321.644 206.734L320.155 205.998L319.419 207.487L317.93 206.75L317.194 208.239L318.682 208.975ZM315.737 214.931L314.248 214.194L314.984 212.705L316.473 213.442L315.737 214.931L317.225 215.667L316.489 217.156L315 216.419L315.737 214.931Z" fill="#FFA0D2" fill-opacity="0.75"/>
<path d="M43.3199 174.297L43.7331 180.72L45.3389 180.617L45.2356 179.011L46.8414 178.908L46.738 177.302L45.1323 177.405L44.9257 174.194L43.3199 174.297ZM46.4281 172.485L44.8224 172.588L44.9257 174.194L46.5314 174.09L46.4281 172.485ZM54.457 171.968L54.3536 170.362L46.3248 170.879L46.4281 172.485L54.457 171.968ZM56.166 173.471L56.0627 171.865L54.457 171.968L54.5603 173.574L56.166 173.471ZM57.8751 174.973L57.7718 173.367L56.166 173.471L56.2693 175.076L57.8751 174.973ZM58.3916 183.002L59.9974 182.899L59.4809 174.87L57.8751 174.973L58.3916 183.002ZM56.8892 184.711L58.495 184.608L58.3916 183.002L56.7859 183.105L56.8892 184.711ZM53.5743 183.312L51.9686 183.415L52.0719 185.021L50.4661 185.124L50.5694 186.73L56.9925 186.317L56.8892 184.711L53.6777 184.918L53.5743 183.312ZM53.2644 178.495L53.5743 183.312L55.1801 183.209L54.8702 178.391L53.2644 178.495ZM51.5553 176.992L51.6587 178.598L53.2644 178.495L53.1611 176.889L51.5553 176.992ZM51.5553 176.992L46.738 177.302L46.6347 175.696L51.452 175.386L51.5553 176.992ZM43.9398 183.932L44.0431 185.537L45.6488 185.434L45.7521 187.04L47.3579 186.937L47.2546 185.331L48.8604 185.228L48.7571 183.622L47.1513 183.725L47.048 182.119L45.4422 182.223L45.5455 183.828L43.9398 183.932Z" fill="#C67FA4"/>
</svg>
