<svg width="618" height="340" viewBox="0 0 618 340" fill="none" xmlns="http://www.w3.org/2000/svg">
<path d="M371.881 329.958L376.534 344.4L372.924 345.564L378.741 363.617L353.466 371.761L341.832 335.655L370.717 326.347L371.881 329.958ZM373.967 361.17L368.15 343.117L371.76 341.953L368.27 331.121L346.606 338.102L355.914 366.987L373.967 361.17Z" fill="#C65691"/>
<path d="M344.031 151.653L355.478 173.684L345.558 178.838L344.286 176.39L351.726 172.524L341.551 152.941L326.671 160.673L331.758 170.465L329.278 171.753L322.919 159.514L342.759 149.205L344.031 151.653ZM341.615 159.126L340.343 156.678L337.863 157.967L339.135 160.414L336.655 161.703L337.927 164.151L335.447 165.44L337.99 170.335L340.47 169.047L341.742 171.495L344.222 170.206L345.494 172.654L347.974 171.365L346.702 168.917L344.222 170.206L342.95 167.758L340.47 169.047L337.927 164.151L340.407 162.862L339.135 160.414L341.615 159.126ZM340.534 175.231L341.806 177.679L336.846 180.256L339.39 185.152L336.91 186.44L335.638 183.993L333.158 185.281L331.886 182.833L329.406 184.122L328.134 181.674L333.094 179.097L330.55 174.201L333.03 172.913L334.302 175.36L336.782 174.072L338.054 176.52L340.534 175.231Z" fill="#E8B6D0"/>
<path d="M148.538 297.078L144.204 296.146L143.272 300.48L147.606 301.413L146.673 305.747L142.339 304.814L140.941 311.316L136.607 310.383L137.539 306.049L133.205 305.117L132.272 309.451L136.607 310.383L135.674 314.717L140.008 315.65L139.076 319.984L130.408 318.119L129.475 322.453L138.144 324.318L137.211 328.652L132.877 327.72L131.945 332.054L127.611 331.122L126.678 335.456L131.013 336.388L131.945 332.054L136.279 332.986L134.88 339.488L147.883 342.285L148.815 337.951L140.147 336.086L145.741 310.081L163.078 313.81L160.281 326.813L164.615 327.745L166.013 321.244L170.347 322.176L171.28 317.842L175.614 318.774L176.546 314.44L172.212 313.508L171.28 317.842L166.946 316.91L168.344 310.408L164.01 309.476L164.942 305.142L169.277 306.074L170.209 301.74L165.875 300.808L164.942 305.142L160.608 304.21L159.676 308.544L151.008 306.679L151.94 302.345L147.606 301.413L148.538 297.078ZM157.345 319.379L148.677 317.514L147.744 321.849L156.413 323.713L157.345 319.379ZM146.812 326.183L151.146 327.115L150.214 331.449L145.88 330.517L146.812 326.183ZM154.082 334.549L158.416 335.481L157.484 339.815L153.149 338.883L154.082 334.549ZM161.818 340.748L160.885 345.082L156.551 344.149L157.484 339.815L161.818 340.748ZM167.084 337.346L162.75 336.413L161.818 340.748L166.152 341.68L167.084 337.346ZM167.084 337.346L168.017 333.012L172.351 333.944L171.418 338.278L167.084 337.346Z" fill="#E8B6D0"/>
<path d="M444.565 16.9946L445.733 20.5775L442.15 21.7449L440.982 18.162L444.565 16.9946ZM446.819 36.0766L445.652 32.4937L442.069 33.6611L439.734 26.4952L443.317 25.3278L442.15 21.7449L438.567 22.9123L437.399 19.3293L432.025 21.0803L430.858 17.4974L434.44 16.3301L433.273 12.7471L429.69 13.9145L430.858 17.4974L427.275 18.6648L428.442 22.2477L424.859 23.415L422.524 16.2492L418.941 17.4165L421.276 24.5824L417.693 25.7498L416.526 22.1668L412.943 23.3342L411.776 19.7512L408.193 20.9186L409.36 24.5015L412.943 23.3342L414.11 26.9171L408.736 28.6681L413.405 42.9999L416.988 41.8325L413.486 31.0837L434.984 24.0796L439.653 38.4114L428.904 41.9134L430.072 45.4963L435.446 43.7453L436.613 47.3283L440.196 46.1609L441.364 49.7438L444.947 48.5765L443.779 44.9935L440.196 46.1609L439.029 42.578L444.403 40.8269L443.236 37.244L446.819 36.0766ZM446.819 36.0766L450.402 34.9093L451.569 38.4922L447.986 39.6596L446.819 36.0766ZM430.777 29.4136L433.111 36.5794L429.528 37.7468L427.194 30.5809L430.777 29.4136ZM425.945 38.9141L423.611 31.7483L420.028 32.9156L422.363 40.0815L425.945 38.9141ZM428.823 53.8296L425.321 43.0808L414.573 46.5828L418.075 57.3316L428.823 53.8296Z" fill="#E8B6D0"/>
<path d="M352.353 -42.0789L355.77 -40.1988L352.01 -33.3637L348.593 -35.2438L352.353 -42.0789ZM342.781 -20.6335L335.946 -24.3936L334.066 -20.976L327.231 -24.7362L325.351 -21.3186L321.933 -23.1987L318.173 -16.3635L321.591 -14.4835L319.71 -11.0659L336.798 -1.66557L338.678 -5.08313L342.096 -3.20307L345.856 -10.0382L342.438 -11.9183L344.319 -15.3358L340.901 -17.2159L342.781 -20.6335ZM340.901 -17.2159L339.021 -13.7983L342.438 -11.9183L338.678 -5.08313L321.591 -14.4835L325.351 -21.3186L332.186 -17.5585L330.306 -14.1409L333.723 -12.2608L335.603 -15.6784L332.186 -17.5585L334.066 -20.976L340.901 -17.2159ZM341.586 -34.6463L351.839 -29.0061L349.959 -25.5885L339.706 -31.2287L341.586 -34.6463ZM339.706 -31.2287L337.826 -27.8112L334.408 -29.6912L336.288 -33.1088L339.706 -31.2287ZM351.496 -20.2909L348.079 -22.171L349.959 -25.5885L353.376 -23.7085L351.496 -20.2909ZM351.496 -20.2909L354.914 -18.4108L353.034 -14.9933L349.616 -16.8733L351.496 -20.2909ZM365.852 -30.201L369.269 -28.321L367.389 -24.9034L363.972 -26.7835L365.852 -30.201ZM363.972 -26.7835L362.092 -23.3659L358.674 -25.246L360.554 -28.6635L363.972 -26.7835ZM335.094 -47.1216L338.511 -45.2416L336.631 -41.824L333.213 -43.7041L335.094 -47.1216ZM336.631 -41.824L340.049 -39.9439L338.169 -36.5264L334.751 -38.4064L336.631 -41.824ZM364.226 -11.0618L357.391 -14.822L355.511 -11.4044L362.346 -7.64428L364.226 -11.0618Z" fill="#E8B6D0"/>
<path d="M514.21 -21.2807L525.477 -3.99579L522.02 -1.74244L510.753 -19.0273L514.21 -21.2807ZM505.043 -20.231L508.5 -22.4843L510.753 -19.0273L507.296 -16.774L505.043 -20.231ZM484.301 -6.71086L482.048 -10.1678L502.79 -23.6879L505.043 -20.231L484.301 -6.71086ZM483.098 -1.00053L480.844 -4.45751L484.301 -6.71086L486.554 -3.25388L483.098 -1.00053ZM496.618 19.7413L483.098 -1.00053L479.641 1.25282L493.161 21.9947L496.618 19.7413ZM502.328 20.945L498.871 23.1983L496.618 19.7413L500.075 17.488L502.328 20.945ZM502.328 20.945L504.581 24.4019L521.866 13.1352L519.613 9.67821L502.328 20.945ZM514.056 -6.40305L509.55 -13.317L506.093 -11.0637L503.839 -14.5206L490.011 -5.50723L492.265 -2.05025L488.808 0.203099L497.821 14.031L501.278 11.7777L503.532 15.2346L510.446 10.7279L508.192 7.27096L501.278 11.7777L492.265 -2.05025L506.093 -11.0637L510.599 -4.1497L514.056 -6.40305ZM502.482 6.06733L509.396 1.56063L511.649 5.01761L515.106 2.76426L517.359 6.22124L520.816 3.96788L525.323 10.8818L528.78 8.62849L526.527 5.17151L529.984 2.91816L527.73 -0.538817L520.816 3.96788L518.563 0.510907L515.106 2.76426L512.853 -0.692721L509.396 1.56063L504.889 -5.35333L497.975 -0.846625L502.482 6.06733Z" fill="#C65691"/>
<path d="M379.212 70.5875L355.158 33.3477L329.09 50.1858L331.495 53.9098L353.839 39.4771L373.083 69.269L350.739 83.7016L341.117 68.8057L337.393 71.2111L334.988 67.4871L331.264 69.8926L328.858 66.1686L336.306 61.3577L329.09 50.1858L325.366 52.5912L330.177 60.0392L322.729 64.8501L327.54 72.298L331.264 69.8926L333.669 73.6166L337.393 71.2111L349.42 89.831L379.212 70.5875Z" fill="#C65691"/>
<path d="M334.104 223.989L343.705 230.368L337.325 239.969L375.727 265.485L358.185 291.886L314.983 263.18L335.715 231.979L330.914 228.789L334.104 223.989ZM322.973 261.57L356.574 283.896L367.738 267.096L334.136 244.769L322.973 261.57ZM316.593 271.17L323.794 275.954L319.01 283.155L311.809 278.371L316.593 271.17ZM350.195 293.497L342.995 288.713L338.211 295.913L345.411 300.697L350.195 293.497Z" fill="#C67FA4"/>
<path d="M311.198 122.809L308.922 116.441L296.187 120.992L282.534 82.7862L276.167 85.0617L273.891 78.694L248.42 87.7959L250.696 94.1635L244.328 96.439L246.604 102.807L233.868 107.358L242.97 132.828L249.338 130.553L253.889 143.288L260.256 141.013L255.706 128.277L262.073 126.002L266.624 138.737L272.992 136.462L268.441 123.726L274.809 121.451L265.707 95.9803L252.971 100.531L250.696 94.1635L276.167 85.0617L289.819 123.268L296.187 120.992L298.462 127.36L311.198 122.809ZM247.062 124.185L242.511 111.45L261.614 104.623L266.165 117.359L247.062 124.185Z" fill="#E8B6D0"/>
<path d="M288.016 179.519L292.163 181.086L285.894 197.674L302.482 203.943L299.347 212.237L295.2 210.67L296.768 206.523L280.18 200.254L284.881 187.813L280.734 186.245L282.302 182.098L286.449 183.666L288.016 179.519ZM275.02 188.825L276.587 184.678L280.734 186.245L279.167 190.392L275.02 188.825ZM269.306 191.405L270.873 187.258L275.02 188.825L273.453 192.972L269.306 191.405ZM263.591 193.985L265.159 189.838L269.306 191.405L267.738 195.552L263.591 193.985ZM278.058 218.409L276.49 222.556L272.343 220.989L270.776 225.136L266.629 223.569L272.898 206.981L256.31 200.712L259.444 192.417L263.591 193.985L262.024 198.132L278.612 204.401L273.911 216.842L278.058 218.409ZM283.772 215.829L282.205 219.976L278.058 218.409L279.625 214.262L283.772 215.829ZM289.486 213.25L287.919 217.397L283.772 215.829L285.339 211.682L289.486 213.25ZM289.486 213.25L293.633 214.817L295.2 210.67L291.053 209.103L289.486 213.25Z" fill="#E8B6D0"/>
<path d="M257.147 279.3L251.765 277.238L245.581 293.385L250.964 295.446L257.147 279.3ZM242.719 316.974L237.336 314.913L231.153 331.059L236.535 333.121L242.719 316.974ZM272.091 312.795L270.03 318.177L253.884 311.993L255.945 306.611L272.091 312.795ZM232.355 303.748L234.416 298.366L218.27 292.182L216.209 297.564L232.355 303.748ZM257.376 294.816L262.758 296.877L260.697 302.26L255.315 300.198L257.376 294.816ZM270.202 293.557L264.82 291.495L262.758 296.877L268.14 298.939L270.202 293.557ZM241.23 288.632L235.848 286.571L233.787 291.953L239.169 294.014L241.23 288.632ZM232.527 279.128L237.909 281.189L235.848 286.571L230.466 284.51L232.527 279.128ZM247.07 321.727L252.452 323.788L250.391 329.17L255.773 331.231L257.834 325.849L252.452 323.788L254.513 318.406L249.131 316.344L247.07 321.727ZM225.542 313.482L227.603 308.099L232.985 310.161L230.924 315.543L225.542 313.482L223.48 318.864L218.098 316.802L220.16 311.42L225.542 313.482Z" fill="#FFA0D2" fill-opacity="0.75"/>
<path d="M267.212 -8.43254L257.858 -10.3529L256.904 -5.70588L252.227 -6.66608L251.273 -2.01902L246.595 -2.97922L243.733 10.962L248.411 11.9222L247.457 16.5692L252.134 17.5294L251.18 22.1765L255.857 23.1367L254.903 27.7837L259.58 28.7439L258.626 33.391L263.304 34.3512L262.35 38.9983L267.027 39.9585L267.981 35.3114L272.658 36.2716L273.612 31.6245L278.289 32.5847L279.243 27.9377L283.921 28.8979L284.875 24.2508L289.552 25.211L290.506 20.564L295.183 21.5242L298.045 7.58298L293.368 6.62278L294.322 1.97572L289.645 1.01552L290.599 -3.63154L281.244 -5.55194L280.29 -0.904881L275.613 -1.86508L274.659 2.78198L269.982 1.82178L270.936 -2.82528L266.258 -3.78548L267.212 -8.43254ZM266.258 -3.78548L265.304 0.861578L269.982 1.82178L269.028 6.46884L273.705 7.42904L274.659 2.78198L279.336 3.74218L280.29 -0.904881L289.645 1.01552L288.691 5.66258L293.368 6.62278L290.506 20.564L285.829 19.6038L284.875 24.2508L280.197 23.2906L279.243 27.9377L274.566 26.9775L273.612 31.6245L268.935 30.6643L267.981 35.3114L263.304 34.3512L264.258 29.7041L259.58 28.7439L260.534 24.0969L255.857 23.1367L256.811 18.4896L252.134 17.5294L253.088 12.8824L248.411 11.9222L251.273 -2.01902L255.95 -1.05882L256.904 -5.70588L266.258 -3.78548Z" fill="#C65691"/>
</svg>
