<svg width="479" height="611" viewBox="0 0 479 611" fill="none" xmlns="http://www.w3.org/2000/svg">
<path d="M345.666 417.371L355.074 427.948L352.43 430.301L364.191 443.523L345.679 459.988L322.158 433.543L343.313 414.726L345.666 417.371ZM359.194 443.231L347.433 430.008L350.078 427.656L343.021 419.723L327.154 433.836L345.972 454.991L359.194 443.231Z" fill="#C65691"/>
<path d="M254.78 275.635L272.844 290.134L266.315 298.268L264.308 296.657L269.205 290.556L253.147 277.668L243.354 289.87L251.383 296.314L249.751 298.347L239.715 290.292L252.772 274.024L254.78 275.635ZM255.53 282.924L253.522 281.313L251.89 283.346L253.897 284.957L252.265 286.991L254.272 288.602L252.64 290.635L256.654 293.857L258.287 291.824L260.294 293.435L261.926 291.401L263.933 293.012L265.565 290.979L263.558 289.368L261.926 291.401L259.919 289.79L258.287 291.824L254.272 288.602L255.904 286.568L253.897 284.957L255.53 282.924ZM260.669 297.079L262.676 298.69L259.411 302.758L263.426 305.98L261.794 308.013L259.786 306.402L258.154 308.436L256.147 306.825L254.515 308.858L252.508 307.247L255.772 303.18L251.758 299.958L253.39 297.925L255.397 299.536L257.029 297.502L259.036 299.113L260.669 297.079Z" fill="#C65691"/>
<path d="M142.625 473.364L138.574 474.2L139.409 478.251L143.46 477.415L144.295 481.466L140.244 482.301L141.497 488.378L137.446 489.213L136.611 485.162L132.56 485.998L133.395 490.049L137.446 489.213L138.282 493.264L142.333 492.429L143.168 496.48L135.066 498.151L135.902 502.202L144.004 500.531L144.839 504.582L140.788 505.417L141.623 509.468L137.572 510.303L138.408 514.354L142.459 513.519L141.623 509.468L145.674 508.633L146.927 514.709L159.08 512.203L158.245 508.152L150.143 509.823L145.131 485.517L161.335 482.176L163.841 494.328L167.892 493.493L166.639 487.417L170.689 486.581L169.854 482.53L173.905 481.695L173.07 477.644L169.019 478.479L169.854 482.53L165.803 483.366L164.55 477.289L160.499 478.125L159.664 474.074L163.715 473.238L162.879 469.187L158.828 470.023L159.664 474.074L155.613 474.909L156.448 478.96L148.346 480.631L147.511 476.58L143.46 477.415L142.625 473.364ZM158.537 489.087L150.435 490.758L151.27 494.809L159.372 493.138L158.537 489.087ZM152.105 498.86L156.156 498.025L156.992 502.076L152.941 502.911L152.105 498.86ZM161.46 503.266L165.511 502.43L166.347 506.481L162.296 507.317L161.46 503.266ZM170.398 505.646L171.233 509.697L167.182 510.532L166.347 506.481L170.398 505.646ZM173.613 500.76L169.562 501.595L170.398 505.646L174.449 504.811L173.613 500.76ZM173.613 500.76L172.778 496.709L176.829 495.873L177.664 499.924L173.613 500.76Z" fill="#E8B6D0"/>
<path d="M289.922 122.838L292.267 125.458L289.647 127.803L287.302 125.184L289.922 122.838ZM299.028 138.28L296.683 135.661L294.063 138.006L289.373 132.767L291.993 130.422L289.647 127.803L287.028 130.148L284.683 127.529L280.754 131.046L278.409 128.427L281.028 126.082L278.683 123.463L276.064 125.808L278.409 128.427L275.789 130.772L278.135 133.391L275.515 135.737L270.825 130.498L268.206 132.843L272.896 138.082L270.277 140.427L267.931 137.808L265.312 140.153L262.967 137.533L260.348 139.878L262.693 142.498L265.312 140.153L267.657 142.772L263.728 146.29L273.109 156.767L275.728 154.422L268.693 146.564L284.409 132.493L293.789 142.971L285.931 150.006L288.276 152.625L292.205 149.108L294.55 151.727L297.17 149.382L299.515 152.001L302.134 149.656L299.789 147.037L297.17 149.382L294.825 146.763L298.754 143.245L296.409 140.625L299.028 138.28ZM299.028 138.28L301.647 135.935L303.992 138.555L301.373 140.9L299.028 138.28ZM282.825 138.63L287.515 143.869L284.896 146.214L280.205 140.975L282.825 138.63ZM282.276 148.559L277.586 143.32L274.967 145.666L279.657 150.904L282.276 148.559ZM290.347 160.209L283.312 152.351L275.454 159.386L282.489 167.245L290.347 160.209Z" fill="#E8B6D0"/>
<path d="M188.967 107.115L192.592 107.434L191.954 114.684L188.329 114.366L188.967 107.115ZM188.867 129.026L181.617 128.388L181.298 132.013L174.048 131.376L173.729 135.001L170.104 134.683L169.467 141.933L173.092 142.252L172.773 145.877L190.899 147.47L191.218 143.845L194.843 144.164L195.48 136.913L191.855 136.595L192.174 132.97L188.548 132.651L188.867 129.026ZM188.548 132.651L188.23 136.276L191.855 136.595L191.218 143.845L173.092 142.252L173.729 135.001L180.979 135.639L180.661 139.264L184.286 139.583L184.605 135.957L180.979 135.639L181.298 132.013L188.548 132.651ZM182.573 117.513L193.448 118.469L193.13 122.094L182.254 121.138L182.573 117.513ZM182.254 121.138L181.935 124.763L178.31 124.444L178.629 120.819L182.254 121.138ZM196.436 126.038L192.811 125.719L193.13 122.094L196.755 122.413L196.436 126.038ZM196.436 126.038L200.061 126.357L199.743 129.982L196.117 129.663L196.436 126.038ZM204.961 112.174L208.586 112.493L208.268 116.118L204.643 115.8L204.961 112.174ZM204.643 115.8L204.324 119.425L200.699 119.106L201.017 115.481L204.643 115.8ZM172.335 109.306L175.96 109.625L175.641 113.25L172.016 112.932L172.335 109.306ZM175.641 113.25L179.266 113.569L178.948 117.194L175.322 116.875L175.641 113.25ZM210.778 129.125L203.527 128.488L203.209 132.113L210.459 132.75L210.778 129.125Z" fill="#E8B6D0"/>
<path d="M334.971 63.9497L351.095 74.465L348.992 77.6899L332.868 67.1745L334.971 63.9497ZM327.54 68.2963L329.643 65.0714L332.868 67.1745L330.765 70.3993L327.54 68.2963ZM314.922 87.6452L311.697 85.5421L324.315 66.1932L327.54 68.2963L314.922 87.6452ZM316.043 92.9731L312.819 90.87L314.922 87.6452L318.147 89.7483L316.043 92.9731ZM335.392 105.592L316.043 92.9731L313.94 96.1979L333.289 108.816L335.392 105.592ZM340.72 104.47L338.617 107.695L335.392 105.592L337.495 102.367L340.72 104.47ZM340.72 104.47L343.945 106.573L354.461 90.4487L351.236 88.3457L340.72 104.47ZM340.439 76.7085L333.99 72.5024L331.887 75.7272L328.662 73.6241L320.25 86.5234L323.474 88.6265L321.371 91.8513L334.271 100.264L336.374 97.0388L339.599 99.1419L343.805 92.6922L340.58 90.5892L336.374 97.0388L323.474 88.6265L331.887 75.7272L338.336 79.9334L340.439 76.7085ZM335.252 91.7109L339.458 85.2613L342.683 87.3643L344.786 84.1395L348.011 86.2426L350.114 83.0178L356.564 87.2239L358.667 83.9991L355.442 81.896L357.545 78.6712L354.32 76.5681L350.114 83.0178L346.889 80.9147L344.786 84.1395L341.561 82.0364L339.458 85.2613L333.008 81.0551L328.802 87.5048L335.252 91.7109Z" fill="#C65691"/>
<path d="M315.922 465.32L295.812 450.777L288.541 460.832L291.893 463.256L289.469 466.608L292.821 469.031L287.973 475.735L284.622 473.311L282.198 476.663L278.846 474.239L271.575 484.294L291.685 498.836L298.956 488.781L295.604 486.358L298.028 483.006L294.677 480.582L299.524 473.879L302.876 476.303L305.299 472.951L308.651 475.375L315.922 465.32ZM305.299 472.951L301.948 470.527L299.524 473.879L292.821 469.031L295.245 465.68L291.893 463.256L296.74 456.553L310.147 466.248L305.299 472.951ZM294.677 480.582L292.253 483.934L295.604 486.358L290.757 493.061L277.35 483.366L282.198 476.663L285.55 479.086L287.973 475.735L294.677 480.582Z" fill="#C65691"/>
<path d="M258.284 514.182L261.147 518.856L251.799 524.581L257.524 533.929L266.872 528.204L269.734 532.878L260.386 538.603L263.249 543.277L256.237 547.571L259.1 552.245L254.426 555.108L251.563 550.434L246.889 553.296L252.614 562.645L247.94 565.507L242.215 556.159L237.541 559.021L240.403 563.695L235.729 566.558L232.866 561.884L225.855 566.178L208.68 538.133L215.691 533.839L212.829 529.165L217.503 526.302L220.366 530.976L225.04 528.114L219.315 518.765L223.989 515.903L229.714 525.251L234.388 522.389L231.526 517.714L236.2 514.852L239.062 519.526L246.073 515.232L248.936 519.907L258.284 514.182ZM255.712 541.466L244.262 522.769L237.251 527.063L248.701 545.76L255.712 541.466ZM236.87 536.937L232.576 529.925L216.217 539.944L220.511 546.955L236.87 536.937ZM223.373 551.63L227.667 558.641L244.026 548.622L239.733 541.611L223.373 551.63ZM236.2 514.852L233.337 510.178L238.011 507.315L240.874 511.989L236.2 514.852ZM212.829 529.165L208.155 532.027L205.292 527.353L209.966 524.49L212.829 529.165ZM235.729 566.558L238.591 571.232L233.917 574.095L231.055 569.42L235.729 566.558ZM259.1 552.245L263.774 549.383L266.637 554.057L261.962 556.92L259.1 552.245Z" fill="#E8B6D0"/>
<path d="M254.302 193.188L219.75 170.451L203.834 194.637L207.289 196.911L220.932 176.18L248.573 194.37L234.931 215.101L221.11 206.006L218.836 209.461L215.381 207.187L213.107 210.642L209.652 208.368L214.2 201.458L203.834 194.637L201.56 198.092L208.471 202.639L203.923 209.55L210.833 214.097L213.107 210.642L216.562 212.916L218.836 209.461L236.112 220.83L254.302 193.188Z" fill="#C65691"/>
<path d="M96.6739 493.945L67.6997 505.117L75.5198 525.399L78.4173 524.282L71.7143 506.897L94.8937 497.96L101.597 515.345L90.0069 519.813L91.1241 522.711L88.2267 523.828L89.3439 526.725L86.4464 527.842L84.2121 522.048L75.5198 525.399L76.637 528.296L82.4319 526.062L84.6662 531.857L90.461 529.623L89.3439 526.725L92.2413 525.608L91.1241 522.711L105.611 517.125L96.6739 493.945Z" fill="#C65691"/>
<path d="M273.531 341.124L284.128 342.956L282.295 353.553L324.683 360.882L319.644 390.024L271.958 381.778L277.913 347.339L272.615 346.422L273.531 341.124ZM278.173 377.396L315.262 383.809L318.468 365.265L281.379 358.852L278.173 377.396ZM276.34 387.993L284.288 389.367L282.914 397.315L274.966 395.941L276.34 387.993ZM313.429 394.406L305.482 393.032L304.108 400.979L312.055 402.354L313.429 394.406Z" fill="#C67FA4"/>
<path d="M215.894 263.369L211.554 258.789L202.395 267.468L176.36 239.99L171.78 244.329L167.441 239.75L149.123 257.107L153.462 261.686L148.882 266.026L153.221 270.605L144.062 279.284L161.419 297.602L165.999 293.263L174.677 302.422L179.257 298.083L170.578 288.924L175.158 284.584L183.836 293.744L188.416 289.404L179.738 280.245L184.317 275.906L166.96 257.588L157.801 266.266L153.462 261.686L171.78 244.329L197.816 271.807L202.395 267.468L206.734 272.047L215.894 263.369ZM161.66 288.683L152.981 279.524L166.72 266.506L175.398 275.666L161.66 288.683Z" fill="#E8B6D0"/>
<path d="M217.448 320.507L221.578 320.284L222.47 336.805L238.991 335.913L239.437 344.173L235.307 344.396L235.084 340.266L218.563 341.158L217.894 328.767L213.764 328.99L213.541 324.86L217.671 324.637L217.448 320.507ZM209.857 333.343L209.634 329.213L213.764 328.99L213.987 333.12L209.857 333.343ZM205.949 337.696L205.726 333.566L209.857 333.343L210.08 337.473L205.949 337.696ZM202.042 342.049L201.819 337.919L205.949 337.696L206.172 341.827L202.042 342.049ZM223.585 357.456L223.808 361.586L219.677 361.809L219.9 365.939L215.77 366.162L214.878 349.641L198.358 350.533L197.912 342.272L202.042 342.049L202.265 346.18L218.786 345.288L219.455 357.679L223.585 357.456ZM227.492 353.103L227.715 357.233L223.585 357.456L223.362 353.325L227.492 353.103ZM231.399 348.749L231.622 352.88L227.492 353.103L227.269 348.972L231.399 348.749ZM231.399 348.749L235.529 348.527L235.307 344.396L231.176 344.619L231.399 348.749Z" fill="#E8B6D0"/>
<path d="M228.652 417.308L223.281 417.574L224.08 433.685L229.45 433.419L228.652 417.308ZM230.514 454.901L225.144 455.167L225.942 471.279L231.312 471.013L230.514 454.901ZM254.016 440.278L254.282 445.648L238.171 446.446L237.905 441.076L254.016 440.278ZM216.689 447.511L216.423 442.14L200.311 442.938L200.578 448.309L216.689 447.511ZM234.687 430.468L240.058 430.202L240.324 435.572L234.954 435.838L234.687 430.468ZM245.162 424.565L239.792 424.831L240.058 430.202L245.428 429.936L245.162 424.565ZM218.576 431.266L213.206 431.532L213.472 436.903L218.842 436.637L218.576 431.266ZM207.569 426.428L212.94 426.162L213.206 431.532L207.835 431.798L207.569 426.428ZM236.018 457.32L241.388 457.054L241.654 462.425L247.025 462.159L246.759 456.788L241.388 457.054L241.122 451.684L235.752 451.95L236.018 457.32ZM214.536 458.385L214.27 453.014L219.64 452.748L219.906 458.118L214.536 458.385L214.802 463.755L209.431 464.021L209.165 458.651L214.536 458.385Z" fill="#FFA0D2" fill-opacity="0.75"/>
<path d="M263.94 229.372L261.734 231.435L267.923 238.052L270.129 235.989L263.94 229.372ZM278.381 244.812L276.175 246.875L282.364 253.492L284.57 251.43L278.381 244.812ZM283.149 230.015L285.212 232.22L278.595 238.409L276.532 236.204L283.149 230.015ZM269.772 246.661L267.709 244.455L261.092 250.644L263.155 252.85L269.772 246.661ZM271.303 232.824L273.509 230.761L275.572 232.966L273.366 235.029L271.303 232.824ZM273.652 226.492L271.446 228.555L273.509 230.761L275.715 228.698L273.652 226.492ZM264.686 239.013L262.48 241.076L264.543 243.281L266.749 241.218L264.686 239.013ZM258.212 240.933L260.417 238.87L262.48 241.076L260.275 243.138L258.212 240.933ZM281.618 243.852L283.824 241.789L285.887 243.995L288.093 241.932L286.03 239.726L283.824 241.789L281.761 239.584L279.555 241.647L281.618 243.852ZM272.795 252.104L270.732 249.898L272.938 247.835L275.001 250.041L272.795 252.104L274.858 254.31L272.652 256.373L270.589 254.167L272.795 252.104Z" fill="#E8B6D0"/>
<path d="M128.947 167.884L120.238 169.766L121.173 174.092L116.818 175.033L117.753 179.359L113.399 180.3L116.203 193.278L120.557 192.338L121.492 196.664L125.846 195.723L126.781 200.049L131.135 199.109L132.07 203.435L136.424 202.494L137.358 206.82L141.713 205.88L142.647 210.206L147.002 209.265L146.067 204.939L150.421 203.998L149.487 199.672L153.841 198.731L152.907 194.405L157.261 193.464L156.326 189.138L160.681 188.197L159.746 183.871L164.1 182.93L161.296 169.952L156.942 170.892L156.007 166.566L151.653 167.507L150.718 163.181L142.01 165.062L142.944 169.388L138.59 170.329L139.525 174.655L135.17 175.596L134.236 171.27L129.881 172.211L128.947 167.884ZM129.881 172.211L130.816 176.537L135.17 175.596L136.105 179.922L140.459 178.982L139.525 174.655L143.879 173.715L142.944 169.388L151.653 167.507L152.588 171.833L156.942 170.892L159.746 183.871L155.392 184.812L156.326 189.138L151.972 190.079L152.907 194.405L148.552 195.346L149.487 199.672L145.133 200.613L146.067 204.939L141.713 205.88L140.778 201.554L136.424 202.494L135.489 198.168L131.135 199.109L130.2 194.782L125.846 195.723L124.911 191.397L120.557 192.338L117.753 179.359L122.107 178.418L121.173 174.092L129.881 172.211Z" fill="#C65691"/>
<path d="M279.655 60.9204L277.517 55.403L272 57.5413L274.138 63.0587L279.655 60.9204ZM278.414 74.0936L280.553 79.611L275.035 81.7493L272.897 76.2318L278.414 74.0936ZM255.447 63.9561L257.586 69.4735L252.068 71.6118L249.93 66.0944L255.447 63.9561ZM246.894 41.8863L249.032 47.4038L243.515 49.5421L241.377 44.0246L246.894 41.8863ZM266.139 91.5432L264 86.0258L258.483 88.1641L260.621 93.6815L266.139 91.5432ZM265.585 40.989L267.723 46.5064L262.206 48.6447L260.067 43.1272L265.585 40.989ZM241.931 94.5789L239.792 89.0615L245.31 86.9232L247.448 92.4406L241.931 94.5789ZM227.86 74.6475L229.998 80.1649L235.516 78.0266L233.378 72.5092L227.86 74.6475ZM229.101 61.4743L226.963 55.9569L232.48 53.8186L234.618 59.336L229.101 61.4743ZM264.344 54.1621L270.759 70.7144L265.241 72.8527L258.826 56.3004L264.344 54.1621ZM242.274 62.7152L240.136 57.1978L256.688 50.7829L258.826 56.3004L242.274 62.7152ZM242.274 62.7152L236.757 64.8535L243.171 81.4058L248.689 79.2675L250.827 84.7849L267.379 78.3701L265.241 72.8527L248.689 79.2675L242.274 62.7152Z" fill="#C67FA4"/>
</svg>
