<svg width="856" height="664" viewBox="0 0 856 664" fill="none" xmlns="http://www.w3.org/2000/svg">
<g clip-path="url(#clip0_216_95)">
<path d="M147.13 9.27417L151.44 10.5151L148.958 19.1361L157.579 21.618L160.061 12.9969L164.372 14.2378L161.89 22.8589L166.2 24.0998L164.339 30.5656L168.65 31.8065L167.409 36.117L163.098 34.8761L161.857 39.1866L170.478 41.6684L169.237 45.979L160.616 43.4972L159.375 47.8077L163.686 49.0486L162.445 53.3591L158.135 52.1182L156.273 58.584L130.41 51.1386L132.271 44.6728L127.961 43.4319L129.202 39.1214L133.512 40.3623L134.753 36.0517L126.132 33.5699L127.373 29.2594L135.994 31.7412L137.235 27.4307L132.924 26.1898L134.165 21.8792L138.476 23.1201L140.337 16.6543L144.648 17.8952L147.13 9.27417ZM160.649 27.1694L143.407 22.2058L141.546 28.6716L158.788 33.6352L160.649 27.1694ZM146.77 34.8435L140.305 32.9821L135.961 48.069L142.427 49.9303L146.77 34.8435ZM146.738 51.1712L153.204 53.0326L157.547 37.9457L151.081 36.0844L146.738 51.1712ZM134.165 21.8792L129.855 20.6383L131.096 16.3278L135.406 17.5687L134.165 21.8792ZM127.961 43.4319L126.72 47.7424L122.409 46.5015L123.65 42.191L127.961 43.4319ZM162.445 53.3591L166.756 54.6L165.515 58.9106L161.204 57.6697L162.445 53.3591ZM168.65 31.8065L169.891 27.4959L174.201 28.7368L172.96 33.0474L168.65 31.8065Z" fill="#FBDFED" fill-opacity="0.85"/>
</g>
<g clip-path="url(#clip1_216_95)">
<path d="M207.992 26.795L203.617 25.5356L201.756 32.0014L195.193 30.1123L193.952 34.4228L200.515 36.3119L198.653 42.7777L203.028 44.0372L204.89 37.5714L211.452 39.4605L212.693 35.15L206.131 33.2608L207.992 26.795ZM233.621 36.5068L218.309 32.0989L217.068 36.4094L228.005 39.558L226.764 43.8685L237.701 47.017L230.256 72.8803L197.444 63.4346L201.787 48.3477L197.412 47.0883L191.828 66.4857L233.39 78.4502L243.317 43.9659L232.38 40.8174L233.621 36.5068ZM214.586 45.0305L223.336 47.5493L222.095 51.8598L226.47 53.1193L223.988 61.7403L219.613 60.4809L218.372 64.7914L209.622 62.2726L210.863 57.9621L219.613 60.4809L222.095 51.8598L213.345 49.341L214.586 45.0305ZM208.97 48.0816L213.345 49.341L210.863 57.9621L206.488 56.7026L208.97 48.0816Z" fill="#FBDFED" fill-opacity="0.85"/>
</g>
<g clip-path="url(#clip2_216_95)">
<path d="M305.163 57.1021L270.164 47.0267L267.682 55.6478L272.057 56.9072L270.816 61.2178L275.191 62.4772L273.95 66.7877L278.325 68.0471L277.084 72.3577L281.459 73.6171L277.736 86.5487L268.986 84.0299L267.745 88.3404L289.62 94.6375L290.86 90.327L282.111 87.8081L285.833 74.8765L290.208 76.136L291.449 71.8254L295.824 73.0849L297.065 68.7743L301.44 70.0337L302.681 65.7232L307.056 66.9826L309.537 58.3616L305.163 57.1021ZM302.681 65.7232L272.057 56.9072L273.298 52.5967L303.922 61.4127L302.681 65.7232Z" fill="#FBDFED" fill-opacity="0.85"/>
</g>
<g clip-path="url(#clip3_216_95)">
<path d="M346.08 68.8815L341.706 67.6221L339.224 76.2431L343.599 77.5026L346.08 68.8815ZM354.83 71.4003L350.455 70.1409L347.973 78.762L352.348 80.0214L354.83 71.4003ZM359.205 72.6598L363.58 73.9192L361.098 82.5403L356.723 81.2808L359.205 72.6598ZM372.982 90.6291L333.608 79.2942L326.163 105.157L356.787 113.973L359.889 103.197L368.639 105.716L372.982 90.6291ZM365.505 100.146L361.13 98.8866L362.991 92.4208L367.366 93.6802L365.505 100.146ZM336.742 84.8642L358.616 91.1613L353.653 108.403L331.778 102.106L336.742 84.8642Z" fill="#FBDFED" fill-opacity="0.85"/>
</g>
<g clip-path="url(#clip4_216_95)">
<path d="M411.681 85.4324L437.93 92.9889L436.689 97.2995L410.44 89.7429L411.681 85.4324ZM404.824 92.794L406.065 88.4835L410.44 89.7429L409.199 94.0534L404.824 92.794ZM397.378 118.657L404.824 92.794L400.449 91.5346L393.004 117.398L397.378 118.657ZM400.512 124.227L401.753 119.917L397.378 118.657L396.138 122.968L400.512 124.227ZM426.762 131.784L425.521 136.094L399.271 128.538L400.512 124.227L426.762 131.784ZM432.377 128.733L431.136 133.043L426.762 131.784L428.003 127.473L432.377 128.733ZM439.823 102.869L444.198 104.129L436.752 129.992L432.377 128.733L439.823 102.869ZM439.823 102.869L441.064 98.5589L436.689 97.2995L435.448 101.61L439.823 102.869ZM420.756 95.0467L425.131 96.3062L423.89 100.617L430.453 102.506L429.212 106.816L416.087 103.038L414.846 107.349L427.971 111.127L424.248 124.058L417.686 122.169L416.445 126.48L412.07 125.22L413.311 120.91L406.749 119.021L407.99 114.71L421.114 118.489L422.355 114.178L409.23 110.4L412.953 97.4681L419.515 99.3573L420.756 95.0467Z" fill="#FBDFED" fill-opacity="0.85"/>
</g>
<g clip-path="url(#clip5_216_95)">
<path d="M483.223 106.028L487.598 107.287L485.116 115.908L493.866 118.427L496.347 109.806L500.722 111.065L498.24 119.686L502.615 120.946L500.754 127.412L505.129 128.671L503.888 132.982L499.513 131.722L498.272 136.033L507.022 138.552L505.781 142.862L497.031 140.343L495.79 144.654L500.165 145.913L498.924 150.224L494.549 148.964L492.688 155.43L466.439 147.874L468.3 141.408L463.925 140.148L465.166 135.838L469.541 137.097L470.782 132.787L462.032 130.268L463.273 125.957L472.023 128.476L473.264 124.166L468.889 122.906L470.13 118.596L474.505 119.855L476.366 113.389L480.741 114.649L483.223 106.028ZM497 123.997L479.5 118.959L477.639 125.425L495.138 130.463L497 123.997ZM482.96 131.625L476.398 129.736L472.055 144.822L478.617 146.712L482.96 131.625ZM482.992 147.971L489.554 149.86L493.897 134.773L487.335 132.884L482.992 147.971ZM470.13 118.596L465.755 117.336L466.996 113.026L471.371 114.285L470.13 118.596ZM463.925 140.148L462.684 144.459L458.31 143.199L459.55 138.889L463.925 140.148ZM498.924 150.224L503.299 151.483L502.058 155.794L497.683 154.534L498.924 150.224ZM505.129 128.671L506.37 124.361L510.745 125.62L509.504 129.931L505.129 128.671Z" fill="#FBDFED" fill-opacity="0.85"/>
</g>
<g clip-path="url(#clip6_216_95)">
<path d="M544.438 123.65L540.128 122.41L538.267 128.875L531.801 127.014L530.56 131.325L537.026 133.186L535.164 139.652L539.475 140.893L541.336 134.427L547.802 136.288L549.043 131.978L542.577 130.116L544.438 123.65ZM569.681 133.251L554.594 128.908L553.353 133.219L564.13 136.321L562.889 140.631L573.665 143.734L566.22 169.597L533.891 160.29L538.234 145.203L533.923 143.962L528.339 163.36L569.289 175.148L579.217 140.664L568.44 137.562L569.681 133.251ZM550.872 141.84L559.493 144.321L558.252 148.632L562.562 149.873L560.08 158.494L555.77 157.253L554.529 161.564L545.908 159.082L547.149 154.771L555.77 157.253L558.252 148.632L549.631 146.15L550.872 141.84ZM545.32 144.909L549.631 146.15L547.149 154.771L542.838 153.53L545.32 144.909Z" fill="#FBDFED" fill-opacity="0.85"/>
</g>
<g clip-path="url(#clip7_216_95)">
<path d="M641.159 153.828L606.675 143.901L604.193 152.522L608.504 153.763L607.263 158.073L611.573 159.314L610.332 163.625L614.643 164.866L613.402 169.176L617.712 170.417L613.99 183.349L605.369 180.867L604.128 185.177L625.68 191.382L626.921 187.071L618.3 184.589L622.023 171.658L626.333 172.899L627.574 168.588L631.885 169.829L633.126 165.519L637.436 166.76L638.677 162.449L642.988 163.69L645.47 155.069L641.159 153.828ZM638.677 162.449L608.504 153.763L609.744 149.452L639.918 158.138L638.677 162.449Z" fill="#FBDFED" fill-opacity="0.85"/>
</g>
<g clip-path="url(#clip8_216_95)">
<path d="M682.463 165.718L678.153 164.477L675.671 173.099L679.981 174.339L682.463 165.718ZM691.084 168.2L686.774 166.959L684.292 175.58L688.602 176.821L691.084 168.2ZM695.395 169.441L699.705 170.682L697.223 179.303L692.913 178.062L695.395 169.441ZM708.914 187.336L670.119 176.168L662.674 202.031L692.848 210.718L695.95 199.941L704.571 202.423L708.914 187.336ZM701.501 196.872L697.191 195.631L699.052 189.165L703.363 190.406L701.501 196.872ZM673.189 181.72L694.742 187.924L689.778 205.166L668.225 198.962L673.189 181.72Z" fill="#FBDFED" fill-opacity="0.85"/>
</g>
<g clip-path="url(#clip9_216_95)">
<path d="M748.095 182.279L773.958 189.724L772.717 194.035L746.854 186.589L748.095 182.279ZM741.303 189.659L742.544 185.348L746.854 186.589L745.613 190.9L741.303 189.659ZM733.857 215.522L741.303 189.659L736.992 188.418L729.547 214.281L733.857 215.522ZM736.927 221.073L738.168 216.763L733.857 215.522L732.617 219.832L736.927 221.073ZM762.79 228.519L761.549 232.829L735.686 225.384L736.927 221.073L762.79 228.519ZM768.342 225.449L767.101 229.76L762.79 228.519L764.031 224.208L768.342 225.449ZM775.787 199.586L780.098 200.827L772.652 226.69L768.342 225.449L775.787 199.586ZM775.787 199.586L777.028 195.275L772.717 194.035L771.477 198.345L775.787 199.586ZM757.01 191.847L761.321 193.088L760.08 197.398L766.546 199.259L765.305 203.57L752.373 199.847L751.132 204.158L764.064 207.88L760.341 220.812L753.875 218.951L752.634 223.261L748.324 222.02L749.565 217.71L743.099 215.848L744.34 211.538L757.271 215.261L758.512 210.95L745.581 207.227L749.303 194.296L755.769 196.157L757.01 191.847Z" fill="#FBDFED" fill-opacity="0.85"/>
</g>
<g clip-path="url(#clip10_216_95)">
<path d="M819.573 202.855L823.883 204.096L821.401 212.717L830.023 215.199L832.504 206.578L836.815 207.819L834.333 216.44L838.644 217.681L836.782 224.147L841.093 225.388L839.852 229.698L835.541 228.457L834.3 232.768L842.921 235.25L841.681 239.56L833.059 237.078L831.819 241.389L836.129 242.63L834.888 246.94L830.578 245.699L828.716 252.165L802.853 244.72L804.714 238.254L800.404 237.013L801.645 232.703L805.955 233.943L807.196 229.633L798.575 227.151L799.816 222.841L808.437 225.322L809.678 221.012L805.368 219.771L806.608 215.46L810.919 216.701L812.78 210.236L817.091 211.476L819.573 202.855ZM833.092 220.751L815.85 215.787L813.989 222.253L831.231 227.216L833.092 220.751ZM819.214 228.425L812.748 226.563L808.405 241.65L814.87 243.512L819.214 228.425ZM819.181 244.752L825.647 246.614L829.99 231.527L823.524 229.666L819.181 244.752ZM806.608 215.46L802.298 214.22L803.539 209.909L807.849 211.15L806.608 215.46ZM800.404 237.013L799.163 241.324L794.853 240.083L796.093 235.772L800.404 237.013ZM834.888 246.94L839.199 248.181L837.958 252.492L833.647 251.251L834.888 246.94ZM841.093 225.388L842.334 221.077L846.644 222.318L845.403 226.629L841.093 225.388Z" fill="#FBDFED" fill-opacity="0.85"/>
</g>
<g clip-path="url(#clip11_216_95)">
<path d="M121.309 74.6443L116.999 73.4034L115.11 79.9657L108.644 78.1043L107.385 82.4792L113.85 84.3405L111.961 90.9028L116.272 92.1437L118.161 85.5814L124.627 87.4428L125.886 83.0679L119.42 81.2066L121.309 74.6443ZM146.543 84.2771L131.456 79.934L130.197 84.3088L140.973 87.4111L139.714 91.786L150.49 94.8882L142.933 121.137L110.604 111.831L115.012 96.5186L110.702 95.2777L105.034 114.965L145.984 126.753L156.06 91.7543L145.283 88.652L146.543 84.2771ZM127.678 93.0586L136.299 95.5404L135.039 99.9152L139.35 101.156L136.831 109.906L132.521 108.665L131.261 113.04L122.64 110.558L123.899 106.183L132.521 108.665L135.039 99.9152L126.418 97.4334L127.678 93.0586ZM122.108 96.1925L126.418 97.4334L123.899 106.183L119.589 104.942L122.108 96.1925Z" fill="#FBDFED" fill-opacity="0.85"/>
</g>
<g clip-path="url(#clip12_216_95)">
<path d="M218.632 105.03L183.633 94.9545L181.114 103.704L185.489 104.964L184.229 109.339L188.604 110.598L187.345 114.973L191.72 116.232L190.46 120.607L194.835 121.867L191.057 134.991L182.307 132.472L181.048 136.847L202.922 143.144L204.181 138.769L195.432 136.251L199.21 123.126L203.585 124.385L204.844 120.011L209.219 121.27L210.479 116.895L214.853 118.154L216.113 113.78L220.488 115.039L223.007 106.289L218.632 105.03ZM216.113 113.78L185.489 104.964L186.748 100.589L217.372 109.405L216.113 113.78Z" fill="#FBDFED" fill-opacity="0.85"/>
</g>
<g clip-path="url(#clip13_216_95)">
<path d="M259.55 116.809L255.175 115.55L252.656 124.3L257.031 125.559L259.55 116.809ZM268.3 119.328L263.925 118.069L261.406 126.818L265.781 128.078L268.3 119.328ZM272.674 120.588L277.049 121.847L274.53 130.597L270.156 129.337L272.674 120.588ZM286.396 138.75L247.022 127.415L239.465 153.664L270.089 162.48L273.238 151.543L281.988 154.062L286.396 138.75ZM278.872 148.428L274.497 147.168L276.386 140.606L280.761 141.865L278.872 148.428ZM250.137 133.049L272.012 139.346L266.974 156.846L245.1 150.549L250.137 133.049Z" fill="#FBDFED" fill-opacity="0.85"/>
</g>
<g clip-path="url(#clip14_216_95)">
<path d="M325.159 133.328L351.408 140.885L350.149 145.259L323.9 137.703L325.159 133.328ZM318.265 140.818L319.525 136.443L323.9 137.703L322.64 142.078L318.265 140.818ZM310.709 167.068L318.265 140.818L313.891 139.559L306.334 165.808L310.709 167.068ZM313.824 172.702L315.084 168.327L310.709 167.068L309.449 171.442L313.824 172.702ZM340.074 180.258L338.814 184.633L312.565 177.077L313.824 172.702L340.074 180.258ZM345.708 177.143L344.448 181.518L340.074 180.258L341.333 175.883L345.708 177.143ZM353.264 150.894L357.639 152.153L350.083 178.402L345.708 177.143L353.264 150.894ZM353.264 150.894L354.524 146.519L350.149 145.259L348.89 149.634L353.264 150.894ZM334.207 143.039L338.582 144.298L337.323 148.673L343.885 150.562L342.626 154.937L329.501 151.159L328.241 155.534L341.366 159.312L337.588 172.437L331.026 170.547L329.766 174.922L325.391 173.663L326.651 169.288L320.088 167.399L321.348 163.024L334.472 166.802L335.732 162.427L322.607 158.649L326.385 145.525L332.948 147.414L334.207 143.039Z" fill="#FBDFED" fill-opacity="0.85"/>
</g>
<g clip-path="url(#clip15_216_95)">
<path d="M396.701 153.923L401.076 155.183L398.557 163.932L407.307 166.451L409.826 157.702L414.201 158.961L411.682 167.711L416.057 168.97L414.168 175.532L418.542 176.792L417.283 181.167L412.908 179.907L411.649 184.282L420.398 186.801L419.139 191.176L410.389 188.657L409.13 193.032L413.505 194.291L412.245 198.666L407.87 197.407L405.981 203.969L379.732 196.413L381.621 189.85L377.246 188.591L378.506 184.216L382.881 185.475L384.14 181.101L375.39 178.582L376.65 174.207L385.399 176.726L386.659 172.351L382.284 171.091L383.543 166.716L387.918 167.976L389.807 161.414L394.182 162.673L396.701 153.923ZM410.422 172.086L392.923 167.048L391.034 173.61L408.533 178.648L410.422 172.086ZM396.337 179.874L389.774 177.985L385.366 193.297L391.929 195.186L396.337 179.874ZM396.303 196.446L402.866 198.335L407.274 183.023L400.711 181.134L396.303 196.446ZM383.543 166.716L379.169 165.457L380.428 161.082L384.803 162.342L383.543 166.716ZM377.246 188.591L375.987 192.966L371.612 191.706L372.871 187.331L377.246 188.591ZM412.245 198.666L416.62 199.926L415.361 204.301L410.986 203.041L412.245 198.666ZM418.542 176.792L419.802 172.417L424.177 173.676L422.917 178.051L418.542 176.792Z" fill="#FBDFED" fill-opacity="0.85"/>
</g>
<g clip-path="url(#clip16_216_95)">
<path d="M457.306 171.37L452.931 170.111L451.042 176.673L444.48 174.784L443.22 179.159L449.782 181.048L447.893 187.61L452.268 188.87L454.157 182.307L460.72 184.196L461.979 179.821L455.417 177.932L457.306 171.37ZM482.925 181.114L467.613 176.706L466.354 181.081L477.291 184.229L476.032 188.604L486.969 191.753L479.412 218.002L446.601 208.556L451.009 193.244L446.634 191.985L440.966 211.672L482.528 223.636L492.603 188.637L481.666 185.489L482.925 181.114ZM463.835 189.831L472.585 192.349L471.325 196.724L475.7 197.984L473.181 206.734L468.806 205.474L467.547 209.849L458.797 207.33L460.057 202.955L468.806 205.474L471.325 196.724L462.576 194.206L463.835 189.831ZM458.201 192.946L462.576 194.206L460.057 202.955L455.682 201.696L458.201 192.946Z" fill="#FBDFED" fill-opacity="0.85"/>
</g>
<g clip-path="url(#clip17_216_95)">
<path d="M554.628 201.756L520.144 191.828L517.625 200.578L521.936 201.819L520.676 206.194L524.987 207.435L523.727 211.81L528.038 213.051L526.779 217.425L531.089 218.666L527.311 231.791L518.69 229.309L517.43 233.684L538.983 239.889L540.242 235.514L531.621 233.032L535.4 219.907L539.71 221.148L540.97 216.773L545.28 218.014L546.54 213.639L550.85 214.88L552.109 210.505L556.42 211.746L558.939 202.997L554.628 201.756ZM552.109 210.505L521.936 201.819L523.195 197.444L553.369 206.131L552.109 210.505Z" fill="#FBDFED" fill-opacity="0.85"/>
</g>
<g clip-path="url(#clip18_216_95)">
<path d="M595.932 213.646L591.622 212.405L589.103 221.155L593.413 222.396L595.932 213.646ZM604.553 216.128L600.243 214.887L597.724 223.637L602.034 224.878L604.553 216.128ZM608.864 217.369L613.174 218.61L610.655 227.359L606.345 226.119L608.864 217.369ZM622.328 235.457L583.533 224.289L575.976 250.538L606.15 259.224L609.299 248.287L617.92 250.769L622.328 235.457ZM614.868 245.153L610.558 243.912L612.447 237.35L616.758 238.591L614.868 245.153ZM586.584 229.905L608.137 236.109L603.099 253.609L581.546 247.404L586.584 229.905Z" fill="#FBDFED" fill-opacity="0.85"/>
</g>
<g clip-path="url(#clip19_216_95)">
<path d="M661.574 230.174L687.437 237.62L686.177 241.994L660.314 234.549L661.574 230.174ZM654.744 237.683L656.004 233.308L660.314 234.549L659.055 238.924L654.744 237.683ZM647.188 263.932L654.744 237.683L650.434 236.442L642.877 262.691L647.188 263.932ZM650.239 269.548L651.498 265.173L647.188 263.932L645.928 268.307L650.239 269.548ZM676.102 276.993L674.843 281.368L648.979 273.923L650.239 269.548L676.102 276.993ZM681.672 273.859L680.413 278.234L676.102 276.993L677.361 272.619L681.672 273.859ZM689.229 247.61L693.539 248.851L685.983 275.1L681.672 273.859L689.229 247.61ZM689.229 247.61L690.488 243.235L686.177 241.994L684.918 246.369L689.229 247.61ZM670.461 239.839L674.771 241.08L673.512 245.454L679.978 247.316L678.718 251.691L665.787 247.968L664.527 252.343L677.459 256.066L673.681 269.19L667.215 267.329L665.955 271.704L661.645 270.463L662.904 266.088L656.439 264.227L657.698 259.852L670.63 263.574L671.889 259.2L658.957 255.477L662.736 242.352L669.201 244.214L670.461 239.839Z" fill="#FBDFED" fill-opacity="0.85"/>
</g>
<g clip-path="url(#clip20_216_95)">
<path d="M733.051 250.751L737.362 251.992L734.843 260.742L743.464 263.223L745.983 254.474L750.293 255.715L747.775 264.464L752.085 265.705L750.196 272.267L754.506 273.508L753.247 277.883L748.936 276.642L747.677 281.017L756.298 283.499L755.039 287.874L746.418 285.392L745.158 289.767L749.469 291.008L748.209 295.383L743.899 294.142L742.01 300.704L716.146 293.259L718.036 286.696L713.725 285.456L714.984 281.081L719.295 282.322L720.554 277.947L711.933 275.465L713.193 271.09L721.814 273.572L723.073 269.197L718.763 267.956L720.022 263.581L724.333 264.822L726.222 258.26L730.532 259.501L733.051 250.751ZM746.515 268.839L729.273 263.876L727.384 270.438L744.626 275.401L746.515 268.839ZM732.59 276.674L726.124 274.813L721.716 290.125L728.182 291.986L732.59 276.674ZM732.493 293.227L738.959 295.088L743.367 279.776L736.901 277.915L732.493 293.227ZM720.022 263.581L715.712 262.34L716.971 257.965L721.282 259.206L720.022 263.581ZM713.725 285.456L712.466 289.83L708.155 288.589L709.415 284.215L713.725 285.456ZM748.209 295.383L752.52 296.624L751.26 300.999L746.95 299.758L748.209 295.383ZM754.506 273.508L755.766 269.134L760.076 270.374L758.817 274.749L754.506 273.508Z" fill="#FBDFED" fill-opacity="0.85"/>
</g>
<g clip-path="url(#clip21_216_95)">
<path d="M793.753 268.225L789.442 266.985L787.553 273.547L781.087 271.685L779.828 276.06L786.294 277.922L784.404 284.484L788.715 285.725L790.604 279.163L797.07 281.024L798.329 276.649L791.864 274.788L793.753 268.225ZM818.986 277.858L803.899 273.515L802.64 277.89L813.416 280.992L812.157 285.367L822.933 288.469L815.377 314.719L783.048 305.412L787.456 290.1L783.145 288.859L777.478 308.546L818.428 320.334L828.503 285.335L817.727 282.233L818.986 277.858ZM800.121 286.64L808.742 289.122L807.483 293.496L811.793 294.737L809.274 303.487L804.964 302.246L803.704 306.621L795.083 304.139L796.343 299.764L804.964 302.246L807.483 293.496L798.862 291.015L800.121 286.64ZM794.551 289.774L798.862 291.015L796.343 299.764L792.032 298.523L794.551 289.774Z" fill="#FBDFED" fill-opacity="0.85"/>
</g>
<g clip-path="url(#clip22_216_95)">
<path d="M131.518 152.685L97.0333 142.758L94.5145 151.508L98.825 152.749L97.5656 157.123L101.876 158.364L100.617 162.739L104.927 163.98L103.668 168.355L107.978 169.596L104.2 182.72L95.579 180.239L94.3196 184.614L115.872 190.818L117.132 186.443L108.511 183.961L112.289 170.837L116.599 172.078L117.859 167.703L122.169 168.944L123.429 164.569L127.739 165.81L128.999 161.435L133.309 162.676L135.828 153.926L131.518 152.685ZM128.999 161.435L98.825 152.749L100.084 148.374L130.258 157.06L128.999 161.435Z" fill="#FBDFED" fill-opacity="0.85"/>
</g>
<g clip-path="url(#clip23_216_95)">
<path d="M173.047 164.64L168.672 163.381L166.153 172.131L170.528 173.39L173.047 164.64ZM181.796 167.159L177.422 165.9L174.903 174.65L179.278 175.909L181.796 167.159ZM186.171 168.419L190.546 169.678L188.027 178.428L183.652 177.168L186.171 168.419ZM199.893 186.581L160.519 175.246L152.962 201.495L183.586 210.311L186.735 199.374L195.485 201.893L199.893 186.581ZM192.369 196.259L187.994 194.999L189.883 188.437L194.258 189.696L192.369 196.259ZM163.634 180.88L185.509 187.178L180.471 204.677L158.596 198.38L163.634 180.88Z" fill="#FBDFED" fill-opacity="0.85"/>
</g>
<g clip-path="url(#clip24_216_95)">
<path d="M238.656 181.159L264.905 188.716L263.646 193.091L237.397 185.534L238.656 181.159ZM231.762 188.65L233.022 184.275L237.397 185.534L236.137 189.909L231.762 188.65ZM224.206 214.899L231.762 188.65L227.388 187.39L219.831 213.639L224.206 214.899ZM227.321 220.533L228.581 216.158L224.206 214.899L222.946 219.274L227.321 220.533ZM253.57 228.09L252.311 232.464L226.062 224.908L227.321 220.533L253.57 228.09ZM259.205 224.974L257.945 229.349L253.57 228.09L254.83 223.715L259.205 224.974ZM266.761 198.725L271.136 199.984L263.58 226.234L259.205 224.974L266.761 198.725ZM266.761 198.725L268.021 194.35L263.646 193.091L262.386 197.466L266.761 198.725ZM247.704 190.87L252.079 192.13L250.82 196.504L257.382 198.394L256.122 202.768L242.998 198.99L241.738 203.365L254.863 207.143L251.085 220.268L244.522 218.379L243.263 222.754L238.888 221.494L240.148 217.119L233.585 215.23L234.845 210.855L247.969 214.634L249.229 210.259L236.104 206.48L239.882 193.356L246.445 195.245L247.704 190.87Z" fill="#FBDFED" fill-opacity="0.85"/>
</g>
<g clip-path="url(#clip25_216_95)">
<path d="M310.198 201.755L314.573 203.014L312.054 211.764L320.804 214.283L323.323 205.533L327.698 206.792L325.179 215.542L329.554 216.801L327.664 223.364L332.039 224.623L330.78 228.998L326.405 227.739L325.146 232.113L333.895 234.632L332.636 239.007L323.886 236.488L322.627 240.863L327.002 242.123L325.742 246.497L321.367 245.238L319.478 251.8L293.229 244.244L295.118 237.681L290.743 236.422L292.003 232.047L296.378 233.307L297.637 228.932L288.887 226.413L290.147 222.038L298.896 224.557L300.156 220.182L295.781 218.923L297.04 214.548L301.415 215.807L303.304 209.245L307.679 210.504L310.198 201.755ZM323.919 219.917L306.42 214.879L304.531 221.441L322.03 226.479L323.919 219.917ZM309.834 227.705L303.271 225.816L298.863 241.128L305.426 243.017L309.834 227.705ZM309.8 244.277L316.363 246.166L320.771 230.854L314.208 228.965L309.8 244.277ZM297.04 214.548L292.665 213.288L293.925 208.913L298.3 210.173L297.04 214.548ZM290.743 236.422L289.484 240.797L285.109 239.537L286.368 235.163L290.743 236.422ZM325.742 246.497L330.117 247.757L328.858 252.132L324.483 250.872L325.742 246.497ZM332.039 224.623L333.299 220.248L337.674 221.508L336.414 225.883L332.039 224.623Z" fill="#FBDFED" fill-opacity="0.85"/>
</g>
<g clip-path="url(#clip26_216_95)">
<path d="M370.803 219.201L366.428 217.942L364.539 224.504L357.977 222.615L356.717 226.99L363.279 228.879L361.39 235.441L365.765 236.701L367.654 230.138L374.217 232.028L375.476 227.653L368.914 225.764L370.803 219.201ZM396.422 228.945L381.11 224.537L379.851 228.912L390.788 232.061L389.529 236.436L400.466 239.584L392.909 265.833L360.098 256.388L364.506 241.076L360.131 239.816L354.463 259.503L396.025 271.468L406.1 236.469L395.163 233.32L396.422 228.945ZM377.332 237.662L386.082 240.181L384.822 244.556L389.197 245.815L386.678 254.565L382.304 253.305L381.044 257.68L372.294 255.161L373.554 250.786L382.304 253.305L384.822 244.556L376.073 242.037L377.332 237.662ZM371.698 240.777L376.073 242.037L373.554 250.786L369.179 249.527L371.698 240.777Z" fill="#FBDFED" fill-opacity="0.85"/>
</g>
<g clip-path="url(#clip27_216_95)">
<path d="M467.964 249.541L432.965 239.465L430.446 248.215L434.821 249.474L433.562 253.849L437.937 255.109L436.677 259.484L441.052 260.743L439.793 265.118L444.168 266.377L440.389 279.502L431.64 276.983L430.38 281.358L452.255 287.655L453.514 283.28L444.764 280.761L448.543 267.637L452.917 268.896L454.177 264.521L458.552 265.781L459.811 261.406L464.186 262.665L465.445 258.29L469.82 259.55L472.339 250.8L467.964 249.541ZM465.445 258.29L434.821 249.474L436.081 245.099L466.705 253.915L465.445 258.29Z" fill="#FBDFED" fill-opacity="0.85"/>
</g>
<g clip-path="url(#clip28_216_95)">
<path d="M509.429 261.477L505.119 260.236L502.6 268.986L506.91 270.227L509.429 261.477ZM518.05 263.959L513.74 262.718L511.221 271.468L515.531 272.709L518.05 263.959ZM522.361 265.2L526.671 266.441L524.152 275.191L519.842 273.95L522.361 265.2ZM535.825 283.288L497.03 272.12L489.473 298.369L519.647 307.056L522.796 296.119L531.417 298.6L535.825 283.288ZM528.366 292.985L524.055 291.744L525.944 285.181L530.255 286.422L528.366 292.985ZM500.081 277.736L521.634 283.94L516.596 301.44L495.043 295.235L500.081 277.736Z" fill="#FBDFED" fill-opacity="0.85"/>
</g>
<g clip-path="url(#clip29_216_95)">
<path d="M575.071 278.005L600.934 285.451L599.674 289.826L573.811 282.38L575.071 278.005ZM568.241 285.514L569.501 281.139L573.811 282.38L572.552 286.755L568.241 285.514ZM560.685 311.763L568.241 285.514L563.931 284.273L556.374 310.522L560.685 311.763ZM563.736 317.379L564.995 313.004L560.685 311.763L559.425 316.138L563.736 317.379ZM589.599 324.825L588.339 329.199L562.476 321.754L563.736 317.379L589.599 324.825ZM595.169 321.691L593.909 326.066L589.599 324.825L590.858 320.45L595.169 321.691ZM602.725 295.441L607.036 296.682L599.479 322.932L595.169 321.691L602.725 295.441ZM602.725 295.441L603.985 291.067L599.674 289.826L598.415 294.201L602.725 295.441ZM583.958 287.67L588.268 288.911L587.009 293.286L593.475 295.147L592.215 299.522L579.284 295.799L578.024 300.174L590.956 303.897L587.178 317.021L580.712 315.16L579.452 319.535L575.142 318.294L576.401 313.919L569.935 312.058L571.195 307.683L584.126 311.406L585.386 307.031L572.454 303.308L576.232 290.183L582.698 292.045L583.958 287.67Z" fill="#FBDFED" fill-opacity="0.85"/>
</g>
<g clip-path="url(#clip30_216_95)">
<path d="M646.548 298.582L650.859 299.823L648.34 308.573L656.961 311.055L659.48 302.305L663.79 303.546L661.272 312.296L665.582 313.536L663.693 320.099L668.004 321.34L666.744 325.714L662.434 324.474L661.174 328.848L669.795 331.33L668.536 335.705L659.915 333.223L658.655 337.598L662.966 338.839L661.706 343.214L657.396 341.973L655.507 348.535L629.644 341.09L631.533 334.528L627.222 333.287L628.482 328.912L632.792 330.153L634.051 325.778L625.43 323.296L626.69 318.921L635.311 321.403L636.57 317.028L632.26 315.787L633.519 311.412L637.83 312.653L639.719 306.091L644.029 307.332L646.548 298.582ZM660.012 316.67L642.77 311.707L640.881 318.269L658.123 323.233L660.012 316.67ZM646.087 324.505L639.621 322.644L635.213 337.956L641.679 339.817L646.087 324.505ZM645.99 341.058L652.456 342.92L656.864 327.608L650.398 325.746L645.99 341.058ZM633.519 311.412L629.209 310.171L630.468 305.797L634.779 307.038L633.519 311.412ZM627.222 333.287L625.963 337.662L621.652 336.421L622.912 332.046L627.222 333.287ZM661.706 343.214L666.017 344.455L664.757 348.83L660.447 347.589L661.706 343.214ZM668.004 321.34L669.263 316.965L673.573 318.206L672.314 322.581L668.004 321.34Z" fill="#FBDFED" fill-opacity="0.85"/>
</g>
<g clip-path="url(#clip31_216_95)">
<path d="M707.249 316.057L702.939 314.816L701.05 321.378L694.584 319.517L693.325 323.892L699.79 325.753L697.901 332.315L702.212 333.556L704.101 326.994L710.567 328.855L711.826 324.48L705.36 322.619L707.249 316.057ZM732.483 325.69L717.396 321.346L716.137 325.721L726.913 328.824L725.654 333.198L736.43 336.301L728.873 362.55L696.544 353.243L700.952 337.931L696.642 336.69L690.974 356.377L731.924 368.166L742 333.167L731.224 330.064L732.483 325.69ZM713.618 334.471L722.239 336.953L720.979 341.328L725.29 342.569L722.771 351.318L718.461 350.077L717.201 354.452L708.58 351.97L709.84 347.596L718.461 350.077L720.979 341.328L712.358 338.846L713.618 334.471ZM708.048 337.605L712.358 338.846L709.84 347.596L705.529 346.355L708.048 337.605Z" fill="#FBDFED" fill-opacity="0.85"/>
</g>
<g clip-path="url(#clip32_216_95)">
<path d="M803.961 346.266L769.477 336.339L766.958 345.089L771.268 346.33L770.009 350.705L774.319 351.946L773.06 356.32L777.37 357.561L776.111 361.936L780.422 363.177L776.643 376.302L768.022 373.82L766.763 378.195L788.315 384.399L789.575 380.024L780.954 377.543L784.732 364.418L789.043 365.659L790.302 361.284L794.613 362.525L795.872 358.15L800.183 359.391L801.442 355.016L805.753 356.257L808.271 347.507L803.961 346.266ZM801.442 355.016L771.268 346.33L772.528 341.955L802.701 350.641L801.442 355.016Z" fill="#FBDFED" fill-opacity="0.85"/>
</g>
<g clip-path="url(#clip33_216_95)">
<path d="M86.3185 212.407L82.0079 211.166L79.4891 219.916L83.7996 221.157L86.3185 212.407ZM94.9395 214.889L90.629 213.648L88.1101 222.398L92.4207 223.638L94.9395 214.889ZM99.2501 216.13L103.561 217.37L101.042 226.12L96.7312 224.879L99.2501 216.13ZM112.714 234.218L73.9191 223.05L66.3626 249.299L96.5363 257.985L99.6849 247.048L108.306 249.53L112.714 234.218ZM105.255 243.914L100.944 242.673L102.833 236.111L107.144 237.352L105.255 243.914ZM76.9702 228.665L98.5229 234.87L93.4852 252.369L71.9325 246.165L76.9702 228.665Z" fill="#FBDFED" fill-opacity="0.85"/>
</g>
<g clip-path="url(#clip34_216_95)">
<path d="M152.153 228.99L178.402 236.547L177.143 240.922L150.894 233.365L152.153 228.99ZM145.259 236.481L146.519 232.106L150.894 233.365L149.634 237.74L145.259 236.481ZM137.703 262.73L145.259 236.481L140.884 235.221L133.328 261.471L137.703 262.73ZM140.818 268.364L142.078 263.989L137.703 262.73L136.443 267.105L140.818 268.364ZM167.067 275.921L165.808 280.296L139.559 272.739L140.818 268.364L167.067 275.921ZM172.702 272.805L171.442 277.18L167.067 275.921L168.327 271.546L172.702 272.805ZM180.258 246.556L184.633 247.816L177.077 274.065L172.702 272.805L180.258 246.556ZM180.258 246.556L181.518 242.181L177.143 240.922L175.883 245.297L180.258 246.556ZM161.201 238.701L165.576 239.961L164.317 244.336L170.879 246.225L169.619 250.6L156.495 246.821L155.235 251.196L168.36 254.974L164.582 268.099L158.019 266.21L156.76 270.585L152.385 269.325L153.645 264.951L147.082 263.061L148.342 258.686L161.466 262.465L162.726 258.09L149.601 254.312L153.379 241.187L159.942 243.076L161.201 238.701Z" fill="#FBDFED" fill-opacity="0.85"/>
</g>
<g clip-path="url(#clip35_216_95)">
<path d="M223.695 249.586L228.07 250.845L225.551 259.595L234.301 262.114L236.82 253.364L241.195 254.623L238.676 263.373L243.051 264.633L241.161 271.195L245.536 272.454L244.277 276.829L239.902 275.57L238.643 279.945L247.392 282.463L246.133 286.838L237.383 284.32L236.124 288.694L240.499 289.954L239.239 294.329L234.864 293.069L232.975 299.632L206.726 292.075L208.615 285.513L204.24 284.253L205.5 279.878L209.874 281.138L211.134 276.763L202.384 274.244L203.644 269.869L212.393 272.388L213.653 268.013L209.278 266.754L210.537 262.379L214.912 263.638L216.801 257.076L221.176 258.335L223.695 249.586ZM237.416 267.748L219.917 262.71L218.028 269.273L235.527 274.31L237.416 267.748ZM223.331 275.537L216.768 273.648L212.36 288.96L218.923 290.849L223.331 275.537ZM223.297 292.108L229.86 293.997L234.268 278.685L227.705 276.796L223.297 292.108ZM210.537 262.379L206.162 261.119L207.422 256.745L211.797 258.004L210.537 262.379ZM204.24 284.253L202.981 288.628L198.606 287.369L199.865 282.994L204.24 284.253ZM239.239 294.329L243.614 295.588L242.355 299.963L237.98 298.704L239.239 294.329ZM245.536 272.454L246.796 268.079L251.171 269.339L249.911 273.714L245.536 272.454Z" fill="#FBDFED" fill-opacity="0.85"/>
</g>
<g clip-path="url(#clip36_216_95)">
<path d="M284.3 267.032L279.925 265.773L278.036 272.335L271.474 270.446L270.214 274.821L276.776 276.71L274.887 283.273L279.262 284.532L281.151 277.97L287.714 279.859L288.973 275.484L282.411 273.595L284.3 267.032ZM309.919 276.776L294.607 272.368L293.348 276.743L304.285 279.892L303.026 284.267L313.963 287.415L306.406 313.665L273.595 304.219L278.003 288.907L273.628 287.647L267.96 307.334L309.522 319.299L319.597 284.3L308.66 281.151L309.919 276.776ZM290.829 285.493L299.579 288.012L298.319 292.387L302.694 293.646L300.175 302.396L295.8 301.137L294.541 305.511L285.791 302.993L287.051 298.618L295.8 301.137L298.319 292.387L289.57 289.868L290.829 285.493ZM285.195 288.609L289.57 289.868L287.051 298.618L282.676 297.358L285.195 288.609Z" fill="#FBDFED" fill-opacity="0.85"/>
</g>
<g clip-path="url(#clip37_216_95)">
<path d="M381.461 297.372L346.462 287.296L343.944 296.046L348.318 297.306L347.059 301.68L351.434 302.94L350.174 307.315L354.549 308.574L353.29 312.949L357.665 314.208L353.886 327.333L345.137 324.814L343.877 329.189L365.752 335.486L367.011 331.111L358.261 328.592L362.04 315.468L366.414 316.727L367.674 312.352L372.049 313.612L373.308 309.237L377.683 310.496L378.943 306.122L383.317 307.381L385.836 298.631L381.461 297.372ZM378.943 306.122L348.318 297.306L349.578 292.931L380.202 301.747L378.943 306.122Z" fill="#FBDFED" fill-opacity="0.85"/>
</g>
<g clip-path="url(#clip38_216_95)">
<path d="M422.379 309.151L418.004 307.892L415.486 316.641L419.86 317.901L422.379 309.151ZM431.129 311.67L426.754 310.411L424.235 319.16L428.61 320.42L431.129 311.67ZM435.504 312.929L439.879 314.189L437.36 322.939L432.985 321.679L435.504 312.929ZM449.225 331.092L409.851 319.757L402.295 346.006L432.919 354.822L436.067 343.885L444.817 346.404L449.225 331.092ZM441.702 340.769L437.327 339.51L439.216 332.948L443.591 334.207L441.702 340.769ZM412.967 325.391L434.841 331.688L429.803 349.188L407.929 342.891L412.967 325.391Z" fill="#FBDFED" fill-opacity="0.85"/>
</g>
<g clip-path="url(#clip39_216_95)">
<path d="M488.568 325.837L514.431 333.282L513.171 337.657L487.308 330.211L488.568 325.837ZM481.738 333.345L482.998 328.971L487.308 330.211L486.049 334.586L481.738 333.345ZM474.182 359.595L481.738 333.345L477.428 332.105L469.871 358.354L474.182 359.595ZM477.233 365.21L478.492 360.836L474.182 359.595L472.922 363.97L477.233 365.21ZM503.096 372.656L501.837 377.031L475.973 369.585L477.233 365.21L503.096 372.656ZM508.666 369.522L507.406 373.897L503.096 372.656L504.355 368.281L508.666 369.522ZM516.222 343.273L520.533 344.514L512.976 370.763L508.666 369.522L516.222 343.273ZM516.222 343.273L517.482 338.898L513.171 337.657L511.912 342.032L516.222 343.273ZM497.455 335.501L501.765 336.742L500.506 341.117L506.972 342.978L505.712 347.353L492.781 343.63L491.521 348.005L504.453 351.728L500.675 364.853L494.209 362.991L492.949 367.366L488.639 366.125L489.898 361.75L483.432 359.889L484.692 355.514L497.623 359.237L498.883 354.862L485.951 351.139L489.73 338.015L496.195 339.876L497.455 335.501Z" fill="#FBDFED" fill-opacity="0.85"/>
</g>
<g clip-path="url(#clip40_216_95)">
<path d="M560.045 346.413L564.356 347.654L561.837 356.404L570.458 358.886L572.977 350.136L577.287 351.377L574.768 360.127L579.079 361.368L577.19 367.93L581.5 369.171L580.241 373.546L575.93 372.305L574.671 376.68L583.292 379.161L582.033 383.536L573.412 381.055L572.152 385.429L576.463 386.67L575.203 391.045L570.893 389.804L569.004 396.367L543.14 388.921L545.029 382.359L540.719 381.118L541.978 376.743L546.289 377.984L547.548 373.609L538.927 371.127L540.187 366.752L548.808 369.234L550.067 364.859L545.757 363.618L547.016 359.244L551.327 360.485L553.216 353.922L557.526 355.163L560.045 346.413ZM573.509 364.502L556.267 359.538L554.378 366.1L571.62 371.064L573.509 364.502ZM559.584 372.337L553.118 370.475L548.71 385.787L555.176 387.649L559.584 372.337ZM559.487 388.889L565.952 390.751L570.36 375.439L563.895 373.577L559.487 388.889ZM547.016 359.244L542.706 358.003L543.965 353.628L548.275 354.869L547.016 359.244ZM540.719 381.118L539.46 385.493L535.149 384.252L536.408 379.877L540.719 381.118ZM575.203 391.045L579.514 392.286L578.254 396.661L573.944 395.42L575.203 391.045ZM581.5 369.171L582.76 364.796L587.07 366.037L585.811 370.412L581.5 369.171Z" fill="#FBDFED" fill-opacity="0.85"/>
</g>
<g clip-path="url(#clip41_216_95)">
<path d="M620.747 363.888L616.436 362.647L614.547 369.209L608.081 367.348L606.822 371.723L613.287 373.584L611.398 380.146L615.709 381.387L617.598 374.825L624.064 376.686L625.323 372.312L618.857 370.45L620.747 363.888ZM645.98 373.521L630.893 369.178L629.634 373.552L640.41 376.655L639.151 381.03L649.927 384.132L642.37 410.381L610.041 401.074L614.449 385.762L610.139 384.521L604.471 404.208L645.422 415.997L655.497 380.998L644.721 377.896L645.98 373.521ZM627.115 382.302L635.736 384.784L634.477 389.159L638.787 390.4L636.268 399.15L631.958 397.909L630.698 402.284L622.077 399.802L623.337 395.427L631.958 397.909L634.477 389.159L625.855 386.677L627.115 382.302ZM621.545 385.436L625.855 386.677L623.337 395.427L619.026 394.186L621.545 385.436Z" fill="#FBDFED" fill-opacity="0.85"/>
</g>
<g clip-path="url(#clip42_216_95)">
<path d="M717.458 394.098L682.974 384.17L680.455 392.92L684.765 394.161L683.506 398.536L687.816 399.777L686.557 404.152L690.868 405.393L689.608 409.767L693.919 411.008L690.14 424.133L681.519 421.651L680.26 426.026L701.813 432.231L703.072 427.856L694.451 425.374L698.229 412.249L702.54 413.49L703.799 409.115L708.11 410.356L709.369 405.981L713.68 407.222L714.939 402.847L719.25 404.088L721.768 395.338L717.458 394.098ZM714.939 402.847L684.765 394.161L686.025 389.786L716.198 398.472L714.939 402.847Z" fill="#FBDFED" fill-opacity="0.85"/>
</g>
<g clip-path="url(#clip43_216_95)">
<path d="M758.762 405.988L754.451 404.747L751.932 413.497L756.243 414.738L758.762 405.988ZM767.383 408.47L763.072 407.229L760.553 415.979L764.864 417.22L767.383 408.47ZM771.693 409.711L776.004 410.952L773.485 419.701L769.174 418.46L771.693 409.711ZM785.157 427.799L746.362 416.631L738.806 442.88L768.98 451.566L772.128 440.629L780.749 443.111L785.157 427.799ZM777.698 437.495L773.388 436.254L775.277 429.692L779.587 430.933L777.698 437.495ZM749.413 422.247L770.966 428.451L765.928 445.951L744.376 439.746L749.413 422.247Z" fill="#FBDFED" fill-opacity="0.85"/>
</g>
<g clip-path="url(#clip44_216_95)">
<path d="M65.457 276.766L91.3202 284.211L90.0608 288.586L64.1976 281.141L65.457 276.766ZM58.6276 284.275L59.887 279.9L64.1976 281.141L62.9382 285.516L58.6276 284.275ZM51.0711 310.524L58.6276 284.275L54.3171 283.034L46.7605 309.283L51.0711 310.524ZM54.1222 316.14L55.3816 311.765L51.0711 310.524L49.8116 314.899L54.1222 316.14ZM79.9854 323.585L78.7259 327.96L52.8627 320.515L54.1222 316.14L79.9854 323.585ZM85.5553 320.451L84.2959 324.826L79.9854 323.585L81.2448 319.21L85.5553 320.451ZM93.1119 294.202L97.4224 295.443L89.8659 321.692L85.5553 320.451L93.1119 294.202ZM93.1119 294.202L94.3713 289.827L90.0608 288.586L88.8014 292.961L93.1119 294.202ZM74.3442 286.431L78.6547 287.672L77.3953 292.046L83.8611 293.908L82.6017 298.283L69.6701 294.56L68.4107 298.935L81.3423 302.658L77.564 315.782L71.0982 313.921L69.8387 318.296L65.5282 317.055L66.7876 312.68L60.3218 310.818L61.5813 306.444L74.5129 310.166L75.7723 305.791L62.8407 302.069L66.619 288.944L73.0848 290.806L74.3442 286.431Z" fill="#FBDFED" fill-opacity="0.85"/>
</g>
<g clip-path="url(#clip45_216_95)">
<path d="M137.192 297.417L141.567 298.676L139.048 307.426L147.798 309.945L150.317 301.195L154.691 302.455L152.173 311.204L156.547 312.464L154.658 319.026L159.033 320.286L157.774 324.66L153.399 323.401L152.14 327.776L160.889 330.295L159.63 334.67L150.88 332.151L149.621 336.526L153.996 337.785L152.736 342.16L148.361 340.9L146.472 347.463L120.223 339.906L122.112 333.344L117.737 332.084L118.997 327.71L123.371 328.969L124.631 324.594L115.881 322.075L117.141 317.7L125.89 320.219L127.15 315.844L122.775 314.585L124.034 310.21L128.409 311.47L130.298 304.907L134.673 306.167L137.192 297.417ZM150.913 315.579L133.414 310.542L131.525 317.104L149.024 322.142L150.913 315.579ZM136.827 323.368L130.265 321.479L125.857 336.791L132.419 338.68L136.827 323.368ZM136.794 339.939L143.357 341.828L147.765 326.516L141.202 324.627L136.794 339.939ZM124.034 310.21L119.659 308.951L120.919 304.576L125.294 305.835L124.034 310.21ZM117.737 332.084L116.478 336.459L112.103 335.2L113.362 330.825L117.737 332.084ZM152.736 342.16L157.111 343.419L155.852 347.794L151.477 346.535L152.736 342.16ZM159.033 320.286L160.293 315.911L164.668 317.17L163.408 321.545L159.033 320.286Z" fill="#FBDFED" fill-opacity="0.85"/>
</g>
<g clip-path="url(#clip46_216_95)">
<path d="M197.797 314.864L193.422 313.604L191.533 320.167L184.971 318.277L183.711 322.652L190.273 324.541L188.384 331.104L192.759 332.363L194.648 325.801L201.211 327.69L202.47 323.315L195.908 321.426L197.797 314.864ZM223.416 324.608L208.104 320.2L206.845 324.575L217.782 327.723L216.523 332.098L227.46 335.247L219.903 361.496L187.092 352.05L191.5 336.738L187.125 335.479L181.457 355.166L223.019 367.13L233.094 332.131L222.157 328.983L223.416 324.608ZM204.326 333.324L213.076 335.843L211.816 340.218L216.191 341.477L213.672 350.227L209.298 348.968L208.038 353.343L199.288 350.824L200.548 346.449L209.298 348.968L211.816 340.218L203.067 337.699L204.326 333.324ZM198.692 336.44L203.067 337.699L200.548 346.449L196.173 345.19L198.692 336.44Z" fill="#FBDFED" fill-opacity="0.85"/>
</g>
<g clip-path="url(#clip47_216_95)">
<path d="M294.958 345.203L259.959 335.128L257.441 343.877L261.815 345.137L260.556 349.512L264.931 350.771L263.672 355.146L268.046 356.405L266.787 360.78L271.162 362.04L267.384 375.164L258.634 372.645L257.374 377.02L279.249 383.317L280.508 378.943L271.758 376.424L275.537 363.299L279.912 364.559L281.171 360.184L285.546 361.443L286.805 357.068L291.18 358.328L292.44 353.953L296.814 355.212L299.333 346.462L294.958 345.203ZM292.44 353.953L261.815 345.137L263.075 340.762L293.699 349.578L292.44 353.953Z" fill="#FBDFED" fill-opacity="0.85"/>
</g>
<g clip-path="url(#clip48_216_95)">
<path d="M335.876 356.982L331.501 355.723L328.983 364.473L333.357 365.732L335.876 356.982ZM344.626 359.501L340.251 358.242L337.732 366.992L342.107 368.251L344.626 359.501ZM349.001 360.761L353.376 362.02L350.857 370.77L346.482 369.51L349.001 360.761ZM362.722 378.923L323.348 367.588L315.792 393.837L346.416 402.653L349.564 391.716L358.314 394.235L362.722 378.923ZM355.199 388.601L350.824 387.341L352.713 380.779L357.088 382.038L355.199 388.601ZM326.464 373.222L348.338 379.52L343.3 397.019L321.426 390.722L326.464 373.222Z" fill="#FBDFED" fill-opacity="0.85"/>
</g>
<g clip-path="url(#clip49_216_95)">
<path d="M401.486 373.501L427.735 381.058L426.475 385.433L400.226 377.876L401.486 373.501ZM394.592 380.991L395.851 376.617L400.226 377.876L398.967 382.251L394.592 380.991ZM387.035 407.241L394.592 380.991L390.217 379.732L382.661 405.981L387.035 407.241ZM390.151 412.875L391.41 408.5L387.035 407.241L385.776 411.616L390.151 412.875ZM416.4 420.432L415.141 424.806L388.891 417.25L390.151 412.875L416.4 420.432ZM422.034 417.316L420.775 421.691L416.4 420.432L417.66 416.057L422.034 417.316ZM429.591 391.067L433.966 392.326L426.409 418.575L422.034 417.316L429.591 391.067ZM429.591 391.067L430.85 386.692L426.475 385.433L425.216 389.807L429.591 391.067ZM410.534 383.212L414.909 384.471L413.649 388.846L420.211 390.735L418.952 395.11L405.827 391.332L404.568 395.707L417.693 399.485L413.914 412.61L407.352 410.721L406.093 415.096L401.718 413.836L402.977 409.461L396.415 407.572L397.674 403.197L410.799 406.975L412.058 402.601L398.934 398.822L402.712 385.698L409.274 387.587L410.534 383.212Z" fill="#FBDFED" fill-opacity="0.85"/>
</g>
<g clip-path="url(#clip50_216_95)">
<path d="M473.542 394.245L477.853 395.486L475.334 404.235L483.955 406.717L486.474 397.967L490.784 399.208L488.265 407.958L492.576 409.199L490.687 415.761L494.997 417.002L493.738 421.377L489.427 420.136L488.168 424.511L496.789 426.993L495.53 431.368L486.909 428.886L485.649 433.261L489.96 434.502L488.7 438.876L484.39 437.636L482.501 444.198L456.637 436.752L458.527 430.19L454.216 428.949L455.475 424.574L459.786 425.815L461.045 421.44L452.424 418.959L453.684 414.584L462.305 417.065L463.564 412.691L459.254 411.45L460.513 407.075L464.824 408.316L466.713 401.753L471.023 402.994L473.542 394.245ZM487.006 412.333L469.764 407.369L467.875 413.932L485.117 418.895L487.006 412.333ZM473.081 420.168L466.615 418.306L462.207 433.618L468.673 435.48L473.081 420.168ZM472.984 436.721L479.449 438.582L483.857 423.27L477.392 421.409L472.984 436.721ZM460.513 407.075L456.203 405.834L457.462 401.459L461.773 402.7L460.513 407.075ZM454.216 428.949L452.957 433.324L448.646 432.083L449.905 427.708L454.216 428.949ZM488.7 438.876L493.011 440.117L491.751 444.492L487.441 443.251L488.7 438.876ZM494.997 417.002L496.257 412.627L500.567 413.868L499.308 418.243L494.997 417.002Z" fill="#FBDFED" fill-opacity="0.85"/>
</g>
<g clip-path="url(#clip51_216_95)">
<path d="M534.244 411.719L529.933 410.478L528.044 417.041L521.578 415.179L520.319 419.554L526.785 421.415L524.895 427.978L529.206 429.219L531.095 422.656L537.561 424.518L538.82 420.143L532.354 418.281L534.244 411.719ZM559.477 421.352L544.39 417.009L543.131 421.384L553.907 424.486L552.648 428.861L563.424 431.963L555.868 458.212L523.538 448.906L527.946 433.593L523.636 432.353L517.969 452.039L558.919 463.828L568.994 428.829L558.218 425.727L559.477 421.352ZM540.612 430.133L549.233 432.615L547.974 436.99L552.284 438.231L549.765 446.981L545.455 445.74L544.195 450.115L535.574 447.633L536.834 443.258L545.455 445.74L547.974 436.99L539.353 434.508L540.612 430.133ZM535.042 433.267L539.353 434.508L536.834 443.258L532.523 442.017L535.042 433.267Z" fill="#FBDFED" fill-opacity="0.85"/>
</g>
<g clip-path="url(#clip52_216_95)">
<path d="M630.955 441.929L596.47 432.002L593.952 440.751L598.262 441.992L597.003 446.367L601.313 447.608L600.054 451.983L604.364 453.224L603.105 457.599L607.415 458.84L603.637 471.964L595.016 469.482L593.757 473.857L615.309 480.062L616.569 475.687L607.948 473.205L611.726 460.08L616.037 461.321L617.296 456.946L621.606 458.187L622.866 453.813L627.176 455.053L628.436 450.679L632.746 451.919L635.265 443.17L630.955 441.929ZM628.436 450.679L598.262 441.992L599.522 437.617L629.695 446.304L628.436 450.679Z" fill="#FBDFED" fill-opacity="0.85"/>
</g>
<g clip-path="url(#clip53_216_95)">
<path d="M672.259 453.819L667.948 452.578L665.429 461.328L669.74 462.569L672.259 453.819ZM680.88 456.301L676.569 455.06L674.05 463.81L678.361 465.051L680.88 456.301ZM685.19 457.542L689.501 458.783L686.982 467.533L682.672 466.292L685.19 457.542ZM698.654 475.63L659.859 464.462L652.303 490.711L682.477 499.398L685.625 488.46L694.246 490.942L698.654 475.63ZM691.195 485.326L686.885 484.086L688.774 477.523L693.084 478.764L691.195 485.326ZM662.911 470.078L684.463 476.282L679.425 493.782L657.873 487.577L662.911 470.078Z" fill="#FBDFED" fill-opacity="0.85"/>
</g>
<g clip-path="url(#clip54_216_95)">
<path d="M737.9 470.347L763.763 477.793L762.504 482.168L736.641 474.722L737.9 470.347ZM731.071 477.856L732.33 473.481L736.641 474.722L735.381 479.097L731.071 477.856ZM723.514 504.105L731.071 477.856L726.76 476.615L719.204 502.864L723.514 504.105ZM726.565 509.721L727.825 505.346L723.514 504.105L722.255 508.48L726.565 509.721ZM752.428 517.167L751.169 521.541L725.306 514.096L726.565 509.721L752.428 517.167ZM757.998 514.033L756.739 518.407L752.428 517.167L753.688 512.792L757.998 514.033ZM765.555 487.783L769.866 489.024L762.309 515.273L757.998 514.033L765.555 487.783ZM765.555 487.783L766.814 483.408L762.504 482.168L761.244 486.542L765.555 487.783ZM746.787 480.012L751.098 481.253L749.838 485.628L756.304 487.489L755.045 491.864L742.113 488.141L740.854 492.516L753.785 496.239L750.007 509.363L743.541 507.502L742.282 511.877L737.971 510.636L739.231 506.261L732.765 504.4L734.024 500.025L746.956 503.748L748.215 499.373L735.284 495.65L739.062 482.525L745.528 484.387L746.787 480.012Z" fill="#FBDFED" fill-opacity="0.85"/>
</g>
<g clip-path="url(#clip55_216_95)">
<path d="M50.4317 345.174L54.7423 346.415L52.2234 355.165L60.8445 357.647L63.3633 348.897L67.6739 350.138L65.155 358.887L69.4655 360.128L67.5764 366.691L71.8869 367.932L70.6275 372.306L66.317 371.066L65.0575 375.44L73.6786 377.922L72.4192 382.297L63.7981 379.815L62.5387 384.19L66.8492 385.431L65.5898 389.806L61.2793 388.565L59.3901 395.127L33.5269 387.682L35.4161 381.12L31.1055 379.879L32.365 375.504L36.6755 376.745L37.9349 372.37L29.3139 369.888L30.5733 365.513L39.1943 367.995L40.4538 363.62L36.1432 362.379L37.4027 358.004L41.7132 359.245L43.6023 352.683L47.9129 353.924L50.4317 345.174ZM63.8956 363.262L46.6534 358.299L44.7643 364.861L62.0064 369.825L63.8956 363.262ZM49.9707 371.097L43.5049 369.236L39.0969 384.548L45.5627 386.409L49.9707 371.097ZM49.8732 387.65L56.339 389.512L60.747 374.2L54.2812 372.338L49.8732 387.65ZM37.4027 358.004L33.0921 356.763L34.3516 352.389L38.6621 353.629L37.4027 358.004ZM31.1055 379.879L29.8461 384.254L25.5356 383.013L26.795 378.638L31.1055 379.879ZM65.5898 389.806L69.9003 391.047L68.6409 395.422L64.3304 394.181L65.5898 389.806ZM71.8869 367.932L73.1464 363.557L77.4569 364.798L76.1975 369.172L71.8869 367.932Z" fill="#FBDFED" fill-opacity="0.85"/>
</g>
<g clip-path="url(#clip56_216_95)">
<path d="M111.294 362.695L106.919 361.436L105.03 367.998L98.4676 366.109L97.2081 370.484L103.77 372.373L101.881 378.935L106.256 380.194L108.145 373.632L114.708 375.521L115.967 371.146L109.405 369.257L111.294 362.695ZM136.913 372.439L121.601 368.031L120.342 372.406L131.279 375.554L130.02 379.929L140.957 383.078L133.4 409.327L100.589 399.881L104.997 384.569L100.622 383.31L94.9544 402.997L136.516 414.961L146.591 379.962L135.654 376.814L136.913 372.439ZM117.823 381.156L126.573 383.674L125.313 388.049L129.688 389.309L127.169 398.058L122.795 396.799L121.535 401.174L112.785 398.655L114.045 394.28L122.795 396.799L125.313 388.049L116.564 385.53L117.823 381.156ZM112.189 384.271L116.564 385.53L114.045 394.28L109.67 393.021L112.189 384.271Z" fill="#FBDFED" fill-opacity="0.85"/>
</g>
<g clip-path="url(#clip57_216_95)">
<path d="M208.455 393.034L173.456 382.959L170.938 391.709L175.312 392.968L174.053 397.343L178.428 398.602L177.168 402.977L181.543 404.237L180.284 408.611L184.659 409.871L180.88 422.996L172.131 420.477L170.871 424.852L192.746 431.149L194.005 426.774L185.255 424.255L189.034 411.13L193.409 412.39L194.668 408.015L199.043 409.274L200.302 404.899L204.677 406.159L205.937 401.784L210.311 403.043L212.83 394.294L208.455 393.034ZM205.937 401.784L175.312 392.968L176.572 388.593L207.196 397.409L205.937 401.784Z" fill="#FBDFED" fill-opacity="0.85"/>
</g>
<g clip-path="url(#clip58_216_95)">
<path d="M249.373 404.814L244.998 403.554L242.48 412.304L246.854 413.563L249.373 404.814ZM258.123 407.332L253.748 406.073L251.229 414.823L255.604 416.082L258.123 407.332ZM262.498 408.592L266.873 409.851L264.354 418.601L259.979 417.342L262.498 408.592ZM276.219 426.754L236.845 415.419L229.289 441.669L259.913 450.485L263.061 439.547L271.811 442.066L276.219 426.754ZM268.696 436.432L264.321 435.173L266.21 428.61L270.585 429.87L268.696 436.432ZM239.961 421.054L261.835 427.351L256.797 444.85L234.923 438.553L239.961 421.054Z" fill="#FBDFED" fill-opacity="0.85"/>
</g>
<g clip-path="url(#clip59_216_95)">
<path d="M314.983 421.332L341.232 428.889L339.972 433.264L313.723 425.707L314.983 421.332ZM308.089 428.823L309.348 424.448L313.723 425.707L312.464 430.082L308.089 428.823ZM300.532 455.072L308.089 428.823L303.714 427.563L296.158 453.812L300.532 455.072ZM303.648 460.706L304.907 456.331L300.532 455.072L299.273 459.447L303.648 460.706ZM329.897 468.263L328.638 472.638L302.388 465.081L303.648 460.706L329.897 468.263ZM335.531 465.147L334.272 469.522L329.897 468.263L331.156 463.888L335.531 465.147ZM343.088 438.898L347.463 440.157L339.906 466.407L335.531 465.147L343.088 438.898ZM343.088 438.898L344.347 434.523L339.972 433.264L338.713 437.639L343.088 438.898ZM324.031 431.043L328.406 432.303L327.146 436.678L333.708 438.567L332.449 442.942L319.324 439.163L318.065 443.538L331.19 447.316L327.411 460.441L320.849 458.552L319.59 462.927L315.215 461.667L316.474 457.292L309.912 455.403L311.171 451.028L324.296 454.807L325.555 450.432L312.431 446.654L316.209 433.529L322.771 435.418L324.031 431.043Z" fill="#FBDFED" fill-opacity="0.85"/>
</g>
<g clip-path="url(#clip60_216_95)">
<path d="M386.525 441.928L390.9 443.187L388.381 451.937L397.13 454.456L399.649 445.706L404.024 446.965L401.505 455.715L405.88 456.975L403.991 463.537L408.366 464.796L407.106 469.171L402.732 467.912L401.472 472.287L410.222 474.805L408.962 479.18L400.213 476.661L398.953 481.036L403.328 482.296L402.069 486.671L397.694 485.411L395.805 491.974L369.556 484.417L371.445 477.855L367.07 476.595L368.329 472.22L372.704 473.48L373.963 469.105L365.214 466.586L366.473 462.211L375.223 464.73L376.482 460.355L372.107 459.096L373.367 454.721L377.742 455.98L379.631 449.418L384.006 450.677L386.525 441.928ZM400.246 460.09L382.746 455.052L380.857 461.615L398.357 466.652L400.246 460.09ZM386.16 467.879L379.598 465.989L375.19 481.302L381.752 483.191L386.16 467.879ZM386.127 484.45L392.689 486.339L397.097 471.027L390.535 469.138L386.127 484.45ZM373.367 454.721L368.992 453.461L370.251 449.087L374.626 450.346L373.367 454.721ZM367.07 476.595L365.81 480.97L361.435 479.711L362.695 475.336L367.07 476.595ZM402.069 486.671L406.444 487.93L405.184 492.305L400.809 491.046L402.069 486.671ZM408.366 464.796L409.625 460.421L414 461.681L412.741 466.056L408.366 464.796Z" fill="#FBDFED" fill-opacity="0.85"/>
</g>
<g clip-path="url(#clip61_216_95)">
<path d="M447.74 459.55L443.43 458.309L441.541 464.872L435.075 463.01L433.816 467.385L440.281 469.247L438.392 475.809L442.703 477.05L444.592 470.488L451.058 472.349L452.317 467.974L445.851 466.113L447.74 459.55ZM472.974 469.183L457.887 464.84L456.628 469.215L467.404 472.317L466.145 476.692L476.921 479.794L469.364 506.044L437.035 496.737L441.443 481.425L437.133 480.184L431.465 499.871L472.415 511.659L482.491 476.66L471.715 473.558L472.974 469.183ZM454.109 477.965L462.73 480.447L461.47 484.821L465.781 486.062L463.262 494.812L458.952 493.571L457.692 497.946L449.071 495.464L450.331 491.089L458.952 493.571L461.47 484.821L452.849 482.34L454.109 477.965ZM448.539 481.099L452.849 482.34L450.331 491.089L446.02 489.848L448.539 481.099Z" fill="#FBDFED" fill-opacity="0.85"/>
</g>
<g clip-path="url(#clip62_216_95)">
<path d="M544.452 489.76L509.968 479.833L507.449 488.583L511.759 489.823L510.5 494.198L514.81 495.439L513.551 499.814L517.861 501.055L516.602 505.43L520.913 506.671L517.134 519.795L508.513 517.314L507.254 521.688L528.806 527.893L530.066 523.518L521.445 521.036L525.223 507.912L529.534 509.153L530.793 504.778L535.104 506.019L536.363 501.644L540.674 502.885L541.933 498.51L546.243 499.751L548.762 491.001L544.452 489.76ZM541.933 498.51L511.759 489.823L513.019 485.449L543.192 494.135L541.933 498.51Z" fill="#FBDFED" fill-opacity="0.85"/>
</g>
<g clip-path="url(#clip63_216_95)">
<path d="M585.756 501.651L581.445 500.41L578.926 509.159L583.237 510.4L585.756 501.651ZM594.377 504.132L590.066 502.891L587.547 511.641L591.858 512.882L594.377 504.132ZM598.687 505.373L602.998 506.614L600.479 515.364L596.168 514.123L598.687 505.373ZM612.151 523.461L573.356 512.293L565.8 538.543L595.973 547.229L599.122 536.292L607.743 538.774L612.151 523.461ZM604.692 533.158L600.381 531.917L602.271 525.355L606.581 526.595L604.692 533.158ZM576.407 517.909L597.96 524.114L592.922 541.613L571.37 535.409L576.407 517.909Z" fill="#FBDFED" fill-opacity="0.85"/>
</g>
<g clip-path="url(#clip64_216_95)">
<path d="M651.397 518.179L677.26 525.624L676.001 529.999L650.138 522.553L651.397 518.179ZM644.568 525.687L645.827 521.312L650.138 522.553L648.878 526.928L644.568 525.687ZM637.011 551.937L644.568 525.687L640.257 524.446L632.701 550.696L637.011 551.937ZM640.062 557.552L641.322 553.177L637.011 551.937L635.752 556.311L640.062 557.552ZM665.926 564.998L664.666 569.373L638.803 561.927L640.062 557.552L665.926 564.998ZM671.496 561.864L670.236 566.239L665.926 564.998L667.185 560.623L671.496 561.864ZM679.052 535.615L683.363 536.855L675.806 563.105L671.496 561.864L679.052 535.615ZM679.052 535.615L680.311 531.24L676.001 529.999L674.742 534.374L679.052 535.615ZM660.284 527.843L664.595 529.084L663.335 533.459L669.801 535.32L668.542 539.695L655.61 535.972L654.351 540.347L667.282 544.07L663.504 557.195L657.038 555.333L655.779 559.708L651.468 558.467L652.728 554.092L646.262 552.231L647.521 547.856L660.453 551.579L661.712 547.204L648.781 543.481L652.559 530.357L659.025 532.218L660.284 527.843Z" fill="#FBDFED" fill-opacity="0.85"/>
</g>
<g clip-path="url(#clip65_216_95)">
<path d="M722.875 538.755L727.185 539.996L724.666 548.746L733.287 551.228L735.806 542.478L740.117 543.719L737.598 552.469L741.909 553.71L740.019 560.272L744.33 561.513L743.07 565.888L738.76 564.647L737.501 569.022L746.122 571.503L744.862 575.878L736.241 573.396L734.982 577.771L739.292 579.012L738.033 583.387L733.722 582.146L731.833 588.709L705.97 581.263L707.859 574.701L703.549 573.46L704.808 569.085L709.118 570.326L710.378 565.951L701.757 563.469L703.016 559.094L711.637 561.576L712.897 557.201L708.586 555.96L709.846 551.586L714.156 552.826L716.045 546.264L720.356 547.505L722.875 538.755ZM736.339 556.844L719.096 551.88L717.207 558.442L734.449 563.406L736.339 556.844ZM722.414 564.678L715.948 562.817L711.54 578.129L718.006 579.991L722.414 564.678ZM722.316 581.231L728.782 583.093L733.19 567.781L726.724 565.919L722.316 581.231ZM709.846 551.586L705.535 550.345L706.795 545.97L711.105 547.211L709.846 551.586ZM703.549 573.46L702.289 577.835L697.979 576.594L699.238 572.219L703.549 573.46ZM738.033 583.387L742.343 584.628L741.084 589.003L736.773 587.762L738.033 583.387ZM744.33 561.513L745.589 557.138L749.9 558.379L748.64 562.754L744.33 561.513Z" fill="#FBDFED" fill-opacity="0.85"/>
</g>
<g clip-path="url(#clip66_216_95)">
<path d="M24.4262 411.188L20.1157 409.947L18.2543 416.412L11.7885 414.551L10.5476 418.862L17.0134 420.723L15.1521 427.189L19.4626 428.43L21.324 421.964L27.7898 423.825L29.0307 419.515L22.5649 417.653L24.4262 411.188ZM49.669 420.788L34.5821 416.445L33.3412 420.756L44.1175 423.858L42.8766 428.168L53.653 431.271L46.2075 457.134L13.8785 447.827L18.2217 432.74L13.9112 431.499L8.3271 450.897L49.2772 462.685L59.2044 428.201L48.4281 425.099L49.669 420.788ZM30.8594 429.377L39.4805 431.859L38.2396 436.169L42.5501 437.41L40.0683 446.031L35.7578 444.79L34.5169 449.101L25.8958 446.619L27.1367 442.308L35.7578 444.79L38.2396 436.169L29.6185 433.687L30.8594 429.377ZM25.308 432.446L29.6185 433.687L27.1367 442.308L22.8262 441.067L25.308 432.446Z" fill="#FBDFED" fill-opacity="0.85"/>
</g>
<g clip-path="url(#clip67_216_95)">
<path d="M121.758 441.541L86.7588 431.466L84.277 440.087L88.6518 441.346L87.4109 445.657L91.7858 446.916L90.5449 451.227L94.9198 452.486L93.6789 456.797L98.0537 458.056L94.331 470.988L85.5813 468.469L84.3404 472.779L106.215 479.076L107.456 474.766L98.7059 472.247L102.429 459.315L106.803 460.575L108.044 456.264L112.419 457.524L113.66 453.213L118.035 454.473L119.276 450.162L123.651 451.422L126.133 442.8L121.758 441.541ZM119.276 450.162L88.6518 441.346L89.8928 437.036L120.517 445.852L119.276 450.162Z" fill="#FBDFED" fill-opacity="0.85"/>
</g>
<g clip-path="url(#clip68_216_95)">
<path d="M162.676 453.32L158.301 452.061L155.819 460.682L160.194 461.941L162.676 453.32ZM171.426 455.839L167.051 454.58L164.569 463.201L168.944 464.46L171.426 455.839ZM175.8 457.099L180.175 458.358L177.693 466.979L173.319 465.72L175.8 457.099ZM189.577 475.068L150.203 463.733L142.758 489.596L173.382 498.412L176.484 487.636L185.234 490.155L189.577 475.068ZM182.1 484.585L177.725 483.325L179.586 476.86L183.961 478.119L182.1 484.585ZM153.337 469.303L175.212 475.6L170.248 492.842L148.374 486.545L153.337 469.303Z" fill="#FBDFED" fill-opacity="0.85"/>
</g>
<g clip-path="url(#clip69_216_95)">
<path d="M228.276 469.871L254.525 477.428L253.284 481.738L227.035 474.182L228.276 469.871ZM221.419 477.233L222.66 472.922L227.035 474.182L225.794 478.492L221.419 477.233ZM213.974 503.096L221.419 477.233L217.044 475.973L209.599 501.837L213.974 503.096ZM217.108 508.666L218.349 504.356L213.974 503.096L212.733 507.407L217.108 508.666ZM243.357 516.223L242.116 520.533L215.867 512.977L217.108 508.666L243.357 516.223ZM248.973 513.172L247.732 517.482L243.357 516.223L244.598 511.912L248.973 513.172ZM256.418 487.308L260.793 488.568L253.348 514.431L248.973 513.172L256.418 487.308ZM256.418 487.308L257.659 482.998L253.284 481.738L252.043 486.049L256.418 487.308ZM237.352 479.486L241.727 480.745L240.486 485.056L247.048 486.945L245.807 491.255L232.682 487.477L231.442 491.788L244.566 495.566L240.843 508.497L234.281 506.608L233.04 510.919L228.665 509.659L229.906 505.349L223.344 503.46L224.585 499.149L237.709 502.927L238.95 498.617L225.826 494.839L229.548 481.907L236.111 483.796L237.352 479.486Z" fill="#FBDFED" fill-opacity="0.85"/>
</g>
<defs>
<clipPath id="clip0_216_95">
<rect width="53.8271" height="53.8271" fill="white" transform="translate(131.128) rotate(16.0599)"/>
</clipPath>
<clipPath id="clip1_216_95">
<rect width="54.6305" height="53.8271" fill="white" transform="translate(198.296 19.3359) rotate(16.0599)"/>
</clipPath>
<clipPath id="clip2_216_95">
<rect width="54.6305" height="53.8271" fill="white" transform="translate(265.463 38.6718) rotate(16.0599)"/>
</clipPath>
<clipPath id="clip3_216_95">
<rect width="54.6305" height="53.8271" fill="white" transform="translate(332.63 58.0077) rotate(16.0599)"/>
</clipPath>
<clipPath id="clip4_216_95">
<rect width="54.6305" height="53.8271" fill="white" transform="translate(399.797 77.3436) rotate(16.0599)"/>
</clipPath>
<clipPath id="clip5_216_95">
<rect width="54.6305" height="53.8271" fill="white" transform="translate(466.964 96.6795) rotate(16.0599)"/>
</clipPath>
<clipPath id="clip6_216_95">
<rect width="53.8271" height="53.8271" fill="white" transform="translate(534.903 116.238) rotate(16.0599)"/>
</clipPath>
<clipPath id="clip7_216_95">
<rect width="53.8271" height="53.8271" fill="white" transform="translate(602.07 135.574) rotate(16.0599)"/>
</clipPath>
<clipPath id="clip8_216_95">
<rect width="53.8271" height="53.8271" fill="white" transform="translate(669.238 154.909) rotate(16.0599)"/>
</clipPath>
<clipPath id="clip9_216_95">
<rect width="53.8271" height="53.8271" fill="white" transform="translate(736.405 174.245) rotate(16.0599)"/>
</clipPath>
<clipPath id="clip10_216_95">
<rect width="53.8271" height="53.8271" fill="white" transform="translate(803.572 193.581) rotate(16.0599)"/>
</clipPath>
<clipPath id="clip11_216_95">
<rect width="53.8271" height="54.6305" fill="white" transform="translate(111.792 67.1671) rotate(16.0599)"/>
</clipPath>
<clipPath id="clip12_216_95">
<rect width="54.6305" height="54.6305" fill="white" transform="translate(178.96 86.503) rotate(16.0599)"/>
</clipPath>
<clipPath id="clip13_216_95">
<rect width="54.6305" height="54.6305" fill="white" transform="translate(246.127 105.839) rotate(16.0599)"/>
</clipPath>
<clipPath id="clip14_216_95">
<rect width="54.6305" height="54.6305" fill="white" transform="translate(313.294 125.175) rotate(16.0599)"/>
</clipPath>
<clipPath id="clip15_216_95">
<rect width="54.6305" height="54.6305" fill="white" transform="translate(380.461 144.511) rotate(16.0599)"/>
</clipPath>
<clipPath id="clip16_216_95">
<rect width="54.6305" height="54.6305" fill="white" transform="translate(447.628 163.847) rotate(16.0599)"/>
</clipPath>
<clipPath id="clip17_216_95">
<rect width="53.8271" height="54.6305" fill="white" transform="translate(515.567 183.405) rotate(16.0599)"/>
</clipPath>
<clipPath id="clip18_216_95">
<rect width="53.8271" height="54.6305" fill="white" transform="translate(582.734 202.741) rotate(16.0599)"/>
</clipPath>
<clipPath id="clip19_216_95">
<rect width="53.8271" height="54.6305" fill="white" transform="translate(649.902 222.077) rotate(16.0599)"/>
</clipPath>
<clipPath id="clip20_216_95">
<rect width="53.8271" height="54.6305" fill="white" transform="translate(717.069 241.412) rotate(16.0599)"/>
</clipPath>
<clipPath id="clip21_216_95">
<rect width="53.8271" height="54.6305" fill="white" transform="translate(784.236 260.748) rotate(16.0599)"/>
</clipPath>
<clipPath id="clip22_216_95">
<rect width="53.8271" height="54.6305" fill="white" transform="translate(92.4567 134.334) rotate(16.0599)"/>
</clipPath>
<clipPath id="clip23_216_95">
<rect width="54.6305" height="54.6305" fill="white" transform="translate(159.624 153.67) rotate(16.0599)"/>
</clipPath>
<clipPath id="clip24_216_95">
<rect width="54.6305" height="54.6305" fill="white" transform="translate(226.791 173.006) rotate(16.0599)"/>
</clipPath>
<clipPath id="clip25_216_95">
<rect width="54.6305" height="54.6305" fill="white" transform="translate(293.958 192.342) rotate(16.0599)"/>
</clipPath>
<clipPath id="clip26_216_95">
<rect width="54.6305" height="54.6305" fill="white" transform="translate(361.125 211.678) rotate(16.0599)"/>
</clipPath>
<clipPath id="clip27_216_95">
<rect width="54.6305" height="54.6305" fill="white" transform="translate(428.292 231.014) rotate(16.0599)"/>
</clipPath>
<clipPath id="clip28_216_95">
<rect width="53.8271" height="54.6305" fill="white" transform="translate(496.231 250.572) rotate(16.0599)"/>
</clipPath>
<clipPath id="clip29_216_95">
<rect width="53.8271" height="54.6305" fill="white" transform="translate(563.398 269.908) rotate(16.0599)"/>
</clipPath>
<clipPath id="clip30_216_95">
<rect width="53.8271" height="54.6305" fill="white" transform="translate(630.566 289.244) rotate(16.0599)"/>
</clipPath>
<clipPath id="clip31_216_95">
<rect width="53.8271" height="54.6305" fill="white" transform="translate(697.733 308.58) rotate(16.0599)"/>
</clipPath>
<clipPath id="clip32_216_95">
<rect width="53.8271" height="54.6305" fill="white" transform="translate(764.9 327.915) rotate(16.0599)"/>
</clipPath>
<clipPath id="clip33_216_95">
<rect width="53.8271" height="54.6305" fill="white" transform="translate(73.1207 201.501) rotate(16.0599)"/>
</clipPath>
<clipPath id="clip34_216_95">
<rect width="54.6305" height="54.6305" fill="white" transform="translate(140.288 220.837) rotate(16.0599)"/>
</clipPath>
<clipPath id="clip35_216_95">
<rect width="54.6305" height="54.6305" fill="white" transform="translate(207.455 240.173) rotate(16.0599)"/>
</clipPath>
<clipPath id="clip36_216_95">
<rect width="54.6305" height="54.6305" fill="white" transform="translate(274.622 259.509) rotate(16.0599)"/>
</clipPath>
<clipPath id="clip37_216_95">
<rect width="54.6305" height="54.6305" fill="white" transform="translate(341.789 278.845) rotate(16.0599)"/>
</clipPath>
<clipPath id="clip38_216_95">
<rect width="54.6305" height="54.6305" fill="white" transform="translate(408.956 298.181) rotate(16.0599)"/>
</clipPath>
<clipPath id="clip39_216_95">
<rect width="53.8271" height="54.6305" fill="white" transform="translate(476.896 317.739) rotate(16.0599)"/>
</clipPath>
<clipPath id="clip40_216_95">
<rect width="53.8271" height="54.6305" fill="white" transform="translate(544.062 337.075) rotate(16.0599)"/>
</clipPath>
<clipPath id="clip41_216_95">
<rect width="53.8271" height="54.6305" fill="white" transform="translate(611.23 356.411) rotate(16.0599)"/>
</clipPath>
<clipPath id="clip42_216_95">
<rect width="53.8271" height="54.6305" fill="white" transform="translate(678.397 375.747) rotate(16.0599)"/>
</clipPath>
<clipPath id="clip43_216_95">
<rect width="53.8271" height="54.6305" fill="white" transform="translate(745.564 395.083) rotate(16.0599)"/>
</clipPath>
<clipPath id="clip44_216_95">
<rect width="53.8271" height="54.6305" fill="white" transform="translate(53.7848 268.668) rotate(16.0599)"/>
</clipPath>
<clipPath id="clip45_216_95">
<rect width="54.6305" height="54.6305" fill="white" transform="translate(120.952 288.004) rotate(16.0599)"/>
</clipPath>
<clipPath id="clip46_216_95">
<rect width="54.6305" height="54.6305" fill="white" transform="translate(188.119 307.34) rotate(16.0599)"/>
</clipPath>
<clipPath id="clip47_216_95">
<rect width="54.6305" height="54.6305" fill="white" transform="translate(255.286 326.676) rotate(16.0599)"/>
</clipPath>
<clipPath id="clip48_216_95">
<rect width="54.6305" height="54.6305" fill="white" transform="translate(322.453 346.012) rotate(16.0599)"/>
</clipPath>
<clipPath id="clip49_216_95">
<rect width="54.6305" height="54.6305" fill="white" transform="translate(389.62 365.348) rotate(16.0599)"/>
</clipPath>
<clipPath id="clip50_216_95">
<rect width="53.8271" height="54.6305" fill="white" transform="translate(457.56 384.906) rotate(16.0599)"/>
</clipPath>
<clipPath id="clip51_216_95">
<rect width="53.8271" height="54.6305" fill="white" transform="translate(524.727 404.242) rotate(16.0599)"/>
</clipPath>
<clipPath id="clip52_216_95">
<rect width="53.8271" height="54.6305" fill="white" transform="translate(591.894 423.578) rotate(16.0599)"/>
</clipPath>
<clipPath id="clip53_216_95">
<rect width="53.8271" height="54.6305" fill="white" transform="translate(659.061 442.914) rotate(16.0599)"/>
</clipPath>
<clipPath id="clip54_216_95">
<rect width="53.8271" height="54.6305" fill="white" transform="translate(726.228 462.25) rotate(16.0599)"/>
</clipPath>
<clipPath id="clip55_216_95">
<rect width="53.8271" height="54.6305" fill="white" transform="translate(34.449 335.836) rotate(16.0599)"/>
</clipPath>
<clipPath id="clip56_216_95">
<rect width="54.6305" height="54.6305" fill="white" transform="translate(101.616 355.172) rotate(16.0599)"/>
</clipPath>
<clipPath id="clip57_216_95">
<rect width="54.6305" height="54.6305" fill="white" transform="translate(168.783 374.507) rotate(16.0599)"/>
</clipPath>
<clipPath id="clip58_216_95">
<rect width="54.6305" height="54.6305" fill="white" transform="translate(235.95 393.843) rotate(16.0599)"/>
</clipPath>
<clipPath id="clip59_216_95">
<rect width="54.6305" height="54.6305" fill="white" transform="translate(303.117 413.179) rotate(16.0599)"/>
</clipPath>
<clipPath id="clip60_216_95">
<rect width="54.6305" height="54.6305" fill="white" transform="translate(370.285 432.515) rotate(16.0599)"/>
</clipPath>
<clipPath id="clip61_216_95">
<rect width="53.8271" height="54.6305" fill="white" transform="translate(438.224 452.073) rotate(16.0599)"/>
</clipPath>
<clipPath id="clip62_216_95">
<rect width="53.8271" height="54.6305" fill="white" transform="translate(505.391 471.409) rotate(16.0599)"/>
</clipPath>
<clipPath id="clip63_216_95">
<rect width="53.8271" height="54.6305" fill="white" transform="translate(572.558 490.745) rotate(16.0599)"/>
</clipPath>
<clipPath id="clip64_216_95">
<rect width="53.8271" height="54.6305" fill="white" transform="translate(639.725 510.081) rotate(16.0599)"/>
</clipPath>
<clipPath id="clip65_216_95">
<rect width="53.8271" height="54.6305" fill="white" transform="translate(706.892 529.417) rotate(16.0599)"/>
</clipPath>
<clipPath id="clip66_216_95">
<rect width="53.8271" height="53.8271" fill="white" transform="translate(14.8907 403.775) rotate(16.0599)"/>
</clipPath>
<clipPath id="clip67_216_95">
<rect width="54.6305" height="53.8271" fill="white" transform="translate(82.0579 423.111) rotate(16.0599)"/>
</clipPath>
<clipPath id="clip68_216_95">
<rect width="54.6305" height="53.8271" fill="white" transform="translate(149.225 442.447) rotate(16.0599)"/>
</clipPath>
<clipPath id="clip69_216_95">
<rect width="54.6305" height="53.8271" fill="white" transform="translate(216.392 461.782) rotate(16.0599)"/>
</clipPath>
</defs>
</svg>
