<svg width="752" height="783" viewBox="0 0 752 783" fill="none" xmlns="http://www.w3.org/2000/svg">
<path d="M482.684 182.645L488.025 186.315L473.347 207.678L494.71 222.356L487.371 233.038L482.03 229.368L485.7 224.027L464.336 209.35L475.345 193.327L470.004 189.657L473.673 184.317L479.014 187.986L482.684 182.645ZM460.994 191.329L464.663 185.988L470.004 189.657L466.334 194.998L460.994 191.329ZM451.983 193L455.653 187.659L460.994 191.329L457.324 196.67L451.983 193ZM442.973 194.672L446.642 189.331L451.983 193L448.314 198.341L442.973 194.672ZM454.999 234.382L451.33 239.723L445.989 236.054L442.319 241.395L436.979 237.725L451.657 216.362L430.293 201.684L437.632 191.002L442.973 194.672L439.303 200.012L460.667 214.69L449.658 230.713L454.999 234.382ZM464.01 232.711L460.34 238.052L454.999 234.382L458.669 229.042L464.01 232.711ZM473.02 231.04L469.35 236.381L464.01 232.711L467.679 227.37L473.02 231.04ZM473.02 231.04L478.361 234.709L482.03 229.368L476.689 225.699L473.02 231.04Z" fill="#FFC7E4" fill-opacity="0.9"/>
<path d="M547.867 97.7225L542.23 94.6427L539.15 100.28L544.787 103.359L547.867 97.7225ZM556.061 109.519L561.698 112.599L558.618 118.236L552.981 115.156L556.061 109.519ZM529.911 117.19L535.548 120.27L532.468 125.907L526.831 122.827L529.911 117.19ZM507.363 104.871L513 107.951L509.92 113.587L504.283 110.508L507.363 104.871ZM558.095 132.589L552.458 129.509L549.378 135.146L555.015 138.226L558.095 132.589ZM522.24 91.04L527.876 94.1199L524.797 99.7567L519.16 96.6769L522.24 91.04ZM540.139 152.057L534.502 148.977L537.582 143.34L543.219 146.42L540.139 152.057ZM514.512 145.374L520.148 148.454L523.228 142.817L517.591 139.737L514.512 145.374ZM506.318 133.578L500.681 130.498L503.761 124.861L509.398 127.941L506.318 133.578ZM530.433 102.837L547.344 112.076L544.264 117.713L527.354 108.473L530.433 102.837ZM518.114 125.384L512.477 122.304L521.717 105.394L527.354 108.473L518.114 125.384ZM518.114 125.384L515.034 131.021L531.945 140.26L535.025 134.623L540.662 137.703L549.901 120.793L544.264 117.713L535.025 134.623L518.114 125.384Z" fill="#FFC7E4" fill-opacity="0.9"/>
<path d="M565.569 191.511L562.269 188.681L553.781 198.581L557.081 201.41L565.569 191.511ZM545.763 214.609L542.463 211.78L533.975 221.679L537.274 224.509L545.763 214.609ZM567.686 219.092L564.856 222.392L554.957 213.904L557.786 210.604L567.686 219.092ZM541.757 202.586L544.587 199.286L534.687 190.798L531.858 194.098L541.757 202.586ZM561.795 202.59L565.095 205.419L562.266 208.719L558.966 205.889L561.795 202.59ZM571.224 204.949L567.924 202.119L565.095 205.419L568.395 208.249L571.224 204.949ZM551.896 194.101L548.596 191.272L545.766 194.572L549.066 197.401L551.896 194.101ZM548.125 185.143L551.425 187.972L548.596 191.272L545.296 188.442L548.125 185.143ZM547.648 219.089L550.948 221.918L548.118 225.218L551.418 228.047L554.248 224.748L550.948 221.918L553.777 218.618L550.477 215.789L547.648 219.089ZM534.449 207.771L537.278 204.471L540.578 207.301L537.748 210.6L534.449 207.771L531.619 211.071L528.319 208.241L531.149 204.941L534.449 207.771Z" fill="#FFA0D2" fill-opacity="0.75"/>
<path d="M258.128 365.467L264.3 359.485L270.282 365.657L276.455 359.675L282.437 365.847L276.264 371.83L270.282 365.657L264.11 371.64L270.092 377.812L263.92 383.794L269.902 389.966L276.074 383.984L282.057 390.156L288.229 384.174L294.211 390.346L300.383 384.364L306.366 390.537L312.538 384.554L306.556 378.382L312.728 372.4L318.71 378.572L312.538 384.554L318.52 390.727L312.348 396.709L306.366 390.537L294.021 402.501L300.003 408.673L293.831 414.655L299.813 420.828L305.986 414.846L311.968 421.018L305.795 427L299.813 420.828L293.641 426.81L287.659 420.638L293.831 414.655L281.867 402.311L275.694 408.293L269.712 402.121L263.54 408.103L269.522 414.275L263.35 420.258L269.332 426.43L263.16 432.412L257.177 426.24L251.005 432.222L245.023 426.05L251.195 420.067L257.177 426.24L263.35 420.258L257.367 414.085L263.54 408.103L257.558 401.931L251.385 407.913L239.421 395.568L251.765 383.604L257.748 389.776L263.92 383.794L257.938 377.622L264.11 371.64L258.128 365.467Z" fill="#FFC7E4" fill-opacity="0.9"/>
<path d="M414.529 424.829L412.024 420.23L398.229 427.744L400.734 432.343L414.529 424.829ZM382.341 442.361L379.836 437.763L366.041 445.277L368.546 449.875L382.341 442.361ZM405.107 456.792L400.509 459.297L392.995 445.502L397.593 442.997L405.107 456.792ZM382.976 427.109L387.575 424.604L380.061 410.809L375.462 413.314L382.976 427.109ZM405.538 435.688L408.042 440.287L403.444 442.791L400.939 438.193L405.538 435.688ZM415.145 442.38L412.641 437.782L408.042 440.287L410.547 444.885L415.145 442.38ZM398.024 421.894L395.519 417.295L390.921 419.8L393.425 424.398L398.024 421.894ZM397.613 410.192L400.117 414.791L395.519 417.295L393.014 412.697L397.613 410.192ZM382.546 448.212L385.051 452.81L380.453 455.315L382.957 459.913L387.556 457.408L385.051 452.81L389.649 450.305L387.145 445.707L382.546 448.212ZM372.528 429.819L377.126 427.314L379.63 431.912L375.032 434.417L372.528 429.819L367.929 432.323L365.425 427.725L370.023 425.22L372.528 429.819Z" fill="#FFA0D2" fill-opacity="0.75"/>
<path d="M440.768 488.265L435.973 493.857L441.565 498.652L436.771 504.244L442.362 509.038L447.157 503.447L452.749 508.241L457.544 502.65L451.952 497.855L456.747 492.263L451.155 487.468L446.36 493.06L440.768 488.265ZM480.72 464.304L461.541 486.671L467.133 491.466L471.928 485.874L477.52 490.669L482.314 485.077L476.722 480.282L486.312 469.099L480.72 464.304ZM496.698 468.302L491.107 463.507L486.312 469.099L491.904 473.893L496.698 468.302ZM519.066 487.481L523.86 481.889L501.493 462.71L496.698 468.302L519.066 487.481ZM519.863 497.867L524.657 492.275L519.066 487.481L514.271 493.072L519.863 497.867ZM500.684 520.234L506.276 525.029L525.454 502.662L519.863 497.867L500.684 520.234ZM490.297 521.031L495.889 525.826L500.684 520.234L495.092 515.44L490.297 521.031ZM483.908 505.85L478.317 501.055L473.522 506.647L467.93 501.852L463.135 507.444L485.503 526.623L490.297 521.031L479.114 511.442L483.908 505.85ZM493.498 494.666L483.908 505.85L489.5 510.645L499.09 499.461L493.498 494.666ZM493.498 494.666L482.314 485.077L487.109 479.485L498.293 489.075L493.498 494.666ZM529.452 486.683L534.247 481.092L539.839 485.886L544.633 480.295L550.225 485.089L545.43 490.681L551.022 495.476L546.228 501.068L540.636 496.273L535.841 501.865L530.249 497.07L535.044 491.478L529.452 486.683Z" fill="#FFC7E4" fill-opacity="0.9"/>
<path d="M522.69 386.381L525.573 394.257L517.697 397.14L520.58 405.016L512.705 407.899L509.822 400.023L517.697 397.14L514.815 389.264L506.939 392.147L504.056 384.271L496.18 387.154L499.063 395.03L491.187 397.913L494.07 405.789L486.194 408.671L489.077 416.547L481.202 419.43L484.084 427.306L491.96 424.423L494.843 432.299L486.967 435.181L484.084 427.306L476.209 430.189L473.326 422.313L481.202 419.43L475.436 403.678L467.56 406.561L464.677 398.686L456.802 401.568L459.684 409.444L451.809 412.327L448.926 404.451L456.802 401.568L453.919 393.693L461.794 390.81L464.677 398.686L480.429 392.92L477.546 385.044L485.422 382.161L482.539 374.286L474.663 377.168L471.78 369.293L463.904 372.176L461.022 364.3L468.897 361.417L466.015 353.541L473.89 350.658L476.773 358.534L468.897 361.417L471.78 369.293L479.656 366.41L482.539 374.286L490.415 371.403L487.532 363.527L503.283 357.761L509.049 373.513L501.173 376.396L504.056 384.271L511.932 381.389L514.815 389.264L522.69 386.381Z" fill="#FFC7E4" fill-opacity="0.9"/>
<path d="M399.631 303.296L393.38 299.399L381.689 318.151L387.939 322.048L399.631 303.296ZM372.351 347.05L366.1 343.153L354.409 361.905L360.659 365.802L372.351 347.05ZM410.221 348.961L406.324 355.211L387.572 343.52L391.47 337.269L410.221 348.961ZM362.57 327.931L366.467 321.681L347.715 309.989L343.818 316.24L362.57 327.931ZM396.138 322.82L402.389 326.717L398.492 332.967L392.241 329.07L396.138 322.82ZM412.537 324.363L406.286 320.466L402.389 326.717L408.64 330.614L412.537 324.363ZM377.387 311.128L371.136 307.231L367.239 313.482L373.49 317.379L377.387 311.128ZM368.783 297.083L375.033 300.981L371.136 307.231L364.886 303.334L368.783 297.083ZM376.653 354.073L382.903 357.97L379.006 364.22L385.257 368.117L389.154 361.867L382.903 357.97L386.801 351.719L380.55 347.822L376.653 354.073ZM351.65 338.484L355.548 332.233L361.798 336.131L357.901 342.381L351.65 338.484L347.753 344.735L341.503 340.838L345.4 334.587L351.65 338.484Z" fill="#FFC7E4" fill-opacity="0.9"/>
<path d="M426.963 545.277L444.405 569.023L438.469 573.384L421.026 549.637L426.963 545.277ZM406.369 542.125L412.305 537.764L421.026 549.637L415.09 553.998L406.369 542.125ZM396.071 540.549L402.008 536.188L406.369 542.125L400.432 546.485L396.071 540.549ZM390.135 544.909L396.071 540.549L391.711 534.612L385.774 538.973L390.135 544.909ZM388.559 555.207L384.198 549.27L390.135 544.909L394.495 550.846L388.559 555.207ZM391.343 571.44L382.622 559.567L388.559 555.207L397.28 567.08L391.343 571.44ZM408.786 595.187L402.849 599.547L385.407 575.801L391.343 571.44L408.786 595.187ZM423.444 602.699L417.507 607.06L408.786 595.187L414.722 590.826L423.444 602.699ZM433.741 604.275L427.804 608.636L423.444 602.699L429.38 598.338L433.741 604.275ZM439.677 599.914L444.038 605.851L438.101 610.212L433.741 604.275L439.677 599.914ZM441.253 589.617L445.614 595.554L439.677 599.914L435.317 593.978L441.253 589.617ZM441.253 589.617L447.19 585.257L438.469 573.384L432.532 577.744L441.253 589.617ZM417.27 556.966L421.631 562.903L415.694 567.263L411.333 561.327L417.27 556.966ZM420.055 573.2L415.694 567.263L409.757 571.624L405.397 565.687L399.46 570.048L403.821 575.985L409.757 571.624L414.118 577.561L408.182 581.921L412.542 587.858L418.479 583.497L414.118 577.561L420.055 573.2ZM420.055 573.2L425.991 568.839L430.352 574.776L424.415 579.136L420.055 573.2Z" fill="#FF69B8" fill-opacity="0.75"/>
<path d="M303.234 280.463L308.826 285.258L304.031 290.849L309.623 295.644L304.828 301.236L299.236 296.441L294.442 302.033L288.85 297.238L293.644 291.646L288.053 286.852L292.847 281.26L298.439 286.055L303.234 280.463ZM260.094 262.878L282.461 282.057L277.666 287.649L272.074 282.854L267.28 288.446L261.688 283.651L266.483 278.059L255.299 268.47L260.094 262.878ZM244.912 269.267L249.707 263.675L255.299 268.47L250.504 274.062L244.912 269.267ZM225.734 291.634L220.142 286.84L239.321 264.472L244.912 269.267L225.734 291.634ZM226.531 302.021L220.939 297.226L225.734 291.634L231.325 296.429L226.531 302.021ZM248.898 321.2L244.103 326.791L221.736 307.613L226.531 302.021L248.898 321.2ZM259.284 320.403L254.49 325.994L248.898 321.2L253.693 315.608L259.284 320.403ZM263.282 304.424L268.077 298.832L273.669 303.627L278.463 298.035L284.055 302.83L264.876 325.197L259.284 320.403L268.874 309.219L263.282 304.424ZM252.098 294.835L263.282 304.424L258.487 310.016L247.304 300.427L252.098 294.835ZM252.098 294.835L261.688 283.651L256.096 278.857L246.507 290.04L252.098 294.835ZM215.347 292.431L209.755 287.637L204.961 293.228L199.369 288.434L194.574 294.026L200.166 298.82L195.371 304.412L200.963 309.207L205.758 303.615L211.349 308.41L216.144 302.818L210.552 298.023L215.347 292.431Z" fill="#FFA0D2" fill-opacity="0.75"/>
<path d="M349.153 194.341L375.722 207.077L372.538 213.72L345.969 200.983L349.153 194.341ZM329.501 201.257L332.685 194.615L345.969 200.983L342.785 207.625L329.501 201.257ZM319.674 204.715L322.859 198.073L329.501 201.257L326.317 207.9L319.674 204.715ZM316.49 211.358L319.674 204.715L313.032 201.531L309.848 208.174L316.49 211.358ZM319.949 221.184L313.306 218L316.49 211.358L323.133 214.542L319.949 221.184ZM330.049 234.194L316.764 227.826L319.949 221.184L333.233 227.552L330.049 234.194ZM356.618 246.931L353.434 253.573L326.865 240.837L330.049 234.194L356.618 246.931ZM373.086 246.657L369.902 253.299L356.618 246.931L359.802 240.288L373.086 246.657ZM382.913 243.198L379.729 249.841L373.086 246.657L376.27 240.014L382.913 243.198ZM386.097 236.556L392.739 239.74L389.555 246.383L382.913 243.198L386.097 236.556ZM382.639 226.73L389.281 229.914L386.097 236.556L379.455 233.372L382.639 226.73ZM382.639 226.73L385.823 220.088L372.538 213.72L369.354 220.362L382.639 226.73ZM347.835 214.131L361.12 220.499L354.752 233.783L341.467 227.415L347.835 214.131Z" fill="#FF69B8" fill-opacity="0.75"/>
<path d="M604.979 143.287L598.813 140.159L597.259 143.222L594.175 141.658L592.622 144.722L589.538 143.158L584.877 152.348L587.96 153.912L586.406 156.975L589.489 158.539L587.935 161.603L591.019 163.167L589.465 166.23L592.548 167.794L590.994 170.858L594.078 172.422L592.524 175.485L595.607 177.049L597.161 173.986L600.244 175.549L601.798 172.486L604.881 174.05L606.435 170.987L609.519 172.551L611.073 169.487L614.156 171.051L615.71 167.988L618.793 169.552L623.455 160.361L620.371 158.797L621.925 155.734L618.842 154.17L620.396 151.107L614.229 147.979L612.675 151.042L609.592 149.478L608.038 152.541L604.955 150.978L606.509 147.914L603.425 146.35L604.979 143.287ZM603.425 146.35L601.872 149.414L604.955 150.978L603.401 154.041L606.484 155.605L608.038 152.541L611.121 154.105L612.675 151.042L618.842 154.17L617.288 157.233L620.371 158.797L615.71 167.988L612.626 166.424L611.073 169.487L607.989 167.923L606.435 170.987L603.352 169.423L601.798 172.486L598.715 170.922L597.161 173.986L594.078 172.422L595.632 169.358L592.548 167.794L594.102 164.731L591.019 163.167L592.573 160.103L589.489 158.539L591.043 155.476L587.96 153.912L592.622 144.722L595.705 146.286L597.259 143.222L603.425 146.35Z" fill="#C65691"/>
<path d="M357.606 613.954L359.387 608.352L336.975 601.228L344.099 578.816L332.893 575.255L331.112 580.858L336.715 582.638L329.592 605.05L346.4 610.393L344.619 615.996L350.222 617.776L352.003 612.174L357.606 613.954ZM337.236 619.818L342.839 621.598L344.619 615.996L339.017 614.215L337.236 619.818ZM329.852 623.64L335.455 625.42L337.236 619.818L331.633 618.037L329.852 623.64ZM322.468 627.462L328.071 629.242L329.852 623.64L324.249 621.859L322.468 627.462ZM308.961 592.324L303.358 590.543L301.577 596.146L295.974 594.365L294.193 599.968L316.605 607.091L309.481 629.503L320.687 633.064L322.468 627.462L316.865 625.681L323.989 603.269L307.18 597.927L308.961 592.324ZM316.345 588.502L310.742 586.721L308.961 592.324L314.564 594.105L316.345 588.502ZM323.728 584.68L318.126 582.899L316.345 588.502L321.948 590.283L323.728 584.68ZM323.728 584.68L325.509 579.077L331.112 580.858L329.331 586.46L323.728 584.68Z" fill="#FFC7E4" fill-opacity="0.9"/>
<path d="M242.383 680L242.463 675.799L238.262 675.72L238.183 679.921L242.383 680ZM238.024 688.322L237.945 692.523L233.745 692.443L233.824 688.243L238.024 688.322ZM225.66 675.482L225.581 679.683L221.38 679.604L221.459 675.403L225.66 675.482ZM225.977 658.68L225.897 662.88L221.697 662.801L221.776 658.601L225.977 658.68ZM225.264 696.486L225.343 692.285L221.143 692.206L221.063 696.407L225.264 696.486ZM238.499 663.118L238.42 667.319L234.22 667.239L234.299 663.039L238.499 663.118ZM208.541 691.968L208.62 687.768L212.82 687.847L212.741 692.048L208.541 691.968ZM204.657 675.087L204.577 679.287L208.778 679.366L208.857 675.166L204.657 675.087ZM209.016 666.764L209.095 662.564L213.295 662.643L213.216 666.844L209.016 666.764ZM234.14 671.44L233.903 684.042L229.702 683.963L229.94 671.361L234.14 671.44ZM217.338 671.123L217.417 666.923L230.019 667.16L229.94 671.361L217.338 671.123ZM217.338 671.123L213.137 671.044L212.9 683.646L217.1 683.725L217.021 687.926L229.623 688.164L229.702 683.963L217.1 683.725L217.338 671.123Z" fill="#FFC7E4" fill-opacity="0.9"/>
<path d="M283.59 687.698L277.266 682.275L279.886 679.22L286.21 684.643L288.83 681.587L273.019 668.03L275.638 664.974L294.612 681.244L286.753 690.41L283.59 687.698ZM309.882 689.034L304.642 695.145L295.155 687.01L297.775 683.955L304.099 689.378L306.719 686.323L278.258 661.919L280.878 658.863L312.501 685.979L309.882 689.034ZM286.118 652.753L283.498 655.808L305.634 674.789L313.494 665.623L304.007 657.488L301.387 660.543L307.712 665.967L305.092 669.022L286.118 652.753Z" fill="#FFC7E4" fill-opacity="0.9"/>
<path d="M258.631 602.773L256.202 600.69L249.953 607.977L252.382 610.06L258.631 602.773ZM244.05 619.777L241.621 617.694L235.372 624.982L237.801 627.065L244.05 619.777ZM260.189 623.078L258.106 625.507L250.818 619.258L252.901 616.829L260.189 623.078ZM241.101 610.926L243.184 608.497L235.897 602.248L233.814 604.677L241.101 610.926ZM255.853 610.929L258.282 613.012L256.199 615.441L253.77 613.358L255.853 610.929ZM262.794 612.665L260.365 610.582L258.282 613.012L260.711 615.095L262.794 612.665ZM248.565 604.68L246.136 602.597L244.053 605.026L246.482 607.109L248.565 604.68ZM245.789 598.085L248.219 600.168L246.136 602.597L243.706 600.514L245.789 598.085ZM245.438 623.075L247.867 625.158L245.784 627.587L248.213 629.67L250.296 627.241L247.867 625.158L249.95 622.729L247.521 620.646L245.438 623.075ZM235.721 614.743L237.804 612.314L240.233 614.397L238.15 616.826L235.721 614.743L233.638 617.172L231.209 615.089L233.292 612.66L235.721 614.743Z" fill="#FFA0D2" fill-opacity="0.75"/>
<path d="M184.255 602.36L188.371 614.056L185.447 615.086L184.418 612.161L181.494 613.19L180.465 610.266L183.389 609.237L181.331 603.389L184.255 602.36ZM177.377 601.494L180.302 600.465L181.331 603.389L178.407 604.418L177.377 601.494ZM162.757 606.639L161.727 603.715L176.348 598.57L177.377 601.494L162.757 606.639ZM160.861 610.593L159.832 607.668L162.757 606.639L163.786 609.563L160.861 610.593ZM158.966 614.546L157.937 611.622L160.861 610.593L161.891 613.517L158.966 614.546ZM164.112 629.167L161.188 630.196L156.042 615.575L158.966 614.546L164.112 629.167ZM168.065 631.062L165.141 632.091L164.112 629.167L167.036 628.138L168.065 631.062ZM172.884 626.08L175.809 625.05L176.838 627.975L179.762 626.946L180.791 629.87L169.094 633.986L168.065 631.062L173.914 629.004L172.884 626.08ZM169.797 617.307L172.884 626.08L169.96 627.109L166.873 618.336L169.797 617.307ZM171.692 613.354L172.721 616.278L169.797 617.307L168.768 614.383L171.692 613.354ZM171.692 613.354L180.465 610.266L179.436 607.342L170.663 610.429L171.692 613.354ZM190.43 619.905L191.459 622.829L188.535 623.858L189.564 626.782L186.639 627.811L185.61 624.887L182.686 625.916L181.657 622.992L184.581 621.963L183.552 619.039L186.476 618.01L187.505 620.934L190.43 619.905Z" fill="#E8B6D0"/>
<path d="M441.148 125.487L428.96 123.203L428.389 126.25L431.436 126.821L430.865 129.868L433.912 130.439L434.483 127.392L440.577 128.534L441.148 125.487ZM443.053 132.152L443.624 129.105L440.577 128.534L440.006 131.581L443.053 132.152ZM440.199 147.387L443.246 147.957L446.1 132.723L443.053 132.152L440.199 147.387ZM436.581 149.863L439.628 150.434L440.199 147.387L437.152 146.816L436.581 149.863ZM432.963 152.339L436.01 152.91L436.581 149.863L433.534 149.292L432.963 152.339ZM417.728 149.484L417.157 152.531L432.392 155.386L432.963 152.339L417.728 149.484ZM415.252 145.867L414.681 148.914L417.728 149.484L418.299 146.437L415.252 145.867ZM419.441 140.344L420.012 137.297L416.965 136.726L417.535 133.679L414.488 133.108L412.205 145.296L415.252 145.867L416.394 139.773L419.441 140.344ZM428.582 142.056L419.441 140.344L418.87 143.391L428.011 145.103L428.582 142.056ZM432.199 139.58L429.152 139.009L428.582 142.056L431.629 142.627L432.199 139.58ZM432.199 139.58L433.912 130.439L436.959 131.01L435.246 140.151L432.199 139.58ZM422.866 122.062L419.819 121.491L419.248 124.538L416.201 123.967L415.63 127.014L418.677 127.585L418.106 130.632L421.153 131.203L421.724 128.156L424.771 128.726L425.342 125.679L422.295 125.109L422.866 122.062Z" fill="#C67FA4"/>
</svg>
